<svg width="99" height="99" viewBox="0 0 99 99" fill="none" xmlns="http://www.w3.org/2000/svg">
<path d="M49.5898 98.2037C76.4476 98.2037 98.2202 76.4326 98.2202 49.5766C98.2202 22.7206 76.4476 0.949463 49.5898 0.949463C22.732 0.949463 0.959473 22.7206 0.959473 49.5766C0.959473 76.4326 22.732 98.2037 49.5898 98.2037Z" fill="#FBFBFB"/>
<path d="M29.0483 51.1059V54.2345C29.0483 54.6543 29.0083 54.9841 28.9284 55.234C28.8484 55.4839 28.6985 55.7038 28.4786 55.9037C28.2586 56.1036 27.9788 56.2935 27.6389 56.4834C26.6493 57.0132 25.6997 57.403 24.79 57.6529C23.8804 57.9028 22.8808 58.0227 21.8013 58.0227C20.5418 58.0227 19.4022 57.8328 18.3726 57.443C17.343 57.0532 16.4634 56.4934 15.7337 55.7637C15.004 55.0341 14.4442 54.1345 14.0544 53.095C13.6645 52.0555 13.4746 50.8761 13.4746 49.5867C13.4746 48.2973 13.6645 47.1578 14.0444 46.0983C14.4242 45.0388 14.984 44.1492 15.7137 43.4096C16.4434 42.6699 17.343 42.1102 18.4026 41.7204C19.4622 41.3306 20.6517 41.1406 21.9912 41.1406C23.0907 41.1406 24.0603 41.2906 24.91 41.5804C25.7597 41.8703 26.4394 42.2401 26.9692 42.6899C27.4989 43.1397 27.8888 43.6095 28.1587 44.1092C28.4286 44.609 28.5585 45.0488 28.5585 45.4386C28.5585 45.8584 28.4086 46.2083 28.0987 46.4981C27.7888 46.788 27.419 46.9379 26.9891 46.9379C26.7492 46.9379 26.5194 46.8779 26.2994 46.768C26.0795 46.658 25.8996 46.4981 25.7497 46.2982C25.3398 45.6585 24.9999 45.1787 24.7101 44.8489C24.4202 44.5191 24.0503 44.2492 23.5705 44.0293C23.0907 43.8094 22.481 43.6994 21.7413 43.6994C21.0016 43.6994 20.2919 43.8294 19.6921 44.0993C19.0923 44.3691 18.5725 44.7489 18.1527 45.2487C17.7329 45.7485 17.403 46.3682 17.1731 47.0878C16.9432 47.8075 16.8333 48.6171 16.8333 49.5067C16.8333 51.4258 17.2731 52.8951 18.1527 53.9246C19.0324 54.9541 20.2619 55.4739 21.8313 55.4739C22.5909 55.4739 23.3106 55.3739 23.9904 55.174C24.6701 54.9741 25.3398 54.6843 26.0295 54.3144V51.6657H23.4706C22.8508 51.6657 22.391 51.5757 22.0711 51.3858C21.7513 51.1959 21.6013 50.8861 21.6013 50.4363C21.6013 50.0764 21.7313 49.7766 22.0012 49.5367C22.2711 49.2968 22.6209 49.1769 23.0807 49.1769H26.8292C27.289 49.1769 27.6789 49.2168 27.9987 49.2968C28.3186 49.3768 28.5785 49.5567 28.7684 49.8465C28.9583 50.1364 29.0683 50.5562 29.0683 51.1159L29.0483 51.1059Z" fill="#959595"/>
<path d="M32.3369 56.0037V43.1397C32.3369 42.47 32.4869 41.9702 32.7968 41.6404C33.1066 41.3105 33.4965 41.1406 33.9763 41.1406C34.4561 41.1406 34.8759 41.3105 35.1858 41.6404C35.4956 41.9702 35.6456 42.47 35.6456 43.1497V56.0136C35.6456 56.6933 35.4956 57.1931 35.1858 57.5329C34.8759 57.8728 34.4761 58.0327 33.9763 58.0327C33.4765 58.0327 33.1066 57.8628 32.7968 57.5229C32.4869 57.1831 32.3369 56.6833 32.3369 56.0136V56.0037Z" fill="#959595"/>
<path d="M43.7822 50.766H42.6226V56.0136C42.6226 56.7032 42.4727 57.213 42.1628 57.5428C41.8529 57.8727 41.4631 58.0326 40.9733 58.0326C40.4435 58.0326 40.0337 57.8627 39.7438 57.5229C39.4539 57.183 39.314 56.6832 39.314 56.0236V43.4595C39.314 42.7498 39.4739 42.2301 39.7938 41.9102C40.1137 41.5904 40.6334 41.4304 41.3431 41.4304H46.721C47.4607 41.4304 48.1004 41.4604 48.6302 41.5204C49.16 41.5803 49.6298 41.7103 50.0596 41.9002C50.5694 42.1201 51.0292 42.42 51.4191 42.8198C51.8089 43.2196 52.1088 43.6894 52.3187 44.2191C52.5186 44.7489 52.6286 45.3086 52.6286 45.9083C52.6286 47.1277 52.2887 48.0973 51.599 48.8269C50.9093 49.5566 49.8697 50.0664 48.4703 50.3762C49.06 50.6861 49.6198 51.1459 50.1496 51.7556C50.6794 52.3653 51.1592 53.015 51.579 53.6947C51.9988 54.3843 52.3287 55.004 52.5586 55.5538C52.7885 56.1035 52.9085 56.4834 52.9085 56.6933C52.9085 56.9032 52.8385 57.123 52.6985 57.3329C52.5586 57.5428 52.3687 57.7128 52.1388 57.8327C51.8989 57.9526 51.629 58.0126 51.3191 58.0126C50.9493 58.0126 50.6394 57.9227 50.3795 57.7528C50.1296 57.5828 49.9097 57.3529 49.7297 57.0931C49.5498 56.8332 49.2999 56.4334 48.99 55.9136L47.6606 53.7046C47.1808 52.895 46.761 52.2753 46.3811 51.8555C46.0013 51.4357 45.6214 51.1458 45.2416 50.9859C44.8617 50.826 44.3719 50.756 43.7822 50.756V50.766ZM45.6714 43.9093H42.6226V48.3971H45.5814C46.3711 48.3971 47.0408 48.3272 47.5906 48.1872C48.1404 48.0473 48.5502 47.8174 48.8301 47.4876C49.11 47.1577 49.2599 46.698 49.2599 46.1282C49.2599 45.6784 49.14 45.2786 48.9101 44.9288C48.6802 44.5789 48.3603 44.3291 47.9505 44.1591C47.5606 43.9992 46.8009 43.9093 45.6714 43.9093Z" fill="#959595"/>
<path d="M66.1934 55.8937L65.4137 53.8446H58.7764L57.9968 55.9336C57.6969 56.7533 57.437 57.303 57.2171 57.5829C56.9972 57.8727 56.6473 58.0126 56.1575 58.0126C55.7377 58.0126 55.3778 57.8627 55.0579 57.5529C54.7381 57.243 54.5781 56.9032 54.5781 56.5134C54.5781 56.2935 54.6181 56.0636 54.6881 55.8237C54.7581 55.5838 54.888 55.254 55.0579 54.8342L59.2362 44.2292C59.3562 43.9293 59.4961 43.5595 59.6661 43.1297C59.836 42.6999 60.0159 42.35 60.1959 42.0702C60.3758 41.7903 60.6357 41.5604 60.9455 41.3805C61.2554 41.2006 61.6353 41.1206 62.0851 41.1206C62.5349 41.1206 62.9248 41.2106 63.2346 41.3805C63.5445 41.5504 63.7944 41.7803 63.9843 42.0502C64.1743 42.32 64.3342 42.6199 64.4641 42.9398C64.5941 43.2596 64.764 43.6794 64.9639 44.1992L69.2322 54.7342C69.5621 55.5338 69.732 56.1235 69.732 56.4834C69.732 56.8432 69.5721 57.213 69.2622 57.5229C68.9423 57.8427 68.5625 57.9927 68.1227 57.9927C67.8628 57.9927 67.6429 57.9427 67.4529 57.8527C67.263 57.7628 67.1131 57.6329 66.9831 57.4729C66.8532 57.313 66.7232 57.0631 66.5733 56.7333C66.4333 56.4034 66.3034 56.1135 66.2034 55.8637L66.1934 55.8937ZM59.6461 51.3658H64.5241L62.0651 44.629L59.6461 51.3658Z" fill="#959595"/>
<path d="M76.5991 50.766H75.4395V56.0136C75.4395 56.7032 75.2896 57.213 74.9797 57.5428C74.6698 57.8727 74.28 58.0326 73.7902 58.0326C73.2604 58.0326 72.8506 57.8627 72.5607 57.5229C72.2708 57.183 72.1309 56.6832 72.1309 56.0236V43.4595C72.1309 42.7498 72.2908 42.2301 72.6107 41.9102C72.9305 41.5904 73.4503 41.4304 74.16 41.4304H79.5379C80.2776 41.4304 80.9173 41.4604 81.4471 41.5204C81.9769 41.5803 82.4467 41.7103 82.8765 41.9002C83.3863 42.1201 83.8461 42.42 84.236 42.8198C84.6258 43.2196 84.9257 43.6894 85.1356 44.2191C85.3455 44.7489 85.4455 45.3086 85.4455 45.9083C85.4455 47.1277 85.1056 48.0973 84.4159 48.8269C83.7262 49.5566 82.6866 50.0664 81.2872 50.3762C81.8769 50.6861 82.4367 51.1459 82.9665 51.7556C83.4963 52.3653 83.9761 53.015 84.3959 53.6947C84.8158 54.3743 85.1456 55.004 85.3755 55.5538C85.6054 56.1035 85.7254 56.4834 85.7254 56.6933C85.7254 56.9032 85.6554 57.123 85.5155 57.3329C85.3755 57.5428 85.1856 57.7128 84.9557 57.8327C84.7258 57.9526 84.4459 58.0126 84.136 58.0126C83.7662 58.0126 83.4563 57.9227 83.1964 57.7528C82.9465 57.5828 82.7266 57.3529 82.5467 57.0931C82.3667 56.8332 82.1168 56.4334 81.807 55.9136L80.4775 53.7046C79.9977 52.895 79.5779 52.2753 79.198 51.8555C78.8182 51.4357 78.4383 51.1458 78.0585 50.9859C77.6786 50.826 77.1888 50.756 76.5991 50.756V50.766ZM78.4883 43.9093H75.4395V48.3971H78.3983C79.188 48.3971 79.8577 48.3272 80.4075 48.1872C80.9573 48.0473 81.3671 47.8174 81.647 47.4876C81.9269 47.1577 82.0769 46.698 82.0769 46.1282C82.0769 45.6784 81.9669 45.2786 81.727 44.9288C81.4871 44.5789 81.1772 44.3291 80.7674 44.1591C80.3775 43.9992 79.6179 43.9093 78.4883 43.9093Z" fill="#959595"/>
</svg>
