<svg width="207" height="45" viewBox="0 0 207 45" fill="none" xmlns="http://www.w3.org/2000/svg">
<g clip-path="url(#clip0_158_2353)">
<path d="M189.9 0.579956H16.5301C7.72114 0.579956 0.580078 7.72101 0.580078 16.53V27.77C0.580078 36.5789 7.72114 43.72 16.5301 43.72H189.9C198.709 43.72 205.85 36.5789 205.85 27.77V16.53C205.85 7.72101 198.709 0.579956 189.9 0.579956Z" fill="#FCEA10" stroke="#F39200" stroke-width="1.15" stroke-miterlimit="10"/>
<path d="M52.8599 25.47C52.8599 26.48 52.5999 27.38 52.0799 28.18C51.5599 28.98 50.7999 29.61 49.8099 30.06C48.8199 30.51 47.6299 30.74 46.2599 30.74C44.6199 30.74 43.2699 30.43 42.1999 29.81C41.4399 29.36 40.8299 28.77 40.3599 28.02C39.8899 27.28 39.6499 26.55 39.6499 25.85C39.6499 25.44 39.7899 25.09 40.0799 24.8C40.3699 24.51 40.7199 24.36 41.1599 24.36C41.5099 24.36 41.8199 24.47 42.0599 24.7C42.3099 24.93 42.5199 25.26 42.6899 25.71C42.8999 26.24 43.1299 26.68 43.3799 27.04C43.6299 27.4 43.9699 27.69 44.4199 27.92C44.8699 28.15 45.4499 28.27 46.1799 28.27C47.1799 28.27 47.9899 28.04 48.6099 27.57C49.2299 27.1 49.5499 26.52 49.5499 25.83C49.5499 25.28 49.3799 24.83 49.0499 24.49C48.7099 24.15 48.2799 23.88 47.7499 23.7C47.2199 23.52 46.4999 23.33 45.6099 23.12C44.4199 22.84 43.4199 22.51 42.6099 22.14C41.7999 21.77 41.1699 21.26 40.6899 20.61C40.2199 19.96 39.9799 19.16 39.9799 18.2C39.9799 17.24 40.2299 16.47 40.7299 15.76C41.2299 15.05 41.9499 14.5 42.8999 14.12C43.8399 13.74 44.9599 13.55 46.2299 13.55C47.2499 13.55 48.1299 13.68 48.8799 13.93C49.6199 14.18 50.2399 14.52 50.7299 14.94C51.2199 15.36 51.5799 15.8 51.8099 16.26C52.0399 16.72 52.1499 17.17 52.1499 17.61C52.1499 18.01 52.0099 18.37 51.7199 18.69C51.4299 19.01 51.0799 19.17 50.6599 19.17C50.2699 19.17 49.9799 19.07 49.7799 18.88C49.5799 18.69 49.3599 18.37 49.1299 17.93C48.8299 17.3 48.4599 16.81 48.0399 16.46C47.6199 16.11 46.9399 15.93 45.9999 15.93C45.1299 15.93 44.4299 16.12 43.8999 16.5C43.3699 16.88 43.0999 17.34 43.0999 17.88C43.0999 18.21 43.1899 18.5 43.3699 18.74C43.5499 18.98 43.7999 19.19 44.1199 19.36C44.4399 19.53 44.7599 19.67 45.0799 19.77C45.3999 19.87 45.9399 20.01 46.6899 20.2C47.6299 20.42 48.4799 20.66 49.2399 20.93C49.9999 21.2 50.6499 21.52 51.1799 21.89C51.7099 22.26 52.1299 22.75 52.4299 23.32C52.7299 23.9 52.8799 24.61 52.8799 25.45L52.8599 25.47Z" fill="black"/>
<path d="M55.8499 28.69V15.59C55.8499 14.91 55.9999 14.4 56.3199 14.06C56.6299 13.72 57.0299 13.55 57.5199 13.55C58.0099 13.55 58.4399 13.72 58.7499 14.05C59.0599 14.39 59.2199 14.9 59.2199 15.59V28.69C59.2199 29.38 59.0599 29.89 58.7499 30.23C58.4399 30.57 58.0299 30.74 57.5199 30.74C57.0099 30.74 56.6399 30.57 56.3199 30.22C56.0099 29.88 55.8499 29.36 55.8499 28.68V28.69Z" fill="black"/>
<path d="M78.1698 23.7001V26.8901C78.1698 27.3101 78.1298 27.6501 78.0498 27.9101C77.9698 28.1601 77.8098 28.3901 77.5898 28.6001C77.3698 28.8001 77.0798 29.0001 76.7298 29.1901C75.7198 29.7301 74.7598 30.1301 73.8298 30.3801C72.8998 30.6301 71.8898 30.7501 70.7898 30.7501C69.5098 30.7501 68.3498 30.5501 67.2998 30.1601C66.2498 29.7701 65.3498 29.2001 64.6098 28.4501C63.8698 27.7001 63.2998 26.7901 62.8998 25.7301C62.4998 24.6701 62.2998 23.4701 62.2998 22.1601C62.2998 20.8501 62.4898 19.6801 62.8798 18.6101C63.2698 17.5401 63.8298 16.6301 64.5798 15.8801C65.3298 15.1301 66.2398 14.5601 67.3098 14.1601C68.3798 13.7601 69.5998 13.5601 70.9598 13.5601C72.0798 13.5601 73.0698 13.7101 73.9298 14.0101C74.7898 14.3101 75.4898 14.6801 76.0298 15.1401C76.5698 15.5901 76.9698 16.0701 77.2398 16.5801C77.5098 17.0901 77.6498 17.5401 77.6498 17.9301C77.6498 18.3501 77.4898 18.7101 77.1798 19.0101C76.8698 19.3101 76.4898 19.4601 76.0498 19.4601C75.8098 19.4601 75.5798 19.4001 75.3498 19.2901C75.1298 19.1801 74.9398 19.0201 74.7898 18.8101C74.3698 18.1601 74.0198 17.6701 73.7398 17.3401C73.4498 17.0101 73.0698 16.7301 72.5798 16.5001C72.0898 16.2701 71.4698 16.1601 70.7098 16.1601C69.9498 16.1601 69.2398 16.2901 68.6198 16.5601C67.9998 16.8301 67.4798 17.2201 67.0498 17.7301C66.6098 18.2401 66.2798 18.8701 66.0498 19.6101C65.8198 20.3501 65.6998 21.1701 65.6998 22.0701C65.6998 24.0201 66.1498 25.5201 67.0398 26.5701C67.9298 27.6201 69.1898 28.1501 70.7898 28.1501C71.5698 28.1501 72.2998 28.0501 72.9798 27.8401C73.6598 27.6401 74.3598 27.3501 75.0598 26.9701V24.2701H72.4498C71.8198 24.2701 71.3498 24.1801 71.0298 23.9901C70.7098 23.8001 70.5498 23.4801 70.5498 23.0301C70.5498 22.6601 70.6798 22.3501 70.9498 22.1101C71.2198 21.8701 71.5798 21.7501 72.0398 21.7501H75.8598C76.3298 21.7501 76.7298 21.7901 77.0498 21.8701C77.3698 21.9501 77.6398 22.1401 77.8398 22.4301C78.0398 22.7201 78.1398 23.1501 78.1398 23.7201L78.1698 23.7001Z" fill="black"/>
<path d="M81.3999 23.59V15.59C81.3999 14.91 81.5499 14.4 81.8599 14.06C82.1699 13.72 82.5699 13.55 83.0699 13.55C83.5699 13.55 84.0099 13.72 84.3099 14.06C84.6099 14.4 84.7699 14.91 84.7699 15.59V23.77C84.7699 24.7 84.8699 25.48 85.0799 26.1C85.2899 26.72 85.6599 27.21 86.1899 27.55C86.7199 27.89 87.4599 28.07 88.4099 28.07C89.7299 28.07 90.6599 27.72 91.1999 27.02C91.7399 26.32 92.0199 25.26 92.0199 23.84V15.59C92.0199 14.9 92.1699 14.39 92.4699 14.05C92.7699 13.71 93.1799 13.55 93.6799 13.55C94.1799 13.55 94.5999 13.72 94.9099 14.05C95.2199 14.39 95.3799 14.9 95.3799 15.59V23.59C95.3799 24.89 95.2499 25.98 94.9999 26.85C94.7499 27.72 94.2699 28.48 93.5699 29.14C92.9599 29.7 92.2599 30.1101 91.4599 30.3601C90.6599 30.6201 89.7199 30.75 88.6499 30.75C87.3699 30.75 86.2699 30.61 85.3499 30.34C84.4299 30.06 83.6699 29.64 83.0899 29.06C82.5099 28.48 82.0799 27.74 81.8099 26.84C81.5399 25.94 81.3999 24.86 81.3999 23.6V23.59Z" fill="black"/>
<path d="M99.1599 28.69V15.59C99.1599 14.91 99.3099 14.4 99.6299 14.06C99.9399 13.72 100.34 13.55 100.83 13.55C101.32 13.55 101.75 13.72 102.06 14.05C102.37 14.39 102.53 14.9 102.53 15.59V28.69C102.53 29.38 102.37 29.89 102.06 30.23C101.75 30.57 101.34 30.74 100.83 30.74C100.32 30.74 99.9499 30.57 99.6299 30.22C99.3199 29.88 99.1599 29.36 99.1599 28.68V28.69Z" fill="black"/>
<path d="M117.25 16.4301H109.66V20.5101H116.65C117.16 20.5101 117.55 20.6301 117.8 20.8601C118.05 21.0901 118.18 21.3901 118.18 21.7701C118.18 22.1501 118.06 22.4601 117.81 22.6901C117.56 22.9201 117.17 23.0501 116.65 23.0501H109.66V27.7801H117.51C118.04 27.7801 118.44 27.9001 118.71 28.1501C118.98 28.4001 119.11 28.7201 119.11 29.1301C119.11 29.5401 118.98 29.8401 118.71 30.0901C118.44 30.3401 118.04 30.4601 117.51 30.4601H108.36C107.63 30.4601 107.1 30.3001 106.78 29.9701C106.46 29.6501 106.3 29.1201 106.3 28.3901V15.8901C106.3 15.4101 106.37 15.0101 106.52 14.7001C106.66 14.3901 106.89 14.1701 107.19 14.0301C107.49 13.8901 107.89 13.8201 108.36 13.8201H117.25C117.79 13.8201 118.19 13.9401 118.45 14.1801C118.71 14.4201 118.84 14.7301 118.84 15.1201C118.84 15.5101 118.71 15.8301 118.45 16.0701C118.19 16.3101 117.79 16.4301 117.25 16.4301Z" fill="black"/>
<path d="M126.18 15.57L132.66 25.37V15.48C132.66 14.84 132.8 14.36 133.07 14.03C133.35 13.71 133.72 13.55 134.19 13.55C134.66 13.55 135.06 13.71 135.34 14.03C135.62 14.35 135.76 14.83 135.76 15.48V28.56C135.76 30.02 135.15 30.75 133.95 30.75C133.65 30.75 133.37 30.71 133.13 30.62C132.89 30.53 132.66 30.39 132.45 30.21C132.24 30.02 132.04 29.8 131.86 29.55C131.68 29.3 131.5 29.04 131.32 28.77L125 19.08V28.82C125 29.46 124.85 29.94 124.56 30.26C124.27 30.58 123.89 30.75 123.43 30.75C122.97 30.75 122.57 30.59 122.28 30.26C121.99 29.93 121.85 29.45 121.85 28.83V16C121.85 15.46 121.91 15.03 122.03 14.72C122.17 14.38 122.41 14.1 122.74 13.89C123.07 13.67 123.43 13.57 123.82 13.57C124.12 13.57 124.38 13.62 124.6 13.72C124.82 13.82 125 13.95 125.17 14.12C125.33 14.29 125.5 14.5 125.67 14.77C125.84 15.04 126.02 15.31 126.2 15.6L126.18 15.57Z" fill="black"/>
<path d="M150.24 16.6101H146.57V28.6901C146.57 29.3901 146.41 29.9001 146.1 30.2401C145.79 30.5801 145.39 30.7401 144.9 30.7401C144.41 30.7401 143.99 30.5701 143.68 30.2301C143.37 29.8901 143.21 29.3801 143.21 28.6901V16.6101H139.54C138.96 16.6101 138.54 16.4801 138.26 16.2301C137.98 15.9801 137.84 15.6401 137.84 15.2301C137.84 14.8201 137.99 14.4601 138.28 14.2101C138.57 13.9601 138.99 13.8401 139.54 13.8401H150.25C150.83 13.8401 151.27 13.9701 151.55 14.2301C151.83 14.4901 151.98 14.8201 151.98 15.2401C151.98 15.6601 151.84 15.9901 151.55 16.2401C151.26 16.4901 150.83 16.6201 150.26 16.6201L150.24 16.6101Z" fill="black"/>
<path d="M164.91 16.4301H157.32V20.5101H164.31C164.82 20.5101 165.21 20.6301 165.46 20.8601C165.71 21.0901 165.84 21.3901 165.84 21.7701C165.84 22.1501 165.72 22.4601 165.47 22.6901C165.22 22.9201 164.83 23.0501 164.31 23.0501H157.32V27.7801H165.17C165.7 27.7801 166.1 27.9001 166.37 28.1501C166.64 28.4001 166.77 28.7201 166.77 29.1301C166.77 29.5401 166.64 29.8401 166.37 30.0901C166.1 30.3401 165.7 30.4601 165.17 30.4601H156.02C155.29 30.4601 154.76 30.3001 154.44 29.9701C154.12 29.6501 153.96 29.1201 153.96 28.3901V15.8901C153.96 15.4101 154.03 15.0101 154.18 14.7001C154.32 14.3901 154.55 14.1701 154.85 14.0301C155.15 13.8901 155.55 13.8201 156.02 13.8201H164.91C165.45 13.8201 165.85 13.9401 166.11 14.1801C166.37 14.4201 166.5 14.7301 166.5 15.1201C166.5 15.5101 166.37 15.8301 166.11 16.0701C165.85 16.3101 165.45 16.4301 164.91 16.4301Z" fill="black"/>
</g>
<defs>
<clipPath id="clip0_158_2353">
<rect width="206.42" height="44.29" fill="white"/>
</clipPath>
</defs>
</svg>
