<svg width="157" height="45" viewBox="0 0 157 45" fill="none" xmlns="http://www.w3.org/2000/svg">
<path d="M139.62 0.5H16.45C7.64106 0.5 0.5 7.64106 0.5 16.45V27.69C0.5 36.4989 7.64106 43.64 16.45 43.64H139.62C148.429 43.64 155.57 36.4989 155.57 27.69V16.45C155.57 7.64106 148.429 0.5 139.62 0.5Z" fill="#FCEA10" stroke="#F39200" stroke-miterlimit="10"/>
<path d="M39.45 29.08V15.05C39.45 14.32 39.62 13.77 39.95 13.41C40.28 13.05 40.71 12.86 41.24 12.86C41.77 12.86 42.22 13.04 42.56 13.4C42.9 13.76 43.06 14.31 43.06 15.05V29.08C43.06 29.82 42.89 30.37 42.56 30.73C42.22 31.09 41.78 31.28 41.24 31.28C40.7 31.28 40.2899 31.1 39.9599 30.73C39.6199 30.36 39.4599 29.81 39.4599 29.08H39.45Z" fill="black"/>
<path d="M51.7899 15.02L58.7299 25.52V14.92C58.7299 14.23 58.8799 13.72 59.1699 13.37C59.4699 13.03 59.8599 12.85 60.3699 12.85C60.8799 12.85 61.2999 13.02 61.5999 13.37C61.8999 13.71 62.0499 14.23 62.0499 14.92V28.93C62.0499 30.49 61.3999 31.28 60.1099 31.28C59.7899 31.28 59.4899 31.23 59.2399 31.14C58.9799 31.05 58.7399 30.9 58.5099 30.7C58.2799 30.5 58.0699 30.26 57.8799 29.99C57.6899 29.72 57.4899 29.44 57.2999 29.16L50.5299 18.78V29.22C50.5299 29.9 50.3699 30.42 50.0599 30.76C49.7499 31.1 49.3399 31.28 48.8399 31.28C48.3399 31.28 47.9199 31.1 47.6099 30.75C47.2999 30.4 47.1499 29.89 47.1499 29.21V15.47C47.1499 14.89 47.2099 14.43 47.3399 14.1C47.4899 13.74 47.7499 13.44 48.1099 13.21C48.4699 12.98 48.8499 12.86 49.2599 12.86C49.5799 12.86 49.8599 12.91 50.0899 13.02C50.3199 13.13 50.5199 13.27 50.6999 13.45C50.8699 13.63 51.0499 13.86 51.2299 14.14C51.4099 14.42 51.5999 14.72 51.7999 15.03L51.7899 15.02Z" fill="black"/>
<path d="M66.1399 29.08V15.05C66.1399 14.32 66.3099 13.77 66.6399 13.41C66.9699 13.05 67.3999 12.86 67.9299 12.86C68.4599 12.86 68.9099 13.04 69.2499 13.4C69.5899 13.76 69.7499 14.31 69.7499 15.05V29.08C69.7499 29.82 69.5799 30.37 69.2499 30.73C68.9099 31.09 68.4699 31.28 67.9299 31.28C67.3899 31.28 66.9799 31.1 66.6499 30.73C66.3099 30.36 66.1499 29.81 66.1499 29.08H66.1399Z" fill="black"/>
<path d="M88.9598 25.35C88.9598 25.92 88.8198 26.53 88.5398 27.19C88.2598 27.85 87.8198 28.5 87.2198 29.13C86.6198 29.76 85.8498 30.28 84.9198 30.68C83.9898 31.08 82.8998 31.28 81.6598 31.28C80.7198 31.28 79.8698 31.19 79.0998 31.01C78.3298 30.83 77.6298 30.55 76.9998 30.18C76.3698 29.8 75.7898 29.31 75.2698 28.69C74.7998 28.13 74.3998 27.51 74.0698 26.81C73.7398 26.12 73.4898 25.38 73.3198 24.59C73.1498 23.8 73.0698 22.97 73.0698 22.09C73.0698 20.66 73.2798 19.37 73.6998 18.24C74.1198 17.11 74.7098 16.14 75.4898 15.33C76.2698 14.52 77.1798 13.91 78.2198 13.49C79.2598 13.07 80.3798 12.86 81.5598 12.86C82.9998 12.86 84.2898 13.15 85.4098 13.72C86.5298 14.29 87.3998 15.01 87.9998 15.85C88.5998 16.69 88.8998 17.5 88.8998 18.25C88.8998 18.66 88.7498 19.03 88.4598 19.34C88.1698 19.65 87.8198 19.81 87.3998 19.81C86.9398 19.81 86.5898 19.7 86.3598 19.48C86.1298 19.26 85.8698 18.88 85.5898 18.35C85.1198 17.47 84.5698 16.81 83.9298 16.37C83.2898 15.93 82.5098 15.71 81.5798 15.71C80.0998 15.71 78.9198 16.27 78.0398 17.4C77.1598 18.53 76.7198 20.13 76.7198 22.2C76.7198 23.59 76.9098 24.74 77.2998 25.66C77.6898 26.58 78.2398 27.27 78.9498 27.72C79.6598 28.17 80.4998 28.4 81.4498 28.4C82.4898 28.4 83.3598 28.14 84.0798 27.63C84.7998 27.12 85.3398 26.36 85.6998 25.36C85.8498 24.89 86.0398 24.51 86.2698 24.21C86.4998 23.91 86.8598 23.77 87.3598 23.77C87.7898 23.77 88.1598 23.92 88.4698 24.22C88.7798 24.52 88.9298 24.89 88.9298 25.34L88.9598 25.35Z" fill="black"/>
<path d="M92.3499 29.08V15.05C92.3499 14.32 92.5199 13.77 92.8499 13.41C93.1799 13.05 93.6099 12.86 94.1399 12.86C94.6699 12.86 95.1199 13.04 95.4599 13.4C95.7999 13.76 95.9599 14.31 95.9599 15.05V29.08C95.9599 29.82 95.7899 30.37 95.4599 30.73C95.1299 31.09 94.6799 31.28 94.1399 31.28C93.5999 31.28 93.1899 31.1 92.8599 30.73C92.5299 30.36 92.3599 29.81 92.3599 29.08H92.3499Z" fill="black"/>
<path d="M107.83 12.86C109.68 12.86 111.26 13.23 112.59 13.98C113.92 14.73 114.92 15.79 115.6 17.18C116.28 18.57 116.62 20.18 116.62 22.05C116.62 23.43 116.43 24.68 116.06 25.8C115.69 26.92 115.13 27.9 114.38 28.73C113.63 29.56 112.72 30.19 111.63 30.63C110.54 31.07 109.3 31.29 107.9 31.29C106.5 31.29 105.26 31.07 104.16 30.62C103.06 30.17 102.14 29.54 101.4 28.72C100.66 27.9 100.11 26.92 99.7299 25.77C99.3499 24.62 99.1599 23.38 99.1599 22.04C99.1599 20.7 99.3599 19.42 99.7499 18.27C100.14 17.12 100.71 16.16 101.46 15.35C102.21 14.54 103.11 13.93 104.18 13.51C105.25 13.09 106.46 12.87 107.83 12.87V12.86ZM112.96 22.02C112.96 20.72 112.75 19.59 112.33 18.63C111.91 17.67 111.31 16.95 110.53 16.46C109.75 15.97 108.85 15.72 107.84 15.72C107.12 15.72 106.45 15.86 105.84 16.13C105.23 16.4 104.7 16.8 104.26 17.31C103.82 17.82 103.47 18.49 103.22 19.3C102.97 20.11 102.84 21.01 102.84 22.02C102.84 23.03 102.97 23.95 103.22 24.77C103.47 25.59 103.84 26.27 104.3 26.81C104.76 27.35 105.3 27.75 105.9 28.02C106.5 28.29 107.17 28.42 107.89 28.42C108.81 28.42 109.66 28.19 110.44 27.73C111.22 27.27 111.83 26.56 112.29 25.59C112.75 24.62 112.98 23.44 112.98 22.03L112.96 22.02Z" fill="black"/>
</svg>
