<svg width="110" height="126" viewBox="0 0 110 126" fill="none" xmlns="http://www.w3.org/2000/svg">
<path d="M72.7306 19.5408L54.7379 0L36.6252 19.5808C15.2938 27.0573 0 47.3577 0 71.2365C0 101.472 24.5101 125.981 54.7479 125.981C84.9857 125.981 109.496 101.472 109.496 71.2365C109.496 47.3077 94.132 26.9773 72.7406 19.5408H72.7306Z" fill="#E5E5E5"/>
<path d="M54.738 121.223C81.5958 121.223 103.368 99.4519 103.368 72.5959C103.368 45.7398 81.5958 23.9688 54.738 23.9688C27.8802 23.9688 6.10767 45.7398 6.10767 72.5959C6.10767 99.4519 27.8802 121.223 54.738 121.223Z" fill="#FBFBFB"/>
<path d="M34.1963 74.1252V77.2538C34.1963 77.6736 34.1563 78.0034 34.0763 78.2533C33.9963 78.5032 33.8464 78.7231 33.6265 78.923C33.4066 79.1229 33.1267 79.3128 32.7869 79.5027C31.7973 80.0324 30.8476 80.4223 29.938 80.6722C29.0284 80.922 28.0288 81.042 26.9492 81.042C25.6897 81.042 24.5502 80.8521 23.5206 80.4623C22.491 80.0725 21.6114 79.5127 20.8817 78.783C20.152 78.0534 19.5922 77.1538 19.2023 76.1143C18.8125 75.0748 18.6226 73.8953 18.6226 72.6059C18.6226 71.3166 18.8125 70.1771 19.1923 69.1176C19.5722 68.0581 20.1319 67.1685 20.8616 66.4289C21.5914 65.6892 22.491 65.1295 23.5506 64.7397C24.6101 64.3498 25.7996 64.1599 27.1391 64.1599C28.2387 64.1599 29.2083 64.3098 30.0579 64.5997C30.9076 64.8896 31.5873 65.2594 32.1171 65.7092C32.6469 66.159 33.0367 66.6288 33.3066 67.1285C33.5765 67.6283 33.7065 68.0681 33.7065 68.4579C33.7065 68.8777 33.5565 69.2275 33.2467 69.5174C32.9368 69.8073 32.5669 69.9572 32.1371 69.9572C31.8972 69.9572 31.6673 69.8972 31.4474 69.7873C31.2275 69.6773 31.0475 69.5174 30.8976 69.3175C30.4878 68.6778 30.1479 68.198 29.858 67.8682C29.5681 67.5383 29.1983 67.2685 28.7185 67.0486C28.2387 66.8287 27.6289 66.7187 26.8892 66.7187C26.1495 66.7187 25.4398 66.8487 24.84 67.1185C24.2403 67.3884 23.7205 67.7682 23.3007 68.268C22.8808 68.7678 22.551 69.3875 22.3211 70.1071C22.0912 70.8268 21.9812 71.6364 21.9812 72.526C21.9812 74.4451 22.421 75.9144 23.3007 76.9439C24.1803 77.9734 25.4098 78.4932 26.9792 78.4932C27.7389 78.4932 28.4586 78.3932 29.1383 78.1933C29.818 77.9934 30.4878 77.7036 31.1775 77.3337V74.685H28.6185C27.9988 74.685 27.539 74.595 27.2191 74.4051C26.8992 74.2152 26.7493 73.9053 26.7493 73.4556C26.7493 73.0957 26.8792 72.7959 27.1491 72.556C27.419 72.3161 27.7689 72.1961 28.2287 72.1961H31.9772C32.437 72.1961 32.8268 72.2361 33.1467 72.3161C33.4666 72.396 33.7264 72.576 33.9164 72.8658C34.1063 73.1557 34.2163 73.5755 34.2163 74.1352L34.1963 74.1252Z" fill="#959595"/>
<path d="M37.4849 79.0229V66.159C37.4849 65.4893 37.6348 64.9895 37.9447 64.6597C38.2546 64.3298 38.6444 64.1599 39.1242 64.1599C39.604 64.1599 40.0238 64.3298 40.3337 64.6597C40.6436 64.9895 40.7935 65.4893 40.7935 66.169V79.0329C40.7935 79.7126 40.6436 80.2124 40.3337 80.5522C40.0238 80.8921 39.624 81.052 39.1242 81.052C38.6244 81.052 38.2546 80.8821 37.9447 80.5422C37.6348 80.2024 37.4849 79.7026 37.4849 79.0329V79.0229Z" fill="#959595"/>
<path d="M48.9304 73.7853H47.7708V79.0328C47.7708 79.7225 47.6209 80.2323 47.311 80.5621C47.0011 80.892 46.6113 81.0519 46.1215 81.0519C45.5917 81.0519 45.1819 80.882 44.892 80.5421C44.6021 80.2023 44.4622 79.7025 44.4622 79.0428V66.4788C44.4622 65.7691 44.6221 65.2493 44.942 64.9295C45.2618 64.6096 45.7816 64.4497 46.4913 64.4497H51.8692C52.6089 64.4497 53.2486 64.4797 53.7784 64.5397C54.3082 64.5996 54.778 64.7296 55.2078 64.9195C55.7176 65.1394 56.1774 65.4393 56.5673 65.8391C56.9571 66.2389 57.257 66.7087 57.4669 67.2384C57.6668 67.7682 57.7768 68.3279 57.7768 68.9276C57.7768 70.147 57.4369 71.1166 56.7472 71.8462C56.0575 72.5759 55.0179 73.0857 53.6185 73.3955C54.2082 73.7054 54.768 74.1652 55.2978 74.7749C55.8276 75.3846 56.3074 76.0343 56.7272 76.714C57.147 77.4036 57.4769 78.0233 57.7068 78.5731C57.9367 79.1228 58.0567 79.5026 58.0567 79.7125C58.0567 79.9224 57.9867 80.1423 57.8467 80.3522C57.7068 80.5621 57.5169 80.732 57.287 80.852C57.0471 80.9719 56.7772 81.0319 56.4673 81.0319C56.0975 81.0319 55.7876 80.942 55.5277 80.772C55.2778 80.6021 55.0579 80.3722 54.8779 80.1123C54.698 79.8525 54.4481 79.4527 54.1382 78.9329L52.8088 76.7239C52.329 75.9143 51.9092 75.2946 51.5293 74.8748C51.1495 74.455 50.7696 74.1651 50.3898 74.0052C50.0099 73.8453 49.5201 73.7753 48.9304 73.7753V73.7853ZM50.8196 66.9286H47.7708V71.4164H50.7296C51.5193 71.4164 52.189 71.3465 52.7388 71.2065C53.2886 71.0666 53.6984 70.8367 53.9783 70.5069C54.2582 70.177 54.4081 69.7172 54.4081 69.1475C54.4081 68.6977 54.2882 68.2979 54.0583 67.9481C53.8284 67.5982 53.5085 67.3484 53.0987 67.1784C52.7088 67.0185 51.9491 66.9286 50.8196 66.9286Z" fill="#959595"/>
<path d="M71.3414 78.9129L70.5617 76.8639H63.9244L63.1447 78.9529C62.8448 79.7725 62.5849 80.3223 62.365 80.6021C62.1451 80.892 61.7953 81.0319 61.3055 81.0319C60.8856 81.0319 60.5258 80.882 60.2059 80.5722C59.886 80.2623 59.7261 79.9225 59.7261 79.5326C59.7261 79.3127 59.7661 79.0829 59.836 78.843C59.906 78.6031 60.036 78.2732 60.2059 77.8534L64.3842 67.2484C64.5041 66.9486 64.6441 66.5788 64.814 66.149C64.9839 65.7192 65.1639 65.3693 65.3438 65.0895C65.5237 64.8096 65.7836 64.5797 66.0935 64.3998C66.4034 64.2199 66.7832 64.1399 67.2331 64.1399C67.6829 64.1399 68.0727 64.2299 68.3826 64.3998C68.6925 64.5697 68.9424 64.7996 69.1323 65.0694C69.3222 65.3393 69.4821 65.6392 69.6121 65.959C69.742 66.2789 69.912 66.6987 70.1119 67.2185L74.3802 77.7535C74.71 78.5531 74.88 79.1428 74.88 79.5027C74.88 79.8625 74.72 80.2323 74.4101 80.5422C74.0903 80.862 73.7104 81.012 73.2706 81.012C73.0107 81.012 72.7908 80.962 72.6009 80.872C72.411 80.7821 72.261 80.6521 72.1311 80.4922C72.0011 80.3323 71.8712 80.0824 71.7212 79.7525C71.5813 79.4227 71.4513 79.1328 71.3514 78.883L71.3414 78.9129ZM64.794 74.3851H69.6721L67.2131 67.6483L64.794 74.3851Z" fill="#959595"/>
<path d="M81.747 73.7853H80.5875V79.0328C80.5875 79.7225 80.4375 80.2323 80.1277 80.5621C79.8178 80.892 79.4279 81.0519 78.9381 81.0519C78.4084 81.0519 77.9985 80.882 77.7087 80.5421C77.4188 80.2023 77.2788 79.7025 77.2788 79.0428V66.4788C77.2788 65.7691 77.4388 65.2493 77.7586 64.9295C78.0785 64.6096 78.5983 64.4497 79.308 64.4497H84.6858C85.4255 64.4497 86.0653 64.4797 86.5951 64.5397C87.1248 64.5996 87.5946 64.7296 88.0245 64.9195C88.5343 65.1394 88.9941 65.4393 89.3839 65.8391C89.7738 66.2389 90.0737 66.7087 90.2836 67.2384C90.4935 67.7682 90.5934 68.3279 90.5934 68.9276C90.5934 70.147 90.2536 71.1166 89.5639 71.8462C88.8741 72.5759 87.8345 73.0857 86.4351 73.3955C87.0249 73.7054 87.5846 74.1652 88.1144 74.7749C88.6442 75.3846 89.124 76.0343 89.5439 76.714C89.9637 77.3936 90.2936 78.0233 90.5235 78.5731C90.7534 79.1228 90.8733 79.5026 90.8733 79.7125C90.8733 79.9224 90.8034 80.1423 90.6634 80.3522C90.5235 80.5621 90.3336 80.732 90.1036 80.852C89.8737 80.9719 89.5938 81.0319 89.284 81.0319C88.9141 81.0319 88.6042 80.942 88.3443 80.772C88.0944 80.6021 87.8745 80.3722 87.6946 80.1123C87.5147 79.8525 87.2648 79.4527 86.9549 78.9329L85.6254 76.7239C85.1456 75.9143 84.7258 75.2946 84.346 74.8748C83.9661 74.455 83.5863 74.1651 83.2064 74.0052C82.8266 73.8453 82.3368 73.7753 81.747 73.7753V73.7853ZM83.6363 66.9286H80.5875V71.4164H83.5463C84.336 71.4164 85.0057 71.3465 85.5555 71.2065C86.1052 71.0666 86.5151 70.8367 86.795 70.5069C87.0749 70.177 87.2248 69.7172 87.2248 69.1475C87.2248 68.6977 87.1148 68.2979 86.8749 67.9481C86.635 67.5982 86.3252 67.3484 85.9153 67.1784C85.5255 67.0185 84.7658 66.9286 83.6363 66.9286Z" fill="#959595"/>
</svg>
