<svg width="157" height="45" viewBox="0 0 157 45" fill="none" xmlns="http://www.w3.org/2000/svg">
<path d="M140.53 0.589966H17.3601C8.5512 0.589966 1.41016 7.73104 1.41016 16.54V27.78C1.41016 36.5889 8.5512 43.7299 17.3601 43.7299H140.53C149.339 43.7299 156.48 36.5889 156.48 27.78V16.54C156.48 7.73104 149.339 0.589966 140.53 0.589966Z" fill="#FCEA10" stroke="#F39200" stroke-miterlimit="10"/>
<path d="M51.3404 15.95V24.2C51.3404 24.92 51.3104 25.53 51.2504 26.03C51.1904 26.53 51.0504 27.04 50.8404 27.56C50.4804 28.43 49.8904 29.1 49.0704 29.58C48.2504 30.06 47.2404 30.31 46.0604 30.31C44.9904 30.31 44.1004 30.14 43.3904 29.81C42.6804 29.47 42.1004 28.93 41.6704 28.18C41.4404 27.78 41.2504 27.32 41.1104 26.79C40.9704 26.26 40.9004 25.77 40.9004 25.3C40.9004 24.8 41.0404 24.42 41.3204 24.15C41.6004 23.88 41.9604 23.75 42.3904 23.75C42.8204 23.75 43.1304 23.87 43.3504 24.12C43.5704 24.37 43.7304 24.74 43.8404 25.26C43.9604 25.81 44.0804 26.25 44.2104 26.58C44.3404 26.91 44.5404 27.19 44.8204 27.43C45.1004 27.67 45.5104 27.78 46.0404 27.78C47.4504 27.78 48.1604 26.74 48.1604 24.68V15.97C48.1604 15.33 48.3004 14.84 48.5804 14.52C48.8604 14.2 49.2504 14.04 49.7304 14.04C50.2104 14.04 50.6204 14.2 50.9104 14.52C51.2004 14.84 51.3504 15.33 51.3504 15.97L51.3404 15.95Z" fill="black"/>
<path d="M54.8203 23.52V15.95C54.8203 15.31 54.9603 14.82 55.2603 14.5C55.5503 14.18 55.9303 14.02 56.4003 14.02C56.8703 14.02 57.2903 14.18 57.5803 14.5C57.8703 14.82 58.0103 15.31 58.0103 15.95V23.7C58.0103 24.58 58.1103 25.32 58.3103 25.91C58.5103 26.5 58.8603 26.96 59.3603 27.29C59.8603 27.62 60.5603 27.78 61.4703 27.78C62.7203 27.78 63.6003 27.45 64.1103 26.79C64.6303 26.13 64.8803 25.12 64.8803 23.78V15.97C64.8803 15.32 65.0203 14.83 65.3103 14.51C65.6003 14.19 65.9803 14.03 66.4603 14.03C66.9403 14.03 67.3303 14.19 67.6303 14.51C67.9303 14.83 68.0803 15.31 68.0803 15.97V23.54C68.0803 24.77 67.9603 25.8 67.7203 26.62C67.4803 27.44 67.0303 28.17 66.3603 28.79C65.7903 29.32 65.1203 29.71 64.3603 29.95C63.6003 30.19 62.7103 30.32 61.7003 30.32C60.4903 30.32 59.4503 30.19 58.5703 29.93C57.7003 29.67 56.9803 29.26 56.4303 28.72C55.8803 28.17 55.4703 27.47 55.2203 26.61C54.9603 25.75 54.8303 24.73 54.8303 23.54L54.8203 23.52Z" fill="black"/>
<path d="M85.9004 23.63V26.65C85.9004 27.05 85.8604 27.37 85.7804 27.61C85.7004 27.85 85.5604 28.07 85.3404 28.26C85.1304 28.45 84.8604 28.64 84.5304 28.82C83.5804 29.34 82.6604 29.71 81.7804 29.95C80.9004 30.19 79.9404 30.3 78.9004 30.3C77.6904 30.3 76.5904 30.11 75.5904 29.74C74.5904 29.37 73.7504 28.83 73.0404 28.12C72.3304 27.41 71.8004 26.55 71.4204 25.54C71.0404 24.53 70.8604 23.4 70.8604 22.16C70.8604 20.92 71.0404 19.81 71.4104 18.8C71.7804 17.79 72.3104 16.92 73.0204 16.21C73.7304 15.5 74.5904 14.96 75.6104 14.58C76.6304 14.2 77.7804 14.02 79.0704 14.02C80.1304 14.02 81.0704 14.16 81.8804 14.44C82.7004 14.72 83.3604 15.08 83.8704 15.51C84.3804 15.94 84.7604 16.39 85.0204 16.87C85.2804 17.35 85.4104 17.78 85.4104 18.15C85.4104 18.55 85.2604 18.89 84.9604 19.18C84.6604 19.46 84.3104 19.6 83.8904 19.6C83.6604 19.6 83.4404 19.55 83.2304 19.44C83.0204 19.33 82.8404 19.18 82.7004 18.99C82.3104 18.37 81.9704 17.91 81.7004 17.59C81.4304 17.27 81.0604 17.01 80.6004 16.8C80.1404 16.59 79.5504 16.48 78.8304 16.48C78.1104 16.48 77.4304 16.61 76.8504 16.86C76.2704 17.11 75.7704 17.48 75.3604 17.97C74.9504 18.45 74.6304 19.05 74.4104 19.75C74.1904 20.45 74.0804 21.23 74.0804 22.08C74.0804 23.93 74.5004 25.35 75.3504 26.34C76.2004 27.34 77.3804 27.83 78.9004 27.83C79.6404 27.83 80.3304 27.73 80.9804 27.54C81.6304 27.35 82.2904 27.07 82.9504 26.71V24.15H80.4804C79.8904 24.15 79.4404 24.06 79.1304 23.88C78.8304 23.7 78.6704 23.4 78.6704 22.97C78.6704 22.62 78.8004 22.33 79.0504 22.1C79.3004 21.87 79.6504 21.76 80.0904 21.76H83.7104C84.1504 21.76 84.5304 21.8 84.8404 21.88C85.1504 21.96 85.4004 22.13 85.5904 22.41C85.7804 22.68 85.8704 23.09 85.8704 23.63H85.9004Z" fill="black"/>
<path d="M98.1705 28.25L97.4205 26.27H91.0204L90.2704 28.29C89.9804 29.08 89.7304 29.61 89.5204 29.89C89.3104 30.17 88.9705 30.3 88.5005 30.3C88.1005 30.3 87.7405 30.15 87.4405 29.86C87.1405 29.57 86.9805 29.23 86.9805 28.86C86.9805 28.65 87.0205 28.42 87.0905 28.19C87.1605 27.96 87.2805 27.64 87.4405 27.23L91.4705 17C91.5805 16.71 91.7205 16.35 91.8805 15.94C92.0405 15.53 92.2105 15.19 92.4005 14.91C92.5805 14.64 92.8205 14.42 93.1205 14.25C93.4205 14.08 93.7805 14 94.2205 14C94.6605 14 95.0304 14.08 95.3304 14.25C95.6304 14.42 95.8704 14.63 96.0504 14.9C96.2304 15.16 96.3905 15.45 96.5105 15.75C96.6305 16.05 96.7904 16.46 96.9904 16.97L101.1 27.13C101.42 27.9 101.58 28.47 101.58 28.82C101.58 29.17 101.43 29.52 101.12 29.82C100.82 30.12 100.45 30.28 100.02 30.28C99.7704 30.28 99.5505 30.24 99.3805 30.15C99.2005 30.06 99.0505 29.94 98.9305 29.78C98.8105 29.63 98.6805 29.39 98.5405 29.07C98.4005 28.75 98.2805 28.47 98.1805 28.23L98.1705 28.25ZM91.8505 23.88H96.5605L94.1905 17.38L91.8604 23.88H91.8505Z" fill="black"/>
<path d="M108.21 23.3H107.09V28.36C107.09 29.03 106.94 29.52 106.65 29.83C106.36 30.14 105.97 30.3 105.5 30.3C104.99 30.3 104.6 30.13 104.32 29.81C104.04 29.49 103.9 29 103.9 28.36V16.24C103.9 15.55 104.05 15.05 104.36 14.75C104.67 14.45 105.17 14.29 105.85 14.29H111.04C111.76 14.29 112.37 14.32 112.88 14.38C113.39 14.44 113.85 14.56 114.26 14.75C114.75 14.96 115.19 15.25 115.57 15.64C115.95 16.03 116.24 16.48 116.44 16.99C116.64 17.5 116.73 18.04 116.73 18.62C116.73 19.79 116.4 20.73 115.74 21.43C115.08 22.13 114.07 22.63 112.73 22.92C113.3 23.22 113.84 23.67 114.35 24.25C114.86 24.83 115.33 25.46 115.73 26.13C116.13 26.79 116.45 27.39 116.68 27.92C116.9 28.45 117.02 28.82 117.02 29.02C117.02 29.22 116.95 29.43 116.82 29.64C116.69 29.85 116.51 30.01 116.28 30.12C116.05 30.24 115.79 30.3 115.49 30.3C115.13 30.3 114.83 30.22 114.59 30.05C114.35 29.88 114.14 29.67 113.96 29.41C113.78 29.15 113.55 28.77 113.25 28.27L111.97 26.14C111.51 25.36 111.1 24.76 110.74 24.36C110.38 23.95 110.01 23.67 109.64 23.52C109.27 23.37 108.8 23.29 108.23 23.29L108.21 23.3ZM110.04 16.68H107.1V21.01H109.96C110.73 21.01 111.37 20.94 111.89 20.81C112.41 20.68 112.81 20.45 113.09 20.13C113.37 19.81 113.5 19.37 113.5 18.81C113.5 18.37 113.39 17.99 113.17 17.66C112.95 17.33 112.64 17.08 112.25 16.91C111.88 16.75 111.14 16.67 110.05 16.67L110.04 16.68Z" fill="black"/>
</svg>
