<svg width="35" height="32" viewBox="0 0 35 32" fill="none" xmlns="http://www.w3.org/2000/svg">
<path d="M30.4802 1.11005C31.2602 1.85005 31.3802 2.93005 30.7702 3.82005C30.6702 3.97005 30.5402 4.11006 30.3902 4.31006C31.6102 5.53006 32.8302 6.73006 34.0202 7.95006C34.9302 8.88006 34.9202 10.1501 34.0202 10.9801C33.2002 11.7301 31.9902 11.6901 31.1302 10.8601C30.0902 9.85005 29.0802 8.81006 28.0502 7.79006L27.4802 7.22005L25.2502 9.45006L25.8302 10.0301C26.8402 11.0401 27.8502 12.0401 28.8502 13.0601C29.7402 13.9701 29.7802 15.2101 28.9502 16.0501C28.1302 16.8801 26.8802 16.8801 25.9602 15.9901C24.9302 15.0001 23.9402 13.9801 22.9302 12.9701C22.7402 12.7901 22.5602 12.6001 22.3002 12.3401L21.7402 12.9001C19.2002 15.4401 16.6802 17.9901 14.1202 20.5001C13.6802 20.9301 13.6002 21.2501 13.8302 21.8301C13.9002 22.0101 13.9702 22.1901 14.0202 22.3701C14.1702 22.8501 14.2602 23.3301 14.3102 23.8101C14.2502 24.2701 14.0402 24.7001 13.7002 25.0501C13.2202 25.5201 12.5302 25.7401 11.8702 25.6601C11.3502 25.6001 10.7802 25.3401 10.4502 24.9201C10.0802 24.4501 10.2302 23.7401 9.99017 23.1901C9.85017 22.8701 9.64017 22.5701 9.38017 22.3101C8.26017 21.2201 6.42017 21.2201 5.33017 22.3101C4.23017 23.4101 4.24016 25.3401 5.35016 26.4201C6.12016 27.1601 7.24017 27.3901 8.22017 27.1001C8.48017 27.0201 8.74017 26.9101 8.97017 26.7601C9.43017 26.4601 9.59017 26.2601 10.1802 26.3301C10.6702 26.3901 11.1402 26.6001 11.4902 26.9401C12.0102 27.4501 12.2602 28.2601 12.1202 28.9701C11.9402 29.8901 11.0302 30.3601 10.2402 30.7201C8.00017 31.7201 5.27017 31.4901 3.24017 30.0101C0.440168 27.9601 -0.419834 24.0901 1.25017 21.0201C2.91017 17.9701 6.65017 16.5901 9.88017 17.9101C10.5202 18.1701 10.8302 18.0201 11.2602 17.5901C16.6402 12.1801 22.0402 6.79005 27.4402 1.40005C28.4302 0.410054 29.6002 0.320055 30.4702 1.14006L30.4802 1.11005Z" fill="#F4B63C"/>
</svg>
