<svg width="29" height="38" viewBox="0 0 29 38" fill="none" xmlns="http://www.w3.org/2000/svg">
<path d="M3.98987 33.6999C6.10987 33.6999 8.12987 33.6799 10.1499 33.6999C11.5899 33.7199 12.4399 34.3999 12.3099 35.4299C12.1499 36.6999 11.2699 37.0099 10.1099 36.9799C7.70986 36.9199 5.30986 36.9199 2.90986 36.8799C1.15986 36.8499 0.619863 36.2999 0.619863 34.5299C0.619863 28.2099 0.579864 21.8899 0.659864 15.5699C0.659864 14.7899 1.04986 13.8399 1.58986 13.2699C5.21986 9.39986 8.92986 5.60986 12.6299 1.80986C13.8799 0.519859 14.6099 0.519858 15.8799 1.78986C19.8099 5.68986 23.7399 9.58986 27.6099 13.5499C28.0999 14.0499 28.4599 14.9099 28.4599 15.5999C28.5199 22.0099 28.4999 28.4299 28.4899 34.8399C28.4899 36.4599 27.9799 36.9699 26.3199 36.9999C24.0099 37.0299 21.7099 37.0399 19.3999 36.9999C17.7299 36.9799 17.2599 36.4899 17.2499 34.8399C17.2299 32.0299 17.2499 29.2099 17.2499 26.3999C17.2499 25.8999 17.2499 25.3999 17.2499 24.7099C15.8399 24.7099 14.5599 24.6599 13.2999 24.7499C13.0399 24.7699 12.6399 25.3199 12.6099 25.6599C12.5199 26.7599 12.5799 27.8699 12.5499 28.9799C12.5099 30.0899 12.0299 30.8899 10.7999 30.8399C9.65986 30.7899 9.22986 30.0299 9.22986 28.9599C9.22986 27.0199 9.22986 25.0799 9.22986 23.1499C9.22986 21.9599 9.87986 21.3299 11.0299 21.3199C13.5699 21.2799 16.1099 21.2899 18.6399 21.3199C19.9499 21.3199 20.5499 22.0699 20.5499 23.3399C20.5499 26.2899 20.6099 29.2499 20.5499 32.1999C20.5199 33.4299 20.9199 33.8599 22.1399 33.7399C23.0499 33.6499 23.9699 33.7199 25.0099 33.7199C25.0499 33.1599 25.1199 32.7199 25.1199 32.2799C25.1199 27.1599 25.1399 22.0399 25.0999 16.9199C25.0999 16.3399 24.8899 15.5999 24.5099 15.2099C21.2899 11.9099 18.0099 8.66986 14.7399 5.40986C14.6199 5.28986 14.4599 5.18986 14.6299 5.47986C12.1499 7.74986 9.75986 10.1299 7.15986 12.2399C4.46986 14.4099 3.58986 17.0099 3.84986 20.4099C4.13986 24.2199 3.90986 28.0599 3.91986 31.8899C3.91986 32.3899 3.95986 32.8799 3.99986 33.7099L3.98987 33.6999Z" fill="#7ABE50"/>
</svg>
