<svg width="49" height="32" viewBox="0 0 49 32" fill="none" xmlns="http://www.w3.org/2000/svg">
<path d="M24.6099 31.17C18.5199 31.17 12.4299 31.18 6.32994 31.17C3.66994 31.17 1.91994 30.02 1.21994 27.95C0.439944 25.63 1.53994 23.02 3.87994 22.13C8.86994 20.24 13.9099 18.46 18.9399 16.66C19.9999 16.28 21.0399 16.77 21.2799 17.73C21.5799 18.9 20.9199 19.56 19.8999 19.93C15.6599 21.47 11.4399 23.09 7.16994 24.53C6.53994 24.74 5.85994 24.9 5.31994 25.3C4.90994 25.6 4.50994 26.09 4.54994 26.63C4.59994 27.29 5.33994 27.61 5.89994 27.73C6.57994 27.88 38.3199 27.79 42.0899 27.78C43.0899 27.78 44.4199 28.13 44.6699 26.63C44.8999 25.21 43.5699 25.12 42.6699 24.79C37.2699 22.8 31.8699 20.81 26.4499 18.87C24.4899 18.17 23.1599 16.94 22.8999 14.87C22.6499 12.88 23.5299 11.29 25.0699 10.06C25.4699 9.75003 25.8899 9.47003 26.3099 9.17003C27.2699 8.48003 27.6799 7.55003 27.3999 6.40003C27.1199 5.24003 26.4299 4.40003 25.2099 4.16003C23.9799 3.92003 22.9199 4.26003 22.1899 5.34003C22.0099 5.60003 21.8999 5.91003 21.7599 6.20003C21.2899 7.16003 20.5699 7.65003 19.5199 7.18003C18.5099 6.73003 18.3199 5.88003 18.6399 4.86003C19.3299 2.71003 21.5999 0.930031 23.8999 0.720031C26.4799 0.490031 28.9299 1.79003 30.1199 4.04003C31.6199 6.87003 30.8899 9.97003 28.2899 11.88C27.3699 12.55 26.1099 13.08 26.2999 14.45C26.4899 15.81 27.9199 15.81 28.8999 16.17C34.2099 18.14 39.5499 20.02 44.8699 21.98C47.7999 23.06 48.9799 26.12 47.5199 28.72C46.6299 30.31 45.2299 31.1 43.4299 31.13C40.7999 31.17 38.1699 31.16 35.5399 31.16C31.8899 31.16 28.2499 31.16 24.5999 31.16L24.6099 31.17Z" fill="#CE6AAE"/>
</svg>
