<svg width="22" height="23" viewBox="0 0 22 23" fill="none" xmlns="http://www.w3.org/2000/svg">
<path d="M10.8899 0.879883C4.94989 0.879883 0.129883 5.69988 0.129883 11.6399C0.129883 17.5799 4.94989 22.3999 10.8899 22.3999C16.8299 22.3999 21.6499 17.5799 21.6499 11.6399C21.6499 5.69988 16.8299 0.879883 10.8899 0.879883ZM10.8899 20.0799C6.22989 20.0799 2.44989 16.2999 2.44989 11.6399C2.44989 6.97988 6.22989 3.19988 10.8899 3.19988C15.5499 3.19988 19.3299 6.97988 19.3299 11.6399C19.3299 16.2999 15.5499 20.0799 10.8899 20.0799Z" fill="#F6F6F6"/>
<path d="M15.6599 10.4499H12.09V6.87994C12.09 6.35994 11.67 5.93994 11.15 5.93994C10.63 5.93994 10.21 6.35994 10.21 6.87994V11.3899C10.21 11.5199 10.24 11.6399 10.28 11.7499C10.35 11.9199 10.4699 12.0599 10.6199 12.1599C10.7699 12.2599 10.95 12.3199 11.14 12.3199H15.65C16.17 12.3199 16.59 11.8999 16.59 11.3799C16.59 10.8599 16.17 10.4399 15.65 10.4399L15.6599 10.4499Z" fill="#F6F6F6"/>
</svg>
