<svg width="31" height="40" viewBox="0 0 31 40" fill="none" xmlns="http://www.w3.org/2000/svg">
<path d="M6.06977 11.7901C5.46977 10.5101 4.92977 9.3001 4.33977 8.1201C2.91977 5.2801 3.69978 3.0401 6.64978 1.8901C7.83978 1.4301 9.11977 1.0801 10.3898 1.0001C14.5698 0.730096 18.7598 0.470096 22.9098 1.3701C23.5798 1.5201 24.2498 1.7301 24.8698 2.0301C27.3798 3.2101 28.1098 5.3801 26.8998 7.8801C26.2898 9.1501 25.6898 10.4301 25.0598 11.7901C26.1398 12.0501 26.8498 12.1301 27.4798 11.1501C28.0598 10.2401 29.0798 10.2201 29.9198 10.8701C31.1298 11.8001 30.6298 13.1301 30.2998 14.1901C30.1098 14.7901 29.1998 15.4301 28.5198 15.5601C27.3698 15.7801 26.1398 15.6201 24.6998 15.6201C24.6998 16.6801 24.7098 17.6701 24.6998 18.6501C24.6798 20.0701 24.0698 20.8401 22.9798 20.8701C21.8598 20.9001 21.2198 20.0701 21.1498 18.6001C20.9398 14.3001 21.2398 10.1201 23.6398 6.3601C23.7598 6.1801 23.7798 5.9401 23.8398 5.7401C21.4098 3.8901 9.77977 3.8901 7.28977 5.7701C7.74977 6.7401 8.17977 7.7501 8.67977 8.7301C10.3898 12.1001 10.0398 15.7301 9.95977 19.3101C9.93977 20.3201 9.17977 20.8901 8.17977 20.8601C7.17977 20.8301 6.53978 20.2301 6.48978 19.2001C6.42978 18.0601 6.47977 16.9201 6.47977 15.6301C5.16977 15.6301 4.00978 15.7701 2.89978 15.5801C2.17978 15.4601 1.20977 15.0001 0.959773 14.4301C0.509773 13.3901 0.0997735 12.1301 1.04977 11.0401C1.74977 10.2401 3.10978 10.2301 3.69977 11.1601C4.31978 12.1401 5.03977 12.0501 6.10977 11.8001L6.06977 11.7901Z" fill="#E05238"/>
<path d="M17.52 27.34C17.11 28.64 17.52 29.26 18.73 29.72C22.04 30.98 25.3 32.38 28.57 33.75C29.95 34.33 30.45 35.45 29.8 36.45C29.12 37.49 28.18 37.48 27.12 37.04C24.27 35.85 21.41 34.69 18.56 33.53C18.23 33.39 17.88 33.3 17.38 33.14C17.38 34.45 17.4 35.63 17.38 36.82C17.35 38.23 16.6 39.14 15.52 39.12C14.44 39.11 13.74 38.21 13.71 36.78C13.7 36.18 13.71 35.58 13.71 34.98C13.71 34.43 13.71 33.88 13.71 33.1C13.1 33.32 12.61 33.47 12.13 33.67C9.49002 34.76 6.86001 35.86 4.21001 36.94C2.70001 37.56 1.71002 37.32 1.24002 36.26C0.760016 35.16 1.32001 34.23 2.87001 33.58C6.02001 32.27 9.15002 30.92 12.33 29.71C13.5 29.26 13.99 28.67 13.62 27.51C11.8 27.04 9.86001 26.83 8.20002 26.05C6.46002 25.23 4.88001 23.96 3.42001 22.67C2.46001 21.82 2.64002 20.5 3.54002 19.9C4.56002 19.23 5.33001 19.65 6.21001 20.41C7.36001 21.41 8.66001 22.42 10.07 22.92C13.65 24.19 17.36 24.1 20.91 22.82C22.42 22.28 23.76 21.2 25.07 20.22C25.96 19.55 26.77 19.28 27.69 19.97C28.52 20.6 28.55 21.74 27.74 22.67C25.62 25.12 22.8 26.28 19.71 26.94C18.99 27.09 18.27 27.2 17.5 27.33L17.52 27.34Z" fill="#E05238"/>
</svg>
