<svg width="31" height="32" viewBox="0 0 31 32" fill="none" xmlns="http://www.w3.org/2000/svg">
<path d="M11.9899 26.2299C13.8099 24.6099 14.6499 22.7199 15.1199 20.6799C15.4399 19.2799 16.1599 18.6799 17.5799 18.7099C19.8599 18.7599 22.1299 18.7299 24.4099 18.7099C26.4299 18.6999 27.4499 17.6999 27.4599 15.7099C27.4799 12.6099 27.4799 9.51986 27.4599 6.41986C27.4499 4.45986 26.4799 3.44986 24.5399 3.43986C18.5799 3.40986 12.6099 3.40986 6.64986 3.43986C4.71986 3.43986 3.79985 4.46986 3.75985 6.44986C3.74985 6.99986 3.90986 7.65986 3.65986 8.05986C3.28986 8.63986 2.67986 9.30986 2.05986 9.42986C1.15986 9.60986 0.579857 8.87986 0.429857 7.96986C-0.330143 3.53986 2.53986 0.109863 7.02986 0.109863C12.8099 0.109863 18.5999 0.109863 24.3799 0.109863C28.2399 0.109863 30.8199 2.66986 30.8399 6.49986C30.8599 9.54986 30.8599 12.5999 30.8399 15.6499C30.8199 19.4499 28.2099 22.0399 24.3699 22.0699C22.7299 22.0799 21.0899 22.1399 19.4499 22.0499C18.4999 21.9999 18.1099 22.3599 17.8099 23.2199C16.3899 27.2399 13.7999 30.1199 9.51986 31.1299C8.84986 31.2899 7.87986 31.0599 7.34985 30.6399C6.60985 30.0399 6.96986 29.1799 7.46986 28.4299C8.56986 26.8099 9.02986 25.0699 8.37986 23.1299C8.13986 22.3999 7.73986 22.0699 6.89986 22.0499C2.47986 21.9299 -0.200145 18.6899 0.419855 14.3099C0.549855 13.3799 1.06985 12.7699 2.00985 12.7299C2.95985 12.6799 3.53986 13.2899 3.69986 14.1899C3.80986 14.8099 3.73986 15.4599 3.76986 16.0999C3.84986 17.5499 4.83986 18.5699 6.23986 18.7099C7.54986 18.8399 9.01986 18.2799 10.0699 19.5699C11.3699 21.1899 12.0599 23.0199 11.9899 25.1199C11.9899 25.3899 11.9899 25.6599 11.9899 26.2299Z" fill="#3AA4DA"/>
</svg>
