<svg width="22" height="37" viewBox="0 0 22 37" fill="none" xmlns="http://www.w3.org/2000/svg">
<path d="M10.56 14.43C12.51 14.43 14.45 14.43 16.4 14.43C19.08 14.43 21.02 16.33 21.04 18.99C21.06 21.97 21.04 24.95 21.04 27.92C21.04 28.64 20.65 29.17 20.04 29.36C19.38 29.56 18.65 29.35 18.34 28.76C18.16 28.42 18.09 27.99 18.09 27.6C18.07 24.87 18.08 22.13 18.08 19.39C18.08 17.93 17.58 17.43 16.1 17.43C12.39 17.43 8.68002 17.43 4.98002 17.43C3.56002 17.43 3.06002 17.94 3.06002 19.39C3.06002 22.19 3.06002 24.98 3.06002 27.78C3.06002 28.88 2.42002 29.47 1.40002 29.39C0.700024 29.34 0.120022 28.8 0.120022 28.09C0.110022 24.83 0.0600242 21.57 0.150024 18.31C0.210024 16.23 2.31002 14.44 4.50002 14.42C6.53002 14.4 8.55002 14.42 10.58 14.42L10.56 14.43Z" fill="#4680DC"/>
<path d="M7.56006 33.8899H13.5301C13.5401 33.6599 13.5601 33.4499 13.5601 33.2399C13.5601 30.9899 13.5601 28.7399 13.5601 26.4899C13.5601 25.7399 13.9501 25.2299 14.6001 25.0099C15.1801 24.8099 15.8601 24.9899 16.2201 25.5199C16.3901 25.7699 16.5201 26.1099 16.5301 26.4099C16.5501 29.4299 16.5501 32.4499 16.5301 35.4699C16.5301 36.2899 15.9401 36.9199 15.1201 36.9199C12.0801 36.9399 9.04006 36.9399 6.00006 36.9199C5.12006 36.9199 4.57006 36.2899 4.56006 35.3699C4.56006 32.4099 4.56006 29.4499 4.56006 26.4899C4.56006 25.6099 5.18006 24.9499 6.00006 24.9199C6.82006 24.8899 7.53006 25.5599 7.54006 26.4599C7.56006 28.6699 7.54006 30.8799 7.54006 33.0899C7.54006 33.3299 7.54006 33.5699 7.54006 33.8899H7.56006Z" fill="#4680DC"/>
<path d="M4.56985 6.90994C4.56985 3.58994 7.22985 0.939941 10.5499 0.939941C13.8999 0.939941 16.5499 3.59994 16.5399 6.95994C16.5399 10.2599 13.8599 12.9499 10.5599 12.9599C7.24985 12.9599 4.55985 10.2599 4.56985 6.91994V6.90994ZM10.5699 9.91994C12.2099 9.91994 13.5299 8.57994 13.5399 6.93994C13.5399 5.26994 12.2099 3.93994 10.5299 3.94994C8.86985 3.94994 7.55985 5.25994 7.55985 6.91994C7.55985 8.57994 8.89985 9.92994 10.5699 9.91994Z" fill="#4680DC"/>
</svg>
