<svg width="41" height="38" viewBox="0 0 41 38" fill="none" xmlns="http://www.w3.org/2000/svg">
<path d="M40.6398 11.16C40.3998 7.74003 38.0698 5.11003 34.8498 4.62003C33.7698 4.45003 32.6598 4.45003 31.5798 4.46003H31.1098C23.8798 4.45003 15.6798 4.44003 7.57982 4.46003C4.14982 4.47003 1.29981 6.78003 0.639815 10.08C-0.0301852 13.44 1.70982 16.71 4.77982 17.87C5.81982 18.26 5.97981 18.67 5.91981 19.71C5.81981 21.59 6.15981 21.94 7.75981 22.27V29.11C7.75981 30.68 7.75981 32.24 7.75981 33.81C7.75981 34.52 7.92981 35.05 8.27981 35.39C8.56981 35.67 8.95982 35.81 9.42982 35.8C9.88982 35.8 10.2698 35.64 10.5398 35.35C10.8698 35.01 11.0298 34.49 11.0098 33.84C11.0098 33.7 11.0098 33.56 11.0098 33.42V22.25H13.3998V34C13.3998 34.47 13.3998 34.93 13.3998 35.4C13.3998 36.39 13.9598 36.98 14.9298 37.01C15.8698 37.02 16.4598 36.48 16.5398 35.49C16.5698 35.2 16.5598 34.9 16.5598 34.62V34.48V30.17C16.5598 27.78 16.5598 25.38 16.5598 22.99C16.5598 22.76 16.5798 22.52 16.5898 22.29H18.9598V34.86C18.9598 35.02 18.9598 35.18 18.9598 35.35C18.9498 35.83 18.9898 36.51 19.4298 36.95C19.6998 37.22 20.0698 37.36 20.5298 37.36C20.5498 37.36 20.5598 37.36 20.5798 37.36C21.3598 37.34 21.7298 36.95 21.9098 36.62C22.1298 36.21 22.1498 35.7 22.1398 35.3C22.1398 35.14 22.1398 34.97 22.1398 34.81V22.31H24.5498V26.14C24.5498 29.01 24.5498 31.89 24.5498 34.76V34.9C24.5498 35.66 24.5498 36.93 26.0898 37.03C26.5498 37.06 26.9098 36.95 27.1798 36.7C27.5498 36.35 27.7098 35.78 27.7098 34.83V22.3H30.0998V25.9C30.0998 28.47 30.0998 31.04 30.0998 33.61C30.0998 34.49 30.3198 35.15 30.7398 35.52C31.0198 35.77 31.3798 35.88 31.7898 35.84C33.3598 35.67 33.3498 34.24 33.3498 33.56C33.3398 31.83 33.3498 30.1 33.3498 28.37V22.25C34.9198 22 35.2098 21.55 35.2198 19.8C35.2198 19.73 35.2198 19.65 35.2198 19.58C35.2198 19.39 35.2298 19.19 35.2098 18.98C35.1398 18.49 35.2298 18.29 35.8698 18.08C38.7898 17.15 40.8298 14.17 40.6198 11.16H40.6398ZM9.13981 18.4C9.23981 18.23 9.52981 18.15 9.75981 18.11C10.0598 18.06 10.6098 17.92 10.9698 17.56C11.8398 16.69 12.8998 16.7 14.1298 16.71H14.5098C16.1198 16.71 17.7398 16.71 19.3498 16.71C22.1598 16.71 25.0698 16.71 27.9398 16.74C28.3798 16.74 28.8798 16.95 29.3598 17.16C29.4998 17.22 29.6298 17.27 29.7598 17.33C29.9498 17.4 30.1398 17.51 30.3398 17.63C30.6598 17.82 30.9898 18.01 31.3798 18.09C31.6998 18.15 31.9098 18.26 31.9898 18.39C32.0598 18.51 32.0798 18.71 32.0298 18.98H9.13981C9.06981 18.71 9.07981 18.51 9.13981 18.39V18.4ZM29.8498 11.99C29.8498 11.92 29.8398 11.85 29.8398 11.77C29.8298 11.49 29.8198 11.15 29.5798 10.91C29.0698 10.39 28.5598 9.93003 28.0298 9.99003C27.4598 10.05 26.7398 10.81 26.6798 11.41C26.6198 12.03 26.7198 12.66 26.8198 13.26C26.8398 13.35 26.8498 13.44 26.8598 13.54H14.2598L14.2798 13.42C14.3698 12.94 14.4498 12.49 14.5098 12.02C14.5998 11.37 14.4898 10.85 14.1998 10.48C13.9498 10.17 13.5798 9.98003 13.1098 9.94003C12.6398 9.89003 12.2598 10 11.9498 10.25C11.5898 10.55 11.3798 11.04 11.3298 11.71C11.1798 13.51 10.2398 14.67 8.52981 15.17C7.03981 15.6 5.69982 15.2 4.65982 14.01C3.60982 12.81 3.39982 11.47 4.01982 10.02C4.66982 8.51003 5.84981 7.71003 7.41981 7.70003C11.6798 7.69003 16.0998 7.68003 20.7598 7.68003C24.8898 7.68003 29.1998 7.68003 33.7598 7.70003C35.7598 7.70003 37.4298 9.39003 37.4698 11.45C37.5098 13.43 35.9398 15.17 33.9598 15.32C31.8698 15.47 30.1098 14.06 29.8598 12.01L29.8498 11.99Z" fill="#CE424C"/>
<path d="M8.03973 3.58999C8.22973 3.72999 8.44972 3.76999 8.66972 3.76999C8.77972 3.76999 8.88973 3.76999 8.99973 3.74999C9.08973 3.74999 9.17973 3.74999 9.24973 3.73999C12.1697 3.73999 15.0997 3.73999 18.0197 3.73999H31.9197C32.1397 3.73999 32.3597 3.73999 32.5797 3.73999C33.6397 3.66999 34.2397 3.06999 34.2097 2.09999C34.1897 1.17999 33.5997 0.61999 32.6097 0.56999C32.3897 0.55999 32.1697 0.55999 31.9497 0.56999H31.7197C24.2797 0.56999 16.8397 0.56999 9.38972 0.56999C9.29972 0.56999 9.19972 0.56999 9.09972 0.54999C8.76972 0.51999 8.39973 0.48999 8.08973 0.68999C7.75973 0.90999 6.97973 1.47999 6.96973 2.13999C6.96973 2.58999 7.30972 3.06999 8.02972 3.60999L8.03973 3.58999Z" fill="#CE424C"/>
</svg>
