<svg width="502" height="329" viewBox="0 0 502 329" fill="none" xmlns="http://www.w3.org/2000/svg">
<path d="M457.94 155.67C453.92 149.1 446.97 140.01 436.65 133.97C432.01 131.26 427.12 129.46 422.11 128.63C410.4 126.69 398.8 129.74 390.28 136.99C381.98 144.06 377.44 154.22 377.48 165.58C377.5 175.41 380.5 185.25 385.49 191.9C389.09 196.7 394.42 199.55 400.51 199.94C407.01 200.35 413.62 197.78 418.19 193.08C422.74 188.42 424.5 182.91 425.11 178.13C433.08 206.13 413.15 234.65 387.67 248.9C379.3 253.57 369.84 255.14 361.73 253.2L361.6 253.17C361.5 253.15 361.41 253.12 361.31 253.09L361.07 253.02C357.09 251.97 353.21 250.09 349.45 247.39C366.37 202.03 375.77 158.8 375.37 127.79C375.35 95.5499 362.79 65.2399 339.99 42.4299C317.17 19.6099 286.84 7.03992 254.56 7.03992C222.28 7.03992 191.95 19.6099 169.14 42.4299C146.34 65.2299 133.78 95.5399 133.76 127.79C133.37 158.83 142.77 202.04 159.66 247.35C155.9 250.06 151.99 251.96 147.98 253.02L147.72 253.09C147.63 253.12 147.53 253.14 147.47 253.16L147.34 253.19C139.22 255.13 129.77 253.56 121.42 248.89C95.9302 234.63 76.0002 206.11 83.9702 178.12C84.5802 182.89 86.3302 188.4 90.8702 193.05C95.4602 197.78 102.08 200.35 108.57 199.94C114.66 199.55 119.99 196.7 123.59 191.9C128.59 185.24 131.59 175.4 131.61 165.59C131.66 154.2 127.11 144.04 118.81 136.97C110.29 129.72 98.6902 126.67 86.9702 128.61C81.9902 129.44 77.1102 131.23 72.4402 133.95C62.1202 139.98 55.1602 149.08 51.1402 155.65C43.6002 167.99 40.1702 182.8 41.4902 197.35C43.3702 218.14 54.1002 239.59 72.5302 259.39C91.7302 280.02 115.36 291.09 140.85 291.41C151.68 291.54 162.65 289.59 172.57 285.74C173.44 285.4 174.3 285.05 175.15 284.69C175.83 286.17 176.51 287.64 177.2 289.09L179.09 293.11L183.21 294.78C205.88 303.99 229.88 308.66 254.52 308.66C279.16 308.66 303.24 303.97 325.93 294.73L330.02 293.06L331.91 289.07C332.6 287.62 333.28 286.15 333.96 284.69C334.81 285.05 335.66 285.4 336.52 285.73C346.43 289.59 357.39 291.55 368.19 291.41C393.69 291.1 417.32 280.03 436.52 259.4C454.95 239.6 465.69 218.14 467.57 197.36C468.88 182.81 465.46 168 457.92 155.66L457.94 155.67Z" fill="#5C0818"/>
<path d="M451.06 149.2C447.04 142.63 440.09 133.54 429.77 127.5C425.13 124.79 420.24 122.99 415.23 122.16C403.52 120.22 391.92 123.27 383.4 130.52C375.1 137.59 370.56 147.75 370.6 159.11C370.62 168.94 373.62 178.78 378.61 185.43C382.21 190.23 387.54 193.08 393.63 193.47C400.13 193.88 406.74 191.31 411.31 186.61C415.86 181.95 417.62 176.44 418.23 171.66C426.2 199.66 406.27 228.18 380.79 242.43C372.42 247.1 362.96 248.67 354.85 246.73L354.72 246.7C354.62 246.68 354.53 246.65 354.43 246.62L354.19 246.55C350.21 245.5 346.33 243.62 342.57 240.92C359.49 195.56 368.89 152.33 368.49 121.32C368.47 89.08 355.91 58.77 333.11 35.96C310.29 13.14 279.96 0.569946 247.68 0.569946C215.4 0.569946 185.07 13.14 162.26 35.96C139.46 58.76 126.9 89.07 126.88 121.32C126.49 152.36 135.89 195.57 152.78 240.88C149.02 243.59 145.11 245.49 141.1 246.55L140.84 246.62C140.75 246.65 140.65 246.67 140.59 246.69L140.46 246.72C132.34 248.66 122.89 247.09 114.54 242.42C89.0504 228.16 69.1203 199.64 77.0904 171.65C77.7004 176.42 79.4504 181.93 83.9904 186.58C88.5804 191.31 95.2004 193.88 101.69 193.47C107.78 193.08 113.11 190.23 116.71 185.43C121.71 178.77 124.71 168.93 124.73 159.12C124.78 147.73 120.23 137.57 111.93 130.5C103.41 123.25 91.8104 120.2 80.0904 122.14C75.1104 122.97 70.2304 124.76 65.5604 127.48C55.2404 133.51 48.2803 142.61 44.2603 149.18C36.7203 161.52 33.2904 176.33 34.6104 190.88C36.4904 211.67 47.2203 233.12 65.6503 252.92C84.8503 273.55 108.48 284.62 133.97 284.94C144.8 285.07 155.77 283.12 165.69 279.27C166.56 278.93 167.42 278.58 168.27 278.22C168.95 279.7 169.63 281.17 170.32 282.62L172.21 286.64L176.33 288.31C199 297.52 223 302.19 247.64 302.19C272.28 302.19 296.36 297.5 319.05 288.26L323.14 286.59L325.03 282.6C325.72 281.15 326.4 279.68 327.08 278.22C327.93 278.58 328.78 278.93 329.64 279.26C339.55 283.12 350.51 285.08 361.31 284.94C386.81 284.63 410.44 273.56 429.64 252.93C448.07 233.13 458.81 211.67 460.69 190.89C462 176.34 458.58 161.53 451.04 149.19L451.06 149.2Z" fill="white"/>
<path d="M449.39 189.87C447.49 210.9 435.45 230.03 421.35 245.19C405.42 262.31 384.98 273.29 361.2 273.58C351.86 273.71 342.46 272.06 333.76 268.66C329.53 267.04 325.46 264.99 321.65 262.54C319.43 267.71 317.13 272.79 314.78 277.73C294.07 286.17 271.42 290.82 247.66 290.82C223.9 290.82 201.32 286.18 180.63 277.78C178.28 272.79 175.98 267.68 173.75 262.52C169.92 264.98 165.85 267.03 161.6 268.68C152.9 272.06 143.5 273.71 134.14 273.58C110.36 273.29 89.9303 262.31 73.9903 245.19C59.8803 230.04 47.8503 210.9 45.9503 189.87C44.8603 177.82 47.6703 165.46 53.9803 155.12C58.1803 148.25 64.1203 141.52 71.3103 137.31C74.6203 135.38 78.2003 134 81.9703 133.37C98.7403 130.59 113.43 141.76 113.36 159.08C113.35 165.56 111.53 173.39 107.62 178.6C103.85 183.63 96.3503 182.97 92.1603 178.66C88.1203 174.53 87.9703 168.79 88.3503 163.37C88.6903 158.78 90.4403 151.96 85.1003 149.49C82.7403 148.39 79.8603 148.72 77.5403 149.91C76.2703 150.57 75.1103 151.47 74.0803 152.51C72.7103 153.88 71.5803 155.51 70.7103 157.17C51.4703 194.16 76.0403 233.92 109 252.36C119.25 258.09 131.6 260.54 143.12 257.79C143.43 257.72 143.72 257.64 144.03 257.55C152.48 255.32 159.99 250.48 166.29 244.34C149.42 201.02 137.84 154.86 138.28 121.4C138.28 60.9599 187.27 11.95 247.71 11.95C308.15 11.95 357.14 60.9499 357.14 121.4C357.59 154.88 345.98 201.04 329.1 244.39C335.38 250.49 342.88 255.32 351.32 257.55C351.61 257.63 351.92 257.72 352.23 257.79C363.75 260.54 376.08 258.08 386.35 252.36C419.31 233.93 443.89 194.17 424.64 157.17C423.77 155.51 422.64 153.87 421.27 152.51C420.24 151.48 419.06 150.57 417.81 149.91C415.49 148.72 412.61 148.39 410.24 149.49C404.91 151.96 406.66 158.78 407 163.37C407.38 168.79 407.22 174.53 403.19 178.66C399 182.98 391.5 183.63 387.73 178.6C383.82 173.39 382 165.56 381.99 159.08C381.92 141.76 396.61 130.59 413.38 133.37C417.16 134 420.74 135.38 424.04 137.31C431.23 141.51 437.17 148.24 441.37 155.12C447.68 165.45 450.49 177.81 449.4 189.87H449.39Z" fill="#E20A17" stroke="#9C1109" stroke-width="3.82" stroke-miterlimit="10"/>
<path d="M204.58 125.36C209.164 125.36 212.88 121.644 212.88 117.06C212.88 112.476 209.164 108.76 204.58 108.76C199.996 108.76 196.28 112.476 196.28 117.06C196.28 121.644 199.996 125.36 204.58 125.36Z" fill="#0D181C" stroke="#0D181C" stroke-width="3.82" stroke-miterlimit="10"/>
<path d="M289.55 125.36C294.134 125.36 297.85 121.644 297.85 117.06C297.85 112.476 294.134 108.76 289.55 108.76C284.967 108.76 281.25 112.476 281.25 117.06C281.25 121.644 284.967 125.36 289.55 125.36Z" fill="#0D181C" stroke="#0D181C" stroke-width="3.82" stroke-miterlimit="10"/>
<path d="M247.07 213.05C264.611 213.05 278.83 198.83 278.83 181.29C278.83 163.749 264.611 149.53 247.07 149.53C229.53 149.53 215.31 163.749 215.31 181.29C215.31 198.83 229.53 213.05 247.07 213.05Z" fill="#A01C18" stroke="#82170F" stroke-width="3.82" stroke-miterlimit="10"/>
<path d="M247.07 199.97C257.387 199.97 265.75 191.607 265.75 181.29C265.75 170.973 257.387 162.61 247.07 162.61C236.753 162.61 228.39 170.973 228.39 181.29C228.39 191.607 236.753 199.97 247.07 199.97Z" fill="#5A170B" stroke="#451002" stroke-width="3.82" stroke-miterlimit="10"/>
<path d="M212.29 160.05C201.13 163.02 199.85 175.9 196.49 185.04C194.64 190.08 191.43 195.1 186.38 196.91C180.65 198.96 173.89 196.04 170.51 190.99C168.84 188.5 167.86 185.46 168.31 182.5C168.76 179.54 170.82 176.75 173.7 175.94C176.58 175.13 180.07 176.69 180.96 179.54C181.75 182.07 179.35 186.63 176.27 185.44" fill="#E20A17"/>
<path d="M212.29 160.05C201.13 163.02 199.85 175.9 196.49 185.04C194.64 190.08 191.43 195.1 186.38 196.91C180.65 198.96 173.89 196.04 170.51 190.99C168.84 188.5 167.86 185.46 168.31 182.5C168.76 179.54 170.82 176.75 173.7 175.94C176.58 175.13 180.07 176.69 180.96 179.54C181.75 182.07 179.35 186.63 176.27 185.44" stroke="#9C1109" stroke-width="3.82" stroke-miterlimit="10"/>
<path d="M281.85 160.05C293.01 163.02 294.29 175.9 297.65 185.04C299.5 190.08 302.71 195.1 307.76 196.91C313.49 198.96 320.25 196.04 323.63 190.99C325.3 188.5 326.28 185.46 325.83 182.5C325.38 179.54 323.32 176.75 320.44 175.94C317.56 175.13 314.07 176.69 313.18 179.54C312.39 182.07 314.79 186.63 317.87 185.44" fill="#E20A17"/>
<path d="M281.85 160.05C293.01 163.02 294.29 175.9 297.65 185.04C299.5 190.08 302.71 195.1 307.76 196.91C313.49 198.96 320.25 196.04 323.63 190.99C325.3 188.5 326.28 185.46 325.83 182.5C325.38 179.54 323.32 176.75 320.44 175.94C317.56 175.13 314.07 176.69 313.18 179.54C312.39 182.07 314.79 186.63 317.87 185.44" stroke="#9C1109" stroke-width="3.82" stroke-miterlimit="10"/>
<path d="M499.01 292.81C497.64 290.16 495.77 287.9 493.44 286.07C496.65 283.96 498.78 280.33 498.78 276.2C498.78 276.13 498.78 276.07 498.78 276C498.78 275.94 498.78 275.89 498.78 275.83C498.78 273.3 498.15 270.74 496.92 268.23C495.74 265.82 493.93 263.57 491.54 261.53C489.2 259.53 486.3 257.94 482.93 256.79C479.66 255.68 475.85 255.12 471.59 255.12C466.31 255.12 461.57 255.95 457.51 257.59C453.04 259.4 449.52 262.1 447.05 265.62C445.33 268.07 444.19 270.76 443.64 273.67C443.51 273.39 443.38 273.11 443.24 272.83C440.44 267.15 436.26 262.71 430.8 259.62C425.63 256.69 419.48 255.18 412.54 255.12C412.46 255.12 412.37 255.12 412.29 255.12H412.15H412.09C406.85 255.12 402.04 255.97 397.81 257.66C393.44 259.4 389.66 261.96 386.57 265.28C383.88 268.17 381.75 271.61 380.2 275.53C378.31 270.52 375.42 266.31 371.52 262.97C368.44 260.28 364.95 258.42 361.13 257.43C357.76 256.56 353.76 256.11 349.24 256.11H333.94C333.75 256.11 333.57 256.11 333.39 256.12C331.88 256.05 330.33 256.29 328.87 256.79C326.86 257.39 325.16 258.38 323.81 259.73C322.46 261.08 321.47 262.78 320.87 264.79C320.42 266.12 320.19 267.5 320.19 268.9C320.19 269.04 320.19 269.18 320.2 269.32C320.2 269.5 320.19 269.68 320.19 269.87V302.22L307.24 270.24C306.54 268.39 305.93 266.85 305.44 265.65C304.8 264.1 304.01 262.63 303.08 261.28C301.84 259.49 300.22 258.02 298.26 256.9C297.42 256.43 296.51 256.04 295.53 255.75C294.03 255.18 292.47 254.88 290.84 254.9L290.79 254.77L290.74 254.9C289.19 254.92 287.67 255.22 286.23 255.79C285.3 256.07 284.43 256.45 283.64 256.9C281.66 258.02 280.02 259.53 278.78 261.39C277.83 262.8 277 264.45 276.22 266.43L275.92 267.19C275.45 268.39 275.04 269.44 274.7 270.31L262.14 302.18V268.4C262.14 268.13 262.14 267.86 262.12 267.59C262.13 267.38 262.14 267.17 262.14 266.96C262.14 260.39 256.79 255.04 250.22 255.04C249.76 255.04 249.31 255.08 248.86 255.13C249.43 253.52 249.73 251.94 249.73 250.41C249.73 250.26 249.73 250.12 249.73 249.99C249.73 249.87 249.73 249.74 249.73 249.61C249.73 246.49 248.08 243.63 245.39 242.06C244.04 241.21 242.5 240.76 240.91 240.76C239.03 240.76 237.22 241.4 235.75 242.57C234.94 243.17 234.24 243.9 233.69 244.72C233.51 244.64 233.31 244.55 233.1 244.45C231.18 243.57 229.64 242.94 228.4 242.52C226.71 241.95 224.9 241.66 223 241.66C220.49 241.66 218.04 242.44 215.91 243.92C213.92 245.3 212.37 247.16 211.3 249.43C210.36 251.41 209.87 253.51 209.81 255.66C206.5 256.71 203.77 259 202.16 262.02C200.29 258.5 196.6 256.1 192.34 256.1C192.15 256.1 191.97 256.1 191.78 256.11C191.54 256.11 191.32 256.1 191.09 256.1H160.1C159.89 256.1 159.68 256.1 159.48 256.1C159.35 256.1 159.22 256.1 159.09 256.1C157.67 256.1 156.26 256.34 154.91 256.81C154.34 256.99 153.79 257.19 153.28 257.42C150.8 258.55 148.87 260.46 147.72 262.93C147.47 263.46 147.25 264.04 147.06 264.65C146.58 266.01 146.34 267.42 146.34 268.85C146.34 268.98 146.34 269.11 146.34 269.24C146.34 269.44 146.34 269.65 146.34 269.86V271.43C146.04 270.36 145.63 269.29 145.11 268.23C143.93 265.82 142.12 263.57 139.73 261.53C137.39 259.53 134.49 257.94 131.12 256.79C127.85 255.68 124.04 255.12 119.78 255.12C114.5 255.12 109.76 255.95 105.7 257.59C101.23 259.4 97.7102 262.1 95.2402 265.62C93.9502 267.46 92.9802 269.45 92.3502 271.56V268.8C92.3502 268.56 92.3502 268.33 92.3402 268.08C92.3402 267.92 92.3502 267.75 92.3502 267.56C92.3502 264.92 91.5302 262.4 89.9802 260.26C89.6502 259.78 89.3102 259.36 88.9502 258.97C86.7702 256.64 83.8702 255.31 80.5802 255.15C80.4202 255.14 80.2602 255.13 80.1002 255.13H79.8702C79.8702 255.13 79.7902 255.13 79.7602 255.13H79.6802C76.1902 255.18 73.1302 256.53 70.8302 259.05C70.5002 259.41 70.1902 259.81 69.8802 260.25C68.3202 262.39 67.5002 264.91 67.5002 267.55C67.5002 267.74 67.5002 267.92 67.5102 268.07C67.5102 268.32 67.5002 268.56 67.5002 268.79V276.36C65.6202 270.98 62.6302 266.49 58.5102 262.96C55.4302 260.27 51.9402 258.41 48.1202 257.42C44.7502 256.55 40.7502 256.1 36.2302 256.1H20.9302C20.7602 256.1 20.5902 256.1 20.4302 256.1C19.0302 256.04 17.6102 256.24 16.2502 256.66C14.0702 257.24 12.2302 258.27 10.8002 259.71C9.36019 261.15 8.34018 262.98 7.75018 265.16C7.37018 266.39 7.18018 267.67 7.18018 268.95C7.18018 269.08 7.18018 269.21 7.18018 269.34C7.18018 269.5 7.18018 269.67 7.18018 269.84V312.34C7.18018 312.76 7.18018 313.17 7.20018 313.57C7.19018 313.81 7.18018 314.05 7.18018 314.29C7.18018 315.61 7.39018 316.92 7.79018 318.2C7.83018 318.37 7.87018 318.53 7.92018 318.68C8.71018 321.48 10.4602 323.76 12.9802 325.26C13.9802 325.86 15.1402 326.32 16.4202 326.64C17.6002 326.99 18.8102 327.16 20.0402 327.16C20.1802 327.16 20.3102 327.16 20.4502 327.15C20.6802 327.15 20.9202 327.16 21.1702 327.16H36.4702C39.4702 327.16 42.2302 326.96 44.6902 326.56C47.3802 326.13 49.9502 325.36 52.3202 324.27C54.7602 323.15 57.0302 321.66 59.0802 319.82L59.1402 319.77C61.6302 317.48 63.7102 314.83 65.3102 311.91C66.1602 310.36 66.8902 308.69 67.5002 306.94V314.43C67.5002 314.68 67.5002 314.92 67.5102 315.17C67.5102 315.34 67.5002 315.52 67.5002 315.71C67.5002 318.78 68.6302 321.72 70.6802 324C70.7402 324.07 70.7902 324.13 70.8402 324.18C70.9302 324.28 71.0302 324.38 71.1202 324.48C73.4002 326.83 76.3502 328.09 79.6702 328.14H79.9202C80.1502 328.14 80.3802 328.14 80.6102 328.11C83.9102 327.93 86.8002 326.6 88.9702 324.25C89.1802 324.02 89.3402 323.82 89.4302 323.7C91.3102 321.46 92.3502 318.63 92.3502 315.71C92.3502 315.52 92.3502 315.34 92.3402 315.17C92.3402 314.92 92.3502 314.67 92.3502 314.42V312.96C92.7802 313.85 93.2702 314.74 93.8302 315.63C96.0302 319.1 98.9302 321.91 102.5 324.01C107.21 326.75 113.08 328.14 119.95 328.14C125.64 328.14 130.72 327.14 135.04 325.18C139.66 323.08 143.27 320.06 145.76 316.2C145.98 315.86 146.19 315.51 146.39 315.16C146.46 316.32 146.68 317.47 147.07 318.59C147.66 320.53 148.63 322.18 149.93 323.5C151.26 324.85 152.95 325.84 154.95 326.45C156.3 326.92 157.7 327.15 159.11 327.15C159.25 327.15 159.39 327.15 159.54 327.14C159.73 327.14 159.92 327.15 160.12 327.15H192.02C192.21 327.15 192.41 327.15 192.61 327.14C192.75 327.14 192.9 327.15 193.05 327.15C196.53 327.15 199.84 325.49 201.93 322.7C202.02 322.58 202.11 322.45 202.2 322.33C204.26 325.9 208.12 328.3 212.53 328.3C218.23 328.3 223.11 324.28 224.22 318.71C224.5 317.5 224.64 316.21 224.64 314.85V302.96L234.6 318.23L234.68 318.36C235.34 319.33 236.01 320.28 236.65 321.18C237.55 322.43 238.55 323.56 239.63 324.53C242.12 326.96 245.39 328.29 248.88 328.29C250.15 328.29 251.41 328.11 252.63 327.75C255.6 327.05 258.04 325.38 259.69 322.97C261.85 326.25 265.56 328.43 269.78 328.43C275.41 328.43 280.28 324.48 281.53 319.08C281.86 318.29 282.21 317.41 282.57 316.46L283.75 313.3H298.23L299.39 316.35L299.46 316.52C299.85 317.46 300.31 318.55 300.84 319.76C301.04 320.22 301.24 320.64 301.43 321.03C303.29 325.48 307.71 328.44 312.55 328.44C316.95 328.44 320.8 326.08 322.91 322.55C323.64 323.47 324.52 324.28 325.53 324.96C327.72 326.53 330.29 327.36 332.98 327.36C333.73 327.36 334.49 327.29 335.25 327.15H349.48C352.48 327.15 355.24 326.95 357.7 326.55C360.39 326.12 362.96 325.34 365.33 324.26C367.77 323.14 370.04 321.65 372.08 319.82L372.14 319.77C374.63 317.48 376.71 314.83 378.31 311.91C379.04 310.57 379.69 309.15 380.24 307.66C381.72 311.42 383.75 314.76 386.3 317.59C389.35 320.98 393.18 323.63 397.67 325.46C401.97 327.22 406.84 328.12 412.14 328.14C412.17 328.14 412.21 328.14 412.24 328.14H412.32C412.32 328.14 412.42 328.14 412.46 328.14C417.78 328.12 422.64 327.25 426.9 325.53C431.35 323.74 435.16 321.1 438.25 317.67C440.18 315.53 441.81 313.13 443.13 310.5C443.71 312.22 444.54 313.94 445.61 315.63C447.81 319.1 450.71 321.91 454.28 324.02C458.99 326.76 464.86 328.15 471.73 328.15C477.42 328.15 482.5 327.15 486.82 325.19C491.44 323.09 495.05 320.07 497.54 316.22C500.03 312.36 501.3 307.98 501.3 303.21C501.3 299.24 500.53 295.73 499.01 292.79V292.81ZM41.2202 303.56L41.1302 303.64C40.8902 303.85 40.5802 304.02 40.1802 304.17C39.5102 304.41 38.8802 304.56 38.3202 304.61C37.7102 304.67 36.5202 304.74 34.3602 304.74H32.0302V278.53H33.2202C36.1302 278.53 38.5702 278.83 40.4602 279.41C41.3902 279.7 42.3002 280.56 43.1602 281.98C43.7702 282.99 44.8002 285.56 44.8002 291.43C44.8002 295.6 44.1802 301.08 41.2302 303.58L41.2202 303.56ZM115.27 305C114.7 304.17 114.13 303.06 113.58 301.69C113.53 301.57 113.48 301.45 113.43 301.33C113.37 301.12 113.3 300.92 113.23 300.72C113.91 300.9 114.61 301.08 115.33 301.26C116.48 301.73 117.7 302.03 118.93 302.13C120.53 302.54 121.87 302.93 122.93 303.29C123.72 303.56 124.34 303.9 124.78 304.3C124.78 304.35 124.78 304.42 124.78 304.51C124.78 304.68 124.78 304.85 124.16 305.32C123.15 306.07 121.62 306.45 119.6 306.45C117.58 306.45 116.7 306.09 116.48 305.98C115.9 305.68 115.48 305.36 115.25 305.01L115.27 305ZM123.3 278.58C122.75 278.42 122.18 278.3 121.61 278.22C119.83 277.76 118.51 277.4 117.69 277.16C117.38 277.07 117.07 276.96 116.76 276.83C117.38 276.68 118.13 276.6 118.99 276.6C121 276.6 121.81 276.91 121.99 276.99C122.45 277.39 122.89 277.92 123.31 278.59L123.3 278.58ZM93.6702 296.35C93.1702 296.86 92.7302 297.4 92.3402 297.97V284.44C92.9602 286.53 93.9102 288.45 95.1702 290.17C96.0502 291.37 97.0502 292.48 98.1502 293.49C96.4702 294.07 94.9502 295.03 93.6702 296.35ZM141.64 286.08C143.82 284.65 145.49 282.52 146.35 280.01V291.31C145.09 289.3 143.52 287.55 141.64 286.08ZM192.01 304.75H171.22V301.39H188.05C188.69 301.5 189.33 301.56 189.97 301.56C194.88 301.56 199.06 298.35 200.52 293.92V307.67C198.35 305.73 195.5 304.75 192.02 304.75H192.01ZM200.51 274.75V286.99C199.05 282.56 194.88 279.35 189.96 279.35C189.59 279.35 189.23 279.37 188.85 279.41H171.21V278.3H191.1C191.23 278.3 191.36 278.3 191.49 278.3C191.78 278.32 192.07 278.34 192.35 278.34C195.57 278.34 198.48 276.96 200.51 274.76V274.75ZM238.55 264.6C238.42 265.26 238.33 265.94 238.31 266.62C238.26 267.22 238.23 267.82 238.23 268.42V281.06L227.73 265.17C227.1 264.17 226.49 263.22 225.9 262.3C225.84 262.2 225.77 262.11 225.71 262.01C225.77 261.92 225.85 261.83 225.91 261.74C226.22 261.88 226.57 262.03 226.95 262.2C228.84 263.04 230.34 263.64 231.53 264.02C233.12 264.53 234.72 264.79 236.29 264.79C237.07 264.79 237.82 264.73 238.55 264.61V264.6ZM467.08 305.01C466.51 304.19 465.94 303.07 465.39 301.7C465.34 301.58 465.3 301.46 465.25 301.35C465.19 301.14 465.12 300.93 465.05 300.73C465.73 300.92 466.44 301.1 467.15 301.27C468.3 301.74 469.52 302.03 470.75 302.14C472.35 302.55 473.69 302.94 474.75 303.3C475.54 303.57 476.16 303.91 476.6 304.31C476.6 304.36 476.6 304.43 476.6 304.52C476.6 304.69 476.6 304.86 475.98 305.33C474.97 306.08 473.44 306.46 471.42 306.46C469.4 306.46 468.52 306.1 468.3 305.99C467.72 305.69 467.3 305.36 467.07 305.02L467.08 305.01ZM468.56 276.83C469.18 276.68 469.93 276.6 470.79 276.6C472.8 276.6 473.61 276.91 473.79 276.99C474.25 277.39 474.69 277.92 475.11 278.59C474.56 278.43 473.99 278.31 473.42 278.23C471.64 277.77 470.32 277.41 469.5 277.17C469.19 277.08 468.88 276.97 468.57 276.84L468.56 276.83ZM449.96 293.5C448.95 293.85 448 294.34 447.12 294.96C447.19 293.85 447.23 292.73 447.23 291.59C447.23 291.22 447.23 290.86 447.22 290.5C448.04 291.58 448.95 292.59 449.96 293.5ZM420.61 300.28C419.68 302.23 418.56 303.59 417.17 304.42C415.68 305.31 414.07 305.75 412.25 305.75C410.82 305.75 409.57 305.51 408.44 305.01C407.36 304.53 406.41 303.8 405.53 302.78C404.62 301.72 403.87 300.28 403.31 298.5C402.68 296.48 402.36 294.14 402.36 291.52C402.36 288.9 402.68 286.63 403.3 284.67C403.86 282.9 404.58 281.49 405.44 280.48C406.24 279.54 407.16 278.85 408.25 278.37C409.4 277.86 410.66 277.61 412.09 277.61C414.14 277.61 415.87 278.06 417.36 279C418.78 279.89 419.87 281.24 420.71 283.14C421.7 285.4 422.21 288.22 422.21 291.53C422.21 295.11 421.67 298.06 420.61 300.3V300.28ZM354.25 303.58L354.16 303.66C353.92 303.87 353.61 304.04 353.21 304.19C352.54 304.43 351.91 304.58 351.35 304.63C350.74 304.69 349.55 304.76 347.39 304.76H345.06V278.55H346.25C349.16 278.55 351.6 278.85 353.49 279.43C354.42 279.72 355.33 280.58 356.19 282C356.8 283.01 357.83 285.58 357.83 291.45C357.83 295.62 357.21 301.1 354.26 303.6L354.25 303.58Z" fill="#006633"/>
<path d="M492.45 284.73C491.08 282.08 489.21 279.82 486.88 277.99C490.09 275.88 492.22 272.25 492.22 268.12C492.22 268.05 492.22 267.99 492.22 267.92C492.22 267.86 492.22 267.81 492.22 267.75C492.22 265.22 491.59 262.66 490.36 260.15C489.18 257.74 487.37 255.49 484.98 253.45C482.64 251.45 479.74 249.86 476.37 248.71C473.1 247.6 469.29 247.04 465.03 247.04C459.75 247.04 455.01 247.87 450.95 249.51C446.48 251.32 442.96 254.02 440.49 257.54C438.77 259.99 437.63 262.68 437.08 265.59C436.95 265.31 436.82 265.03 436.68 264.75C433.88 259.07 429.7 254.63 424.24 251.54C419.07 248.61 412.92 247.1 405.98 247.04C405.9 247.04 405.81 247.04 405.73 247.04H405.59H405.53C400.29 247.04 395.48 247.89 391.25 249.58C386.88 251.32 383.1 253.88 380.01 257.2C377.32 260.09 375.19 263.53 373.64 267.45C371.75 262.44 368.86 258.23 364.96 254.89C361.88 252.2 358.39 250.34 354.57 249.35C351.2 248.48 347.2 248.03 342.68 248.03H327.38C327.19 248.03 327.01 248.03 326.83 248.04C325.32 247.97 323.77 248.21 322.31 248.71C320.3 249.31 318.6 250.3 317.25 251.65C315.9 253 314.91 254.7 314.31 256.71C313.86 258.04 313.63 259.42 313.63 260.82C313.63 260.96 313.63 261.1 313.64 261.24C313.64 261.42 313.63 261.6 313.63 261.79V294.14L300.68 262.16C299.98 260.31 299.37 258.77 298.88 257.57C298.24 256.02 297.45 254.55 296.52 253.2C295.28 251.41 293.66 249.94 291.7 248.82C290.86 248.35 289.95 247.96 288.97 247.67C287.47 247.1 285.91 246.8 284.28 246.82L284.23 246.69L284.18 246.82C282.63 246.84 281.11 247.14 279.67 247.71C278.74 247.99 277.87 248.37 277.08 248.82C275.1 249.94 273.46 251.45 272.22 253.31C271.27 254.72 270.44 256.37 269.66 258.35L269.36 259.11C268.89 260.31 268.48 261.36 268.14 262.23L255.58 294.1V260.32C255.58 260.05 255.58 259.78 255.56 259.51C255.57 259.3 255.58 259.09 255.58 258.88C255.58 252.31 250.23 246.96 243.66 246.96C243.2 246.96 242.75 247 242.3 247.05C242.87 245.44 243.17 243.86 243.17 242.33C243.17 242.18 243.17 242.04 243.17 241.91C243.17 241.79 243.17 241.66 243.17 241.53C243.17 238.41 241.52 235.55 238.83 233.98C237.48 233.13 235.94 232.68 234.35 232.68C232.47 232.68 230.66 233.32 229.19 234.49C228.38 235.09 227.68 235.82 227.13 236.64C226.95 236.56 226.75 236.47 226.54 236.37C224.62 235.49 223.08 234.86 221.84 234.44C220.15 233.87 218.34 233.58 216.44 233.58C213.93 233.58 211.48 234.36 209.35 235.84C207.36 237.22 205.81 239.08 204.74 241.35C203.8 243.33 203.31 245.43 203.25 247.58C199.94 248.63 197.21 250.92 195.6 253.94C193.73 250.42 190.04 248.02 185.78 248.02C185.59 248.02 185.41 248.02 185.22 248.03C184.98 248.03 184.76 248.02 184.53 248.02H153.54C153.33 248.02 153.12 248.02 152.92 248.02C152.79 248.02 152.66 248.02 152.53 248.02C151.11 248.02 149.7 248.26 148.35 248.73C147.78 248.91 147.23 249.11 146.72 249.34C144.24 250.47 142.31 252.38 141.16 254.85C140.91 255.38 140.69 255.96 140.5 256.57C140.02 257.93 139.78 259.34 139.78 260.77C139.78 260.9 139.78 261.03 139.78 261.16C139.78 261.36 139.78 261.57 139.78 261.78V263.35C139.48 262.28 139.07 261.21 138.55 260.15C137.37 257.74 135.56 255.49 133.17 253.45C130.83 251.45 127.93 249.86 124.56 248.71C121.29 247.6 117.48 247.04 113.22 247.04C107.94 247.04 103.2 247.87 99.1401 249.51C94.6701 251.32 91.1501 254.02 88.6801 257.54C87.3901 259.38 86.4201 261.37 85.7901 263.48V260.72C85.7901 260.48 85.7901 260.25 85.7801 260C85.7801 259.84 85.7901 259.67 85.7901 259.48C85.7901 256.84 84.9701 254.32 83.4201 252.18C83.0901 251.7 82.7501 251.28 82.3901 250.89C80.2101 248.56 77.3101 247.23 74.0201 247.07C73.8601 247.06 73.7001 247.05 73.5401 247.05H73.3101C73.3101 247.05 73.2301 247.05 73.2001 247.05H73.1201C69.6301 247.1 66.5701 248.45 64.2701 250.97C63.9401 251.33 63.6301 251.73 63.3201 252.17C61.7601 254.31 60.9401 256.83 60.9401 259.47C60.9401 259.66 60.9401 259.84 60.9501 259.99C60.9501 260.24 60.9401 260.48 60.9401 260.71V268.28C59.0601 262.9 56.0701 258.41 51.9501 254.88C48.8701 252.19 45.3801 250.33 41.5601 249.34C38.1901 248.47 34.1901 248.02 29.6701 248.02H14.3701C14.2001 248.02 14.0301 248.02 13.8701 248.02C12.4701 247.96 11.0501 248.16 9.69012 248.58C7.51012 249.16 5.67013 250.19 4.24013 251.63C2.80013 253.07 1.78012 254.9 1.19012 257.08C0.810125 258.31 0.620117 259.59 0.620117 260.87C0.620117 261 0.620117 261.13 0.620117 261.26C0.620117 261.42 0.620117 261.59 0.620117 261.76V304.26C0.620117 304.68 0.620121 305.09 0.640121 305.49C0.630121 305.73 0.620117 305.97 0.620117 306.21C0.620117 307.53 0.830118 308.84 1.23012 310.12C1.27012 310.29 1.31012 310.45 1.36012 310.6C2.15012 313.4 3.90012 315.68 6.42012 317.18C7.42012 317.78 8.58012 318.24 9.86012 318.56C11.0401 318.91 12.2501 319.08 13.4801 319.08C13.6201 319.08 13.7501 319.08 13.8901 319.07C14.1201 319.07 14.3601 319.08 14.6101 319.08H29.9101C32.9101 319.08 35.6701 318.88 38.1301 318.48C40.8201 318.05 43.3901 317.28 45.7601 316.19C48.2001 315.07 50.4701 313.58 52.5201 311.74L52.5801 311.69C55.0701 309.4 57.1501 306.75 58.7501 303.83C59.6001 302.28 60.3301 300.61 60.9401 298.86V306.35C60.9401 306.6 60.9401 306.84 60.9501 307.09C60.9501 307.26 60.9401 307.44 60.9401 307.63C60.9401 310.7 62.0701 313.64 64.1201 315.92C64.1801 315.99 64.2301 316.05 64.2801 316.1C64.3701 316.2 64.4701 316.3 64.5601 316.4C66.8401 318.75 69.7901 320.01 73.1101 320.06H73.3601C73.5901 320.06 73.8201 320.06 74.0501 320.03C77.3501 319.85 80.2401 318.52 82.4101 316.17C82.6201 315.94 82.7801 315.74 82.8701 315.62C84.7501 313.38 85.7901 310.55 85.7901 307.63C85.7901 307.44 85.7901 307.26 85.7801 307.09C85.7801 306.84 85.7901 306.59 85.7901 306.34V304.88C86.2201 305.77 86.7101 306.66 87.2701 307.55C89.4701 311.02 92.3701 313.83 95.9401 315.93C100.65 318.67 106.52 320.06 113.39 320.06C119.08 320.06 124.16 319.06 128.48 317.1C133.1 315 136.71 311.98 139.2 308.12C139.42 307.78 139.63 307.43 139.83 307.08C139.9 308.24 140.12 309.39 140.51 310.51C141.1 312.45 142.07 314.1 143.37 315.42C144.7 316.77 146.39 317.76 148.39 318.37C149.74 318.84 151.14 319.07 152.55 319.07C152.69 319.07 152.83 319.07 152.98 319.06C153.17 319.06 153.36 319.07 153.56 319.07H185.46C185.65 319.07 185.85 319.07 186.05 319.06C186.19 319.06 186.34 319.07 186.49 319.07C189.97 319.07 193.28 317.41 195.37 314.62C195.46 314.5 195.55 314.37 195.64 314.25C197.7 317.82 201.56 320.22 205.97 320.22C211.67 320.22 216.55 316.2 217.66 310.63C217.94 309.42 218.08 308.13 218.08 306.77V294.88L228.04 310.15L228.12 310.28C228.78 311.25 229.45 312.2 230.09 313.1C230.99 314.35 231.99 315.48 233.07 316.45C235.56 318.88 238.83 320.21 242.32 320.21C243.59 320.21 244.85 320.03 246.07 319.67C249.04 318.97 251.48 317.3 253.13 314.89C255.29 318.17 259 320.35 263.22 320.35C268.85 320.35 273.72 316.4 274.97 311C275.3 310.21 275.65 309.33 276.01 308.38L277.19 305.22H291.67L292.83 308.27L292.9 308.44C293.29 309.38 293.75 310.47 294.28 311.68C294.48 312.14 294.68 312.56 294.87 312.95C296.73 317.4 301.15 320.36 305.99 320.36C310.39 320.36 314.24 318 316.35 314.47C317.08 315.39 317.96 316.2 318.97 316.88C321.16 318.45 323.73 319.28 326.42 319.28C327.17 319.28 327.93 319.21 328.69 319.07H342.92C345.92 319.07 348.68 318.87 351.14 318.47C353.83 318.04 356.4 317.26 358.77 316.18C361.21 315.06 363.48 313.57 365.52 311.74L365.58 311.69C368.07 309.4 370.15 306.75 371.75 303.83C372.48 302.49 373.13 301.07 373.68 299.58C375.16 303.34 377.19 306.68 379.74 309.51C382.79 312.9 386.62 315.55 391.11 317.38C395.41 319.14 400.28 320.04 405.58 320.06C405.61 320.06 405.65 320.06 405.68 320.06H405.76C405.76 320.06 405.86 320.06 405.9 320.06C411.22 320.04 416.08 319.17 420.34 317.45C424.79 315.66 428.6 313.02 431.69 309.59C433.62 307.45 435.25 305.05 436.57 302.42C437.15 304.14 437.98 305.86 439.05 307.55C441.25 311.02 444.15 313.83 447.72 315.94C452.43 318.68 458.3 320.07 465.17 320.07C470.86 320.07 475.94 319.07 480.26 317.11C484.88 315.01 488.49 311.99 490.98 308.14C493.47 304.28 494.74 299.9 494.74 295.13C494.74 291.16 493.97 287.65 492.45 284.71V284.73ZM34.6601 295.48L34.5701 295.56C34.3301 295.77 34.0201 295.94 33.6201 296.09C32.9501 296.33 32.3201 296.48 31.7601 296.53C31.1501 296.59 29.9601 296.66 27.8001 296.66H25.4701V270.45H26.6601C29.5701 270.45 32.0101 270.75 33.9001 271.33C34.8301 271.62 35.7401 272.48 36.6001 273.9C37.2101 274.91 38.2401 277.48 38.2401 283.35C38.2401 287.52 37.6201 293 34.6701 295.5L34.6601 295.48ZM108.71 296.92C108.14 296.09 107.57 294.98 107.02 293.61C106.97 293.49 106.92 293.37 106.87 293.25C106.81 293.04 106.74 292.84 106.67 292.64C107.35 292.82 108.05 293 108.77 293.18C109.92 293.65 111.14 293.95 112.37 294.05C113.97 294.46 115.31 294.85 116.37 295.21C117.16 295.48 117.78 295.82 118.22 296.22C118.22 296.27 118.22 296.34 118.22 296.43C118.22 296.6 118.22 296.77 117.6 297.24C116.59 297.99 115.06 298.37 113.04 298.37C111.02 298.37 110.14 298.01 109.92 297.9C109.34 297.6 108.92 297.28 108.69 296.93L108.71 296.92ZM116.74 270.5C116.19 270.34 115.62 270.22 115.05 270.14C113.27 269.68 111.95 269.32 111.13 269.08C110.82 268.99 110.51 268.88 110.2 268.75C110.82 268.6 111.57 268.52 112.43 268.52C114.44 268.52 115.25 268.83 115.43 268.91C115.89 269.31 116.33 269.84 116.75 270.51L116.74 270.5ZM87.1101 288.27C86.6101 288.78 86.1701 289.32 85.7801 289.89V276.36C86.4001 278.45 87.3501 280.37 88.6101 282.09C89.4901 283.29 90.4901 284.4 91.5901 285.41C89.9101 285.99 88.3901 286.95 87.1101 288.27ZM135.08 278C137.26 276.57 138.93 274.44 139.79 271.93V283.23C138.53 281.22 136.96 279.47 135.08 278ZM185.45 296.67H164.66V293.31H181.49C182.13 293.42 182.77 293.48 183.41 293.48C188.32 293.48 192.5 290.27 193.96 285.84V299.59C191.79 297.65 188.94 296.67 185.46 296.67H185.45ZM193.95 266.67V278.91C192.49 274.48 188.32 271.27 183.4 271.27C183.03 271.27 182.67 271.29 182.29 271.33H164.65V270.22H184.54C184.67 270.22 184.8 270.22 184.93 270.22C185.22 270.24 185.51 270.26 185.79 270.26C189.01 270.26 191.92 268.88 193.95 266.68V266.67ZM231.99 256.52C231.86 257.18 231.77 257.86 231.75 258.54C231.7 259.14 231.67 259.74 231.67 260.34V272.98L221.17 257.09C220.54 256.09 219.93 255.14 219.34 254.22C219.28 254.12 219.21 254.03 219.15 253.93C219.21 253.84 219.29 253.75 219.35 253.66C219.66 253.8 220.01 253.95 220.39 254.12C222.28 254.96 223.78 255.56 224.97 255.94C226.56 256.45 228.16 256.71 229.73 256.71C230.51 256.71 231.26 256.65 231.99 256.53V256.52ZM460.52 296.93C459.95 296.11 459.38 294.99 458.83 293.62C458.78 293.5 458.74 293.38 458.69 293.27C458.63 293.06 458.56 292.85 458.49 292.65C459.17 292.84 459.88 293.02 460.59 293.19C461.74 293.66 462.96 293.95 464.19 294.06C465.79 294.47 467.13 294.86 468.19 295.22C468.98 295.49 469.6 295.83 470.04 296.23C470.04 296.28 470.04 296.35 470.04 296.44C470.04 296.61 470.04 296.78 469.42 297.25C468.41 298 466.88 298.38 464.86 298.38C462.84 298.38 461.96 298.02 461.74 297.91C461.16 297.61 460.74 297.28 460.51 296.94L460.52 296.93ZM462 268.75C462.62 268.6 463.37 268.52 464.23 268.52C466.24 268.52 467.05 268.83 467.23 268.91C467.69 269.31 468.13 269.84 468.55 270.51C468 270.35 467.43 270.23 466.86 270.15C465.08 269.69 463.76 269.33 462.94 269.09C462.63 269 462.32 268.89 462.01 268.76L462 268.75ZM443.4 285.42C442.39 285.77 441.44 286.26 440.56 286.88C440.63 285.77 440.67 284.65 440.67 283.51C440.67 283.14 440.67 282.78 440.66 282.42C441.48 283.5 442.39 284.51 443.4 285.42ZM414.05 292.2C413.12 294.15 412 295.51 410.61 296.34C409.12 297.23 407.51 297.67 405.69 297.67C404.26 297.67 403.01 297.43 401.88 296.93C400.8 296.45 399.85 295.72 398.97 294.7C398.06 293.64 397.31 292.2 396.75 290.42C396.12 288.4 395.8 286.06 395.8 283.44C395.8 280.82 396.12 278.55 396.74 276.59C397.3 274.82 398.02 273.41 398.88 272.4C399.68 271.46 400.6 270.77 401.69 270.29C402.84 269.78 404.1 269.53 405.53 269.53C407.58 269.53 409.31 269.98 410.8 270.92C412.22 271.81 413.31 273.16 414.15 275.06C415.14 277.32 415.65 280.14 415.65 283.45C415.65 287.03 415.11 289.98 414.05 292.22V292.2ZM347.69 295.5L347.6 295.58C347.36 295.79 347.05 295.96 346.65 296.11C345.98 296.35 345.35 296.5 344.79 296.55C344.18 296.61 342.99 296.68 340.83 296.68H338.5V270.47H339.69C342.6 270.47 345.04 270.77 346.93 271.35C347.86 271.64 348.77 272.5 349.63 273.92C350.24 274.93 351.27 277.5 351.27 283.37C351.27 287.54 350.65 293.02 347.7 295.52L347.69 295.5Z" fill="white"/>
<path d="M14.3399 254.59H29.6399C33.6199 254.59 37.0299 254.96 39.8799 255.7C42.7299 256.44 45.3099 257.82 47.6299 259.85C53.6599 265.02 56.6799 272.87 56.6799 283.41C56.6799 286.89 56.3799 290.06 55.7699 292.94C55.1599 295.81 54.2299 298.4 52.9599 300.71C51.6899 303.02 50.0699 305.08 48.0999 306.9C46.5399 308.3 44.8399 309.42 42.9999 310.26C41.1599 311.1 39.1699 311.7 37.0499 312.04C34.9299 312.38 32.5399 312.55 29.8699 312.55H14.5699C12.4399 312.55 10.8299 312.23 9.74991 311.58C8.66991 310.93 7.95991 310.03 7.63991 308.85C7.30991 307.68 7.1499 306.16 7.1499 304.28V261.78C7.1499 259.25 7.71991 257.42 8.84991 256.28C9.97991 255.15 11.8099 254.58 14.3499 254.58L14.3399 254.59ZM18.8899 263.88V303.21H27.7799C29.7299 303.21 31.2599 303.16 32.3699 303.05C33.4799 302.94 34.6199 302.68 35.8099 302.26C36.9999 301.84 38.0199 301.25 38.8899 300.48C42.8199 297.16 44.7799 291.44 44.7799 283.32C44.7799 277.6 43.9199 273.32 42.1899 270.47C40.4599 267.62 38.3399 265.81 35.8099 265.03C33.2799 264.25 30.2199 263.86 26.6399 263.86H18.8899V263.88Z" fill="#A1D469"/>
<path d="M67.48 306.38V260.72C67.48 258.35 68.02 256.57 69.1 255.38C70.18 254.19 71.58 253.6 73.29 253.6C75 253.6 76.49 254.19 77.58 255.36C78.67 256.53 79.22 258.32 79.22 260.72V306.38C79.22 308.78 78.67 310.57 77.58 311.76C76.49 312.95 75.06 313.54 73.29 313.54C71.52 313.54 70.21 312.94 69.12 311.74C68.03 310.54 67.48 308.76 67.48 306.38Z" fill="#A1D469"/>
<path d="M136.38 295.15C136.38 298.66 135.48 301.8 133.67 304.6C131.86 307.39 129.22 309.58 125.74 311.16C122.26 312.74 118.14 313.53 113.37 313.53C107.65 313.53 102.93 312.45 99.2201 310.29C96.5801 308.74 94.4401 306.66 92.8001 304.06C91.1501 301.46 90.3301 298.94 90.3301 296.49C90.3301 295.07 90.8201 293.85 91.8101 292.83C92.8001 291.81 94.0601 291.31 95.5901 291.31C96.8301 291.31 97.8801 291.71 98.7301 292.5C99.5901 293.29 100.32 294.46 100.92 296.02C101.66 297.86 102.46 299.41 103.31 300.65C104.17 301.89 105.37 302.91 106.93 303.71C108.48 304.51 110.53 304.92 113.06 304.92C116.54 304.92 119.37 304.11 121.54 302.49C123.71 300.87 124.8 298.85 124.8 296.42C124.8 294.5 124.21 292.93 123.04 291.74C121.87 290.54 120.35 289.63 118.49 288.99C116.63 288.36 114.15 287.69 111.04 286.97C106.88 285.99 103.39 284.86 100.58 283.55C97.7701 282.25 95.5501 280.47 93.9001 278.21C92.2501 275.96 91.4301 273.16 91.4301 269.81C91.4301 266.46 92.3001 263.79 94.0401 261.31C95.7801 258.83 98.3001 256.93 101.59 255.6C104.88 254.27 108.76 253.6 113.21 253.6C116.77 253.6 119.84 254.04 122.44 254.92C125.04 255.8 127.19 256.98 128.9 258.44C130.61 259.9 131.86 261.44 132.66 263.05C133.46 264.66 133.85 266.23 133.85 267.75C133.85 269.15 133.36 270.41 132.37 271.53C131.38 272.65 130.15 273.21 128.67 273.21C127.33 273.21 126.3 272.87 125.61 272.2C124.91 271.53 124.15 270.43 123.34 268.9C122.29 266.71 121.02 265.01 119.54 263.78C118.06 262.55 115.69 261.94 112.42 261.94C109.39 261.94 106.94 262.61 105.09 263.94C103.23 265.27 102.3 266.87 102.3 268.74C102.3 269.9 102.62 270.9 103.25 271.74C103.88 272.58 104.75 273.31 105.86 273.91C106.97 274.51 108.09 274.99 109.22 275.33C110.35 275.67 112.22 276.17 114.83 276.83C118.1 277.59 121.06 278.44 123.71 279.36C126.36 280.28 128.61 281.4 130.47 282.72C132.33 284.04 133.78 285.7 134.82 287.72C135.86 289.74 136.38 292.21 136.38 295.13V295.15Z" fill="#A1D469"/>
<path d="M184.53 263.64H158.08V277.87H182.43C184.22 277.87 185.56 278.27 186.44 279.08C187.32 279.88 187.76 280.94 187.76 282.26C187.76 283.58 187.33 284.65 186.46 285.48C185.59 286.31 184.25 286.73 182.43 286.73H158.08V303.22H185.44C187.28 303.22 188.68 303.65 189.61 304.5C190.55 305.36 191.01 306.5 191.01 307.92C191.01 309.34 190.54 310.4 189.61 311.26C188.67 312.12 187.28 312.54 185.44 312.54H153.54C150.98 312.54 149.15 311.97 148.03 310.84C146.91 309.71 146.35 307.88 146.35 305.34V261.78C146.35 260.09 146.6 258.72 147.1 257.65C147.6 256.58 148.38 255.81 149.45 255.32C150.52 254.83 151.88 254.59 153.54 254.59H184.53C186.4 254.59 187.79 255.01 188.7 255.84C189.61 256.67 190.06 257.76 190.06 259.1C190.06 260.44 189.61 261.57 188.7 262.4C187.79 263.23 186.4 263.65 184.53 263.65V263.64Z" fill="#A1D469"/>
<path d="M215.64 260.64L238.21 294.8V260.33C238.21 258.09 238.69 256.41 239.65 255.29C240.61 254.17 241.91 253.61 243.54 253.61C245.17 253.61 246.56 254.17 247.53 255.29C248.5 256.41 248.99 258.09 248.99 260.33V305.91C248.99 311 246.88 313.54 242.66 313.54C241.61 313.54 240.66 313.39 239.81 313.09C238.97 312.79 238.17 312.31 237.44 311.65C236.7 310.99 236.02 310.22 235.38 309.34C234.74 308.46 234.11 307.55 233.48 306.63L211.46 272.87V306.83C211.46 309.04 210.95 310.72 209.92 311.85C208.89 312.98 207.57 313.55 205.97 313.55C204.37 313.55 202.98 312.98 201.98 311.83C200.98 310.68 200.48 309.02 200.48 306.83V262.12C200.48 260.22 200.69 258.73 201.11 257.65C201.61 256.46 202.44 255.5 203.6 254.74C204.76 253.99 206.01 253.61 207.36 253.61C208.41 253.61 209.32 253.78 210.07 254.12C210.82 254.46 211.48 254.92 212.05 255.5C212.62 256.08 213.2 256.83 213.79 257.75C214.38 258.67 215 259.63 215.63 260.64H215.64ZM216.91 246.05C215.57 246.05 214.66 246.95 214.18 248.74C213.71 250.29 212.99 251.07 212.05 251.07C211.47 251.07 210.95 250.8 210.49 250.26C210.03 249.72 209.8 248.96 209.8 247.99C209.8 246.67 210.09 245.4 210.67 244.18C211.25 242.95 212.06 241.98 213.1 241.25C214.14 240.53 215.25 240.16 216.44 240.16C217.63 240.16 218.73 240.33 219.74 240.67C220.75 241.01 222.11 241.57 223.81 242.35C225.51 243.13 226.68 243.63 227.31 243.85C227.94 244.07 228.64 244.19 229.41 244.19C230.18 244.19 230.77 244 231.21 243.62C231.65 243.24 231.98 242.55 232.22 241.54C232.64 240.01 233.35 239.25 234.35 239.25C234.96 239.25 235.48 239.53 235.93 240.08C236.38 240.63 236.6 241.38 236.6 242.33C236.6 243.81 236.04 245.47 234.92 247.33C233.8 249.19 232.07 250.12 229.72 250.12C228.82 250.12 227.9 249.97 226.95 249.67C226 249.37 224.7 248.85 223.04 248.11C221.38 247.37 220.14 246.84 219.32 246.53C218.5 246.21 217.7 246.06 216.91 246.06V246.05Z" fill="#A1D469"/>
<path d="M298.94 305.98L296.17 298.71H272.61L269.84 306.14C268.76 309.04 267.84 311 267.07 312.01C266.3 313.02 265.05 313.53 263.31 313.53C261.83 313.53 260.53 312.99 259.4 311.91C258.27 310.83 257.7 309.6 257.7 308.23C257.7 307.44 257.83 306.62 258.1 305.78C258.36 304.94 258.8 303.76 259.4 302.26L274.22 264.62C274.64 263.54 275.15 262.24 275.74 260.73C276.33 259.22 276.97 257.96 277.64 256.95C278.31 255.95 279.19 255.14 280.29 254.52C281.38 253.9 282.73 253.59 284.34 253.59C285.95 253.59 287.34 253.9 288.43 254.52C289.52 255.14 290.41 255.94 291.08 256.91C291.75 257.88 292.32 258.93 292.78 260.05C293.24 261.17 293.83 262.67 294.54 264.54L309.68 301.94C310.87 304.79 311.46 306.86 311.46 308.15C311.46 309.44 310.9 310.73 309.78 311.85C308.66 312.97 307.31 313.53 305.73 313.53C304.81 313.53 304.02 313.37 303.36 313.04C302.7 312.71 302.15 312.26 301.7 311.7C301.25 311.13 300.77 310.26 300.26 309.09C299.75 307.92 299.3 306.88 298.94 305.99V305.98ZM275.69 289.89H293.01L284.27 265.97L275.69 289.89Z" fill="#A1D469"/>
<path d="M327.36 254.59H342.66C346.64 254.59 350.05 254.96 352.9 255.7C355.75 256.44 358.33 257.82 360.65 259.85C366.68 265.02 369.7 272.87 369.7 283.41C369.7 286.89 369.4 290.06 368.79 292.94C368.18 295.81 367.25 298.4 365.98 300.71C364.71 303.02 363.09 305.08 361.12 306.9C359.56 308.3 357.86 309.42 356.02 310.26C354.18 311.1 352.19 311.7 350.07 312.04C347.95 312.38 345.56 312.55 342.89 312.55H327.59C325.46 312.55 323.85 312.23 322.77 311.58C321.69 310.93 320.98 310.03 320.66 308.85C320.33 307.68 320.17 306.16 320.17 304.28V261.78C320.17 259.25 320.74 257.42 321.87 256.28C323 255.15 324.83 254.58 327.37 254.58L327.36 254.59ZM331.91 263.88V303.21H340.8C342.75 303.21 344.28 303.16 345.39 303.05C346.5 302.94 347.64 302.68 348.83 302.26C350.02 301.84 351.04 301.25 351.91 300.48C355.84 297.16 357.8 291.44 357.8 283.32C357.8 277.6 356.94 273.32 355.21 270.47C353.48 267.62 351.36 265.81 348.83 265.03C346.3 264.25 343.24 263.86 339.66 263.86H331.91V263.88Z" fill="#A1D469"/>
<path d="M405.52 253.6C411.53 253.6 416.69 254.82 421 257.26C425.31 259.7 428.57 263.16 430.78 267.66C432.99 272.15 434.1 277.43 434.1 283.49C434.1 287.97 433.49 292.04 432.28 295.71C431.07 299.37 429.25 302.55 426.82 305.24C424.39 307.93 421.42 309.98 417.89 311.41C414.36 312.83 410.31 313.54 405.75 313.54C401.19 313.54 397.16 312.81 393.57 311.35C389.99 309.89 386.99 307.83 384.6 305.16C382.2 302.5 380.39 299.3 379.16 295.55C377.93 291.8 377.32 287.76 377.32 283.41C377.32 279.06 377.96 274.87 379.24 271.15C380.52 267.43 382.37 264.27 384.79 261.66C387.21 259.05 390.17 257.05 393.65 255.67C397.13 254.29 401.08 253.59 405.51 253.59L405.52 253.6ZM422.2 283.41C422.2 279.17 421.51 275.49 420.14 272.38C418.77 269.27 416.81 266.92 414.27 265.32C411.73 263.73 408.81 262.93 405.51 262.93C403.16 262.93 401 263.37 399.01 264.25C397.02 265.13 395.31 266.42 393.87 268.1C392.43 269.79 391.3 271.94 390.47 274.56C389.64 277.18 389.22 280.13 389.22 283.4C389.22 286.67 389.64 289.67 390.47 292.33C391.3 294.99 392.47 297.2 393.99 298.95C395.51 300.7 397.24 302.01 399.21 302.88C401.17 303.75 403.33 304.18 405.67 304.18C408.67 304.18 411.44 303.43 413.95 301.93C416.47 300.43 418.47 298.11 419.96 294.97C421.45 291.83 422.19 287.97 422.19 283.39L422.2 283.41Z" fill="#A1D469"/>
<path d="M488.18 295.15C488.18 298.66 487.28 301.8 485.47 304.6C483.66 307.39 481.02 309.58 477.54 311.16C474.06 312.74 469.94 313.53 465.17 313.53C459.45 313.53 454.73 312.45 451.02 310.29C448.39 308.74 446.24 306.66 444.6 304.06C442.95 301.46 442.13 298.94 442.13 296.49C442.13 295.07 442.62 293.85 443.61 292.83C444.6 291.81 445.86 291.31 447.39 291.31C448.63 291.31 449.68 291.71 450.53 292.5C451.39 293.29 452.12 294.46 452.72 296.02C453.46 297.86 454.26 299.41 455.11 300.65C455.96 301.89 457.17 302.91 458.73 303.71C460.29 304.51 462.33 304.92 464.86 304.92C468.34 304.92 471.17 304.11 473.34 302.49C475.51 300.87 476.6 298.85 476.6 296.42C476.6 294.5 476.01 292.93 474.84 291.74C473.67 290.55 472.15 289.63 470.29 288.99C468.43 288.36 465.95 287.69 462.84 286.97C458.68 285.99 455.19 284.86 452.38 283.55C449.57 282.25 447.35 280.47 445.7 278.21C444.05 275.96 443.23 273.16 443.23 269.81C443.23 266.46 444.1 263.79 445.84 261.31C447.58 258.83 450.1 256.93 453.39 255.6C456.68 254.27 460.56 253.6 465.01 253.6C468.57 253.6 471.64 254.04 474.24 254.92C476.84 255.8 478.99 256.98 480.7 258.44C482.41 259.9 483.66 261.44 484.46 263.05C485.26 264.66 485.65 266.23 485.65 267.75C485.65 269.15 485.16 270.41 484.17 271.53C483.18 272.65 481.95 273.21 480.47 273.21C479.13 273.21 478.1 272.87 477.41 272.2C476.72 271.53 475.95 270.43 475.14 268.9C474.09 266.71 472.82 265.01 471.34 263.78C469.86 262.55 467.49 261.94 464.22 261.94C461.19 261.94 458.74 262.61 456.89 263.94C455.03 265.27 454.1 266.87 454.1 268.74C454.1 269.9 454.42 270.9 455.05 271.74C455.68 272.58 456.55 273.31 457.66 273.91C458.77 274.51 459.89 274.99 461.02 275.33C462.15 275.67 464.02 276.17 466.63 276.83C469.9 277.59 472.86 278.44 475.51 279.36C478.16 280.28 480.41 281.4 482.27 282.72C484.13 284.04 485.58 285.7 486.62 287.72C487.66 289.74 488.18 292.21 488.18 295.13V295.15Z" fill="#A1D469"/>
<path d="M73.35 265.34C76.5919 265.34 79.22 262.712 79.22 259.47C79.22 256.228 76.5919 253.6 73.35 253.6C70.1081 253.6 67.48 256.228 67.48 259.47C67.48 262.712 70.1081 265.34 73.35 265.34Z" fill="#7ABE50"/>
<path d="M128.62 273.35C131.509 273.35 133.85 271.008 133.85 268.12C133.85 265.232 131.509 262.89 128.62 262.89C125.732 262.89 123.39 265.232 123.39 268.12C123.39 271.008 125.732 273.35 128.62 273.35Z" fill="#7ABE50"/>
<path d="M185.78 263.67C188.288 263.67 190.32 261.637 190.32 259.13C190.32 256.623 188.288 254.59 185.78 254.59C183.273 254.59 181.24 256.623 181.24 259.13C181.24 261.637 183.273 263.67 185.78 263.67Z" fill="#7ABE50"/>
<path d="M183.39 286.9C185.897 286.9 187.93 284.867 187.93 282.36C187.93 279.853 185.897 277.82 183.39 277.82C180.883 277.82 178.85 279.853 178.85 282.36C178.85 284.867 180.883 286.9 183.39 286.9Z" fill="#7ABE50"/>
<path d="M186.47 312.54C188.978 312.54 191.01 310.507 191.01 308C191.01 305.493 188.978 303.46 186.47 303.46C183.963 303.46 181.93 305.493 181.93 308C181.93 310.507 183.963 312.54 186.47 312.54Z" fill="#7ABE50"/>
<path d="M113.35 287.51C116.371 287.51 118.82 285.061 118.82 282.04C118.82 279.019 116.371 276.57 113.35 276.57C110.329 276.57 107.88 279.019 107.88 282.04C107.88 285.061 110.329 287.51 113.35 287.51Z" fill="#7ABE50"/>
<path d="M95.5601 301.79C98.4485 301.79 100.79 299.448 100.79 296.56C100.79 293.672 98.4485 291.33 95.5601 291.33C92.6716 291.33 90.3301 293.672 90.3301 296.56C90.3301 299.448 92.6716 301.79 95.5601 301.79Z" fill="#7ABE50"/>
<path d="M480.42 273.35C483.308 273.35 485.65 271.008 485.65 268.12C485.65 265.232 483.308 262.89 480.42 262.89C477.531 262.89 475.19 265.232 475.19 268.12C475.19 271.008 477.531 273.35 480.42 273.35Z" fill="#7ABE50"/>
<path d="M465.15 287.51C468.171 287.51 470.62 285.061 470.62 282.04C470.62 279.019 468.171 276.57 465.15 276.57C462.129 276.57 459.68 279.019 459.68 282.04C459.68 285.061 462.129 287.51 465.15 287.51Z" fill="#7ABE50"/>
<path d="M447.36 301.79C450.248 301.79 452.59 299.448 452.59 296.56C452.59 293.672 450.248 291.33 447.36 291.33C444.471 291.33 442.13 293.672 442.13 296.56C442.13 299.448 444.471 301.79 447.36 301.79Z" fill="#7ABE50"/>
<path d="M13.4501 267.21C16.9351 267.21 19.7601 264.385 19.7601 260.9C19.7601 257.415 16.9351 254.59 13.4501 254.59C9.96522 254.59 7.14014 257.415 7.14014 260.9C7.14014 264.385 9.96522 267.21 13.4501 267.21Z" fill="#7ABE50"/>
<path d="M13.4501 312.55C16.9351 312.55 19.7601 309.725 19.7601 306.24C19.7601 302.755 16.9351 299.93 13.4501 299.93C9.96522 299.93 7.14014 302.755 7.14014 306.24C7.14014 309.725 9.96522 312.55 13.4501 312.55Z" fill="#7ABE50"/>
<path d="M73.35 313.53C76.5919 313.53 79.22 310.902 79.22 307.66C79.22 304.418 76.5919 301.79 73.35 301.79C70.1081 301.79 67.48 304.418 67.48 307.66C67.48 310.902 70.1081 313.53 73.35 313.53Z" fill="#7ABE50"/>
<path d="M152.53 266.97C155.949 266.97 158.72 264.199 158.72 260.78C158.72 257.361 155.949 254.59 152.53 254.59C149.112 254.59 146.34 257.361 146.34 260.78C146.34 264.199 149.112 266.97 152.53 266.97Z" fill="#7ABE50"/>
<path d="M152.53 312.55C155.949 312.55 158.72 309.779 158.72 306.36C158.72 302.941 155.949 300.17 152.53 300.17C149.112 300.17 146.34 302.941 146.34 306.36C146.34 309.779 149.112 312.55 152.53 312.55Z" fill="#7ABE50"/>
<path d="M243.65 264.25C246.61 264.25 249.01 261.85 249.01 258.89C249.01 255.93 246.61 253.53 243.65 253.53C240.69 253.53 238.29 255.93 238.29 258.89C238.29 261.85 240.69 264.25 243.65 264.25Z" fill="#7ABE50"/>
<path d="M205.95 313.7C208.911 313.7 211.31 311.3 211.31 308.34C211.31 305.38 208.911 302.98 205.95 302.98C202.99 302.98 200.59 305.38 200.59 308.34C200.59 311.3 202.99 313.7 205.95 313.7Z" fill="#7ABE50"/>
<path d="M207.29 266.94C210.991 266.94 213.99 263.94 213.99 260.24C213.99 256.54 210.991 253.54 207.29 253.54C203.59 253.54 200.59 256.54 200.59 260.24C200.59 263.94 203.59 266.94 207.29 266.94Z" fill="#7ABE50"/>
<path d="M242.31 313.7C246.011 313.7 249.01 310.7 249.01 307C249.01 303.3 246.011 300.3 242.31 300.3C238.61 300.3 235.61 303.3 235.61 307C235.61 310.7 238.61 313.7 242.31 313.7Z" fill="#7ABE50"/>
<path d="M234.4 243.72C235.609 243.72 236.59 242.739 236.59 241.53C236.59 240.32 235.609 239.34 234.4 239.34C233.19 239.34 232.21 240.32 232.21 241.53C232.21 242.739 233.19 243.72 234.4 243.72Z" fill="#7ABE50"/>
<path d="M211.99 251.07C213.2 251.07 214.18 250.089 214.18 248.88C214.18 247.67 213.2 246.69 211.99 246.69C210.781 246.69 209.8 247.67 209.8 248.88C209.8 250.089 210.781 251.07 211.99 251.07Z" fill="#7ABE50"/>
<path d="M326.4 267.05C329.841 267.05 332.63 264.261 332.63 260.82C332.63 257.379 329.841 254.59 326.4 254.59C322.959 254.59 320.17 257.379 320.17 260.82C320.17 264.261 322.959 267.05 326.4 267.05Z" fill="#7ABE50"/>
<path d="M326.4 312.75C329.841 312.75 332.63 309.961 332.63 306.52C332.63 303.079 329.841 300.29 326.4 300.29C322.959 300.29 320.17 303.079 320.17 306.52C320.17 309.961 322.959 312.75 326.4 312.75Z" fill="#7ABE50"/>
<path d="M263.21 313.83C266.248 313.83 268.71 311.368 268.71 308.33C268.71 305.292 266.248 302.83 263.21 302.83C260.172 302.83 257.71 305.292 257.71 308.33C257.71 311.368 260.172 313.83 263.21 313.83Z" fill="#7ABE50"/>
<path d="M305.97 313.83C309.008 313.83 311.47 311.368 311.47 308.33C311.47 305.292 309.008 302.83 305.97 302.83C302.933 302.83 300.47 305.292 300.47 308.33C300.47 311.368 302.933 313.83 305.97 313.83Z" fill="#7ABE50"/>
<path d="M301.69 298.45C304.054 298.45 305.97 296.534 305.97 294.17C305.97 291.806 304.054 289.89 301.69 289.89C299.326 289.89 297.41 291.806 297.41 294.17C297.41 296.534 299.326 298.45 301.69 298.45Z" fill="#7ABE50"/>
<path d="M267.49 298.45C269.854 298.45 271.77 296.534 271.77 294.17C271.77 291.806 269.854 289.89 267.49 289.89C265.126 289.89 263.21 291.806 263.21 294.17C263.21 296.534 265.126 298.45 267.49 298.45Z" fill="#7ABE50"/>
<path d="M284.35 265.97C287.824 265.97 290.64 263.154 290.64 259.68C290.64 256.206 287.824 253.39 284.35 253.39C280.876 253.39 278.06 256.206 278.06 259.68C278.06 263.154 280.876 265.97 284.35 265.97Z" fill="#7ABE50"/>
<path d="M405.72 262.93C408.294 262.93 410.38 260.844 410.38 258.27C410.38 255.696 408.294 253.61 405.72 253.61C403.146 253.61 401.06 255.696 401.06 258.27C401.06 260.844 403.146 262.93 405.72 262.93Z" fill="#7ABE50"/>
<path d="M405.72 313.53C408.294 313.53 410.38 311.444 410.38 308.87C410.38 306.296 408.294 304.21 405.72 304.21C403.146 304.21 401.06 306.296 401.06 308.87C401.06 311.444 403.146 313.53 405.72 313.53Z" fill="#7ABE50"/>
</svg>
