<svg width="175" height="173" viewBox="0 0 175 173" fill="none" xmlns="http://www.w3.org/2000/svg">
<g clip-path="url(#clip0_206_2)">
<path d="M166.43 45.6499C166.43 45.6499 161.35 32.3199 153.6 24.9299C153.29 24.6199 153.93 22.0899 153.95 21.5699C154.04 19.4799 153.62 17.3599 152.81 15.4199C148.89 6.0699 134.44 -0.460098 125.55 5.1499C124.3 5.9399 121.33 7.9999 120.35 9.9899C110.57 4.3699 99.2301 1.1499 87.1401 1.1499C75.0501 1.1499 63.5501 4.4099 53.7301 10.0999C52.8201 8.0699 49.7501 5.9499 48.4801 5.1399C39.5901 -0.470098 25.1401 6.0599 21.2201 15.4099C20.4101 17.3399 19.9901 19.4599 20.0801 21.5599C20.1101 22.0799 20.7501 24.6199 20.4401 24.9199C12.6901 32.3099 7.61007 45.6399 7.61007 45.6399C7.61007 45.6399 -7.88993 89.5399 9.20007 121.41C21.4001 144.15 35.5201 152.29 42.6001 155.09C43.7901 157.82 45.0201 160.52 46.2601 163.16C58.8701 168.28 72.6601 171.11 87.1201 171.11C101.58 171.11 115.41 168.28 128.03 163.13C129.29 160.47 130.53 157.74 131.74 154.97C138.92 152.06 152.81 143.84 164.83 121.41C181.93 89.5299 166.43 45.6399 166.43 45.6399V45.6499ZM12.3901 70.0399C13.4901 59.2099 16.8501 48.4999 22.6801 39.2599C26.3801 33.3799 31.0501 28.8699 36.1901 24.8299C26.3601 36.4499 20.4401 51.4599 20.4401 67.8699C20.1801 87.8399 26.9401 115.21 36.8801 141.13C15.1801 126.51 9.90007 94.4799 12.3901 70.0399ZM137.49 140.9C147.38 115.05 154.11 87.7799 153.84 67.8699C153.84 51.7499 148.13 36.9699 138.61 25.4399C143.45 29.3199 147.83 33.6699 151.35 39.2599C157.17 48.4999 160.53 59.2099 161.64 70.0399C164.12 94.3499 158.9 126.18 137.48 140.9H137.49Z" fill="#E20A17" stroke="#9C1109" stroke-width="2.33" stroke-miterlimit="10"/>
<path d="M60.8599 75.31C66.6147 75.31 71.2799 70.6448 71.2799 64.89C71.2799 59.1352 66.6147 54.47 60.8599 54.47C55.1051 54.47 50.4399 59.1352 50.4399 64.89C50.4399 70.6448 55.1051 75.31 60.8599 75.31Z" fill="#F6F6F6" stroke="#C6C6C6" stroke-miterlimit="10"/>
<path d="M60.8601 70.2799C63.6546 70.2799 65.92 68.0145 65.92 65.2199C65.92 62.4254 63.6546 60.1599 60.8601 60.1599C58.0655 60.1599 55.8 62.4254 55.8 65.2199C55.8 68.0145 58.0655 70.2799 60.8601 70.2799Z" fill="#0D181C" stroke="#0D181C" stroke-width="2.33" stroke-miterlimit="10"/>
<path d="M112.65 75.31C118.405 75.31 123.07 70.6448 123.07 64.89C123.07 59.1352 118.405 54.47 112.65 54.47C106.895 54.47 102.23 59.1352 102.23 64.89C102.23 70.6448 106.895 75.31 112.65 75.31Z" fill="#F6F6F6" stroke="#C6C6C6" stroke-miterlimit="10"/>
<path d="M112.65 70.2799C115.445 70.2799 117.71 68.0145 117.71 65.2199C117.71 62.4254 115.445 60.1599 112.65 60.1599C109.856 60.1599 107.59 62.4254 107.59 65.2199C107.59 68.0145 109.856 70.2799 112.65 70.2799Z" fill="#0D181C" stroke="#0D181C" stroke-width="2.33" stroke-miterlimit="10"/>
<path d="M120.35 10C127.33 14.03 133.51 19.27 138.61 25.44Z" fill="#E20A17"/>
<path d="M120.35 10C127.33 14.03 133.51 19.27 138.61 25.44" stroke="#9C1109" stroke-width="2.33" stroke-miterlimit="10"/>
<path d="M36.1899 24.8301C41.1299 18.9701 47.0699 13.9901 53.7299 10.1101Z" fill="#E20A17"/>
<path d="M36.1899 24.8301C41.1299 18.9701 47.0699 13.9901 53.7299 10.1101" stroke="#9C1109" stroke-width="2.33" stroke-miterlimit="10"/>
<path d="M64.8299 91.22C62.5199 92.39 60.5899 93.62 59.3199 95.95C58.5099 97.44 58.0099 99.08 57.5599 100.72C56.0599 106.23 55.0899 111.95 52.5099 117.04C51.6499 118.75 50.5799 120.4 49.0399 121.54C47.2099 122.89 44.2899 123.57 42.6599 121.64" fill="#E20A17"/>
<path d="M64.8299 91.22C62.5199 92.39 60.5899 93.62 59.3199 95.95C58.5099 97.44 58.0099 99.08 57.5599 100.72C56.0599 106.23 55.0899 111.95 52.5099 117.04C51.6499 118.75 50.5799 120.4 49.0399 121.54C47.2099 122.89 44.2899 123.57 42.6599 121.64" stroke="#9C1109" stroke-width="2.33" stroke-miterlimit="10"/>
<path d="M106.11 96.61C104.08 93.15 101.22 90.09 97.8899 87.85C96.1899 86.71 94.3299 85.77 92.3599 85.19C90.0799 84.52 87.1499 84.43 84.7799 84.6C82.4099 84.77 80.1499 85.54 78.0699 86.64C73.8799 88.86 70.3199 92.43 67.8999 96.5C67.8799 96.54 67.8599 96.58 67.8299 96.61C64.5599 102.19 63.4699 109.01 64.8299 115.34C65.2799 117.41 65.9999 119.47 67.3099 121.14C69.1999 123.56 72.1399 124.94 75.1299 125.62C79.1199 126.52 83.2299 126.59 87.2999 126.58C91.1499 126.58 95.0399 126.47 98.8099 125.62C101.8 124.95 104.74 123.56 106.63 121.14C107.94 119.47 108.66 117.41 109.11 115.34C110.47 109.02 109.37 102.2 106.11 96.61ZM98.8799 112.95C97.5799 114.81 95.3899 115.9 93.1499 116.34C91.1199 116.73 89.0399 116.65 86.9799 116.52C84.8999 116.66 82.8199 116.73 80.7899 116.34C78.5599 115.91 76.3599 114.82 75.0599 112.95C73.7099 111 73.4899 108.47 73.6699 106.11C73.8499 103.85 74.3599 101.58 75.4399 99.58C77.6299 95.52 82.2999 93.34 86.7999 93.3H87.1199C91.6199 93.34 96.2999 95.52 98.4799 99.58C99.5599 101.58 100.08 103.84 100.25 106.11C100.44 108.47 100.22 111 98.8599 112.95H98.8799Z" fill="#A01C18" stroke="#82170F" stroke-width="2.33" stroke-miterlimit="10"/>
<path d="M98.88 112.95C97.58 114.81 95.39 115.9 93.15 116.34C91.12 116.73 89.04 116.65 86.98 116.52C84.9 116.66 82.82 116.73 80.79 116.34C78.56 115.91 76.36 114.82 75.06 112.95C73.71 111 73.49 108.47 73.67 106.11C73.85 103.85 74.36 101.58 75.44 99.58C77.63 95.52 82.3 93.34 86.8 93.3H87.12C91.62 93.34 96.3 95.52 98.48 99.58C99.56 101.58 100.08 103.84 100.25 106.11C100.44 108.47 100.22 111 98.86 112.95H98.88Z" fill="#E20A17" stroke="#9C1109" stroke-width="2.33" stroke-miterlimit="10"/>
<path d="M109.12 91.22C111.43 92.39 113.36 93.62 114.63 95.95C115.44 97.44 115.94 99.08 116.39 100.72C117.89 106.23 118.86 111.95 121.44 117.04C122.3 118.75 123.37 120.4 124.91 121.54C126.74 122.89 129.66 123.57 131.29 121.64" fill="#E20A17"/>
<path d="M109.12 91.22C111.43 92.39 113.36 93.62 114.63 95.95C115.44 97.44 115.94 99.08 116.39 100.72C117.89 106.23 118.86 111.95 121.44 117.04C122.3 118.75 123.37 120.4 124.91 121.54C126.74 122.89 129.66 123.57 131.29 121.64" stroke="#9C1109" stroke-width="2.33" stroke-miterlimit="10"/>
<path d="M73.68 106.11C73.85 103.85 74.37 101.58 75.45 99.58C77.64 95.52 82.31 93.34 86.81 93.3H87.13C91.63 93.34 96.31 95.52 98.49 99.58C99.57 101.58 100.08 103.84 100.26 106.11C100.45 108.47 100.23 111 98.87 112.95C97.57 114.81 95.37 115.9 93.14 116.34C91.11 116.73 89.03 116.65 86.95 116.52C84.89 116.66 82.8 116.73 80.78 116.34C78.54 115.91 76.35 114.82 75.05 112.95C73.7 111 73.48 108.47 73.66 106.11H73.68Z" fill="#5A170B" stroke="#451002" stroke-width="2.33" stroke-miterlimit="10"/>
</g>
<defs>
<clipPath id="clip0_206_2">
<rect width="174.03" height="172.29" fill="white"/>
</clipPath>
</defs>
</svg>
