<svg width="217" height="209" viewBox="0 0 217 209" fill="none" xmlns="http://www.w3.org/2000/svg">
<g clip-path="url(#clip0_231_3)">
<path d="M209.98 129.51C205.87 144.61 196.97 157.94 186.12 169.05C176.71 178.68 166.27 186.93 153.56 190.96C152.27 193.94 150.94 196.88 149.58 199.74C136.84 204.93 122.9 207.79 108.29 207.79C93.6799 207.79 79.7899 204.94 67.0599 199.76C65.6999 196.88 64.3699 193.92 63.0699 190.94C50.3699 186.9 39.9399 178.66 30.5499 169.04C19.6999 157.93 10.7899 144.6 6.6899 129.5C1.9599 112.1 0.239904 93.8799 1.6299 75.8899C2.9799 58.5199 8.3399 43.4899 17.9599 28.9399C35.1199 2.97993 84.2099 -12.7201 104.5 18.2999C107.79 23.3199 108.72 29.2499 102.89 32.8299C94.7699 37.8399 82.9799 31.6599 84.6199 21.6699C84.8199 20.4899 85.1599 19.1999 84.5899 18.1499C84.1399 17.2899 83.2099 16.8199 82.3099 16.4599C62.6999 8.65993 40.8699 23.5999 28.7399 37.7799C1.8399 69.2299 23.0899 129.92 23.0899 129.92C23.0899 129.92 29.9299 158.7 56.7799 175.38C47.1999 149.86 40.7499 123.18 41.0099 103.57C41.0099 66.3899 71.1399 36.2499 108.32 36.2499C145.5 36.2499 175.64 66.3899 175.64 103.57C175.9 123.19 169.44 149.87 159.84 175.4C186.73 158.72 193.57 129.91 193.57 129.91C193.57 129.91 214.82 69.2199 187.92 37.7699C175.8 23.5899 153.97 8.64993 134.35 16.4499C133.45 16.8099 132.52 17.2799 132.06 18.1399C131.5 19.1999 131.83 20.4799 132.03 21.6599C133.68 31.6499 121.89 37.8199 113.77 32.8199C107.94 29.2399 108.88 23.3099 112.16 18.2899C132.45 -12.7301 181.54 2.97993 198.7 28.9299C208.32 43.4799 213.67 58.5099 215.03 75.8799C216.42 93.8699 214.71 112.09 209.97 129.51H209.98Z" fill="#E20A17" stroke="#9C1109" stroke-width="2.33" stroke-miterlimit="10"/>
<path d="M81.3299 107.16C80.3099 107.2 79.2799 106.83 78.2699 105.83C76.6299 104.2 75.3799 101.8 75.1199 99.4901C74.9699 98.1401 75.5599 96.4401 76.4699 95.4501C76.9199 94.9501 77.4999 94.5901 78.1999 94.6601C79.6399 94.8101 79.7399 96.8101 81.1899 96.9601C82.0499 97.0501 82.6999 96.3401 83.4099 95.9601C84.0199 95.6301 84.7099 95.4001 85.4099 95.3701C86.8799 95.3001 88.0199 96.1401 88.3899 97.5701C88.9299 99.6701 88.0099 101.98 86.6999 103.61C85.3099 105.33 83.3699 107.09 81.3399 107.17L81.3299 107.16Z" fill="#0D181C" stroke="#0D181C" stroke-width="2.33" stroke-miterlimit="10"/>
<path d="M86.33 127.21C84.18 128.1 82.34 128.95 80.83 130.79C79.42 132.51 78.47 134.57 77.73 136.65C76.9 139 76.29 141.43 75.36 143.75C74.53 145.82 73.57 148.26 71.61 149.52C70.25 150.4 68.48 150.67 66.9 150.56C63.57 150.32 59.94 148.34 58.75 145.07C57.88 142.67 58.32 136.99 61.73 136.59C63.14 136.43 63.4 137.96 63.62 139.01C63.79 139.81 63.79 140.22 64.62 139.66C65.32 139.19 65.81 138.47 66.68 138.3C69 137.85 69.58 141.48 68.54 142.89C67.34 144.51 64.91 145.02 63.07 145.48" fill="#E20A17"/>
<path d="M86.33 127.21C84.18 128.1 82.34 128.95 80.83 130.79C79.42 132.51 78.47 134.57 77.73 136.65C76.9 139 76.29 141.43 75.36 143.75C74.53 145.82 73.57 148.26 71.61 149.52C70.25 150.4 68.48 150.67 66.9 150.56C63.57 150.32 59.94 148.34 58.75 145.07C57.88 142.67 58.32 136.99 61.73 136.59C63.14 136.43 63.4 137.96 63.62 139.01C63.79 139.81 63.79 140.22 64.62 139.66C65.32 139.19 65.81 138.47 66.68 138.3C69 137.85 69.58 141.48 68.54 142.89C67.34 144.51 64.91 145.02 63.07 145.48" stroke="#9C1109" stroke-width="2.33" stroke-miterlimit="10"/>
<path d="M135.34 107.16C136.36 107.2 137.39 106.83 138.4 105.83C140.04 104.2 141.29 101.8 141.55 99.4901C141.7 98.1401 141.11 96.4401 140.2 95.4501C139.75 94.9501 139.17 94.5901 138.47 94.6601C137.03 94.8101 136.93 96.8101 135.48 96.9601C134.62 97.0501 133.97 96.3401 133.26 95.9601C132.65 95.6301 131.96 95.4001 131.26 95.3701C129.79 95.3001 128.65 96.1401 128.28 97.5701C127.74 99.6701 128.66 101.98 129.97 103.61C131.36 105.33 133.3 107.09 135.33 107.17L135.34 107.16Z" fill="#0D181C" stroke="#0D181C" stroke-width="2.33" stroke-miterlimit="10"/>
<path d="M130.33 127.21C132.48 128.1 134.32 128.95 135.83 130.79C137.24 132.51 138.19 134.57 138.93 136.65C139.76 139 140.37 141.43 141.3 143.75C142.13 145.82 143.09 148.26 145.05 149.52C146.41 150.4 148.18 150.67 149.76 150.56C153.09 150.32 156.72 148.34 157.91 145.07C158.78 142.67 158.34 136.99 154.93 136.59C153.52 136.43 153.26 137.96 153.04 139.01C152.87 139.81 152.87 140.22 152.04 139.66C151.34 139.19 150.85 138.47 149.98 138.3C147.66 137.85 147.08 141.48 148.12 142.89C149.32 144.51 151.75 145.02 153.59 145.48" fill="#E20A17"/>
<path d="M130.33 127.21C132.48 128.1 134.32 128.95 135.83 130.79C137.24 132.51 138.19 134.57 138.93 136.65C139.76 139 140.37 141.43 141.3 143.75C142.13 145.82 143.09 148.26 145.05 149.52C146.41 150.4 148.18 150.67 149.76 150.56C153.09 150.32 156.72 148.34 157.91 145.07C158.78 142.67 158.34 136.99 154.93 136.59C153.52 136.43 153.26 137.96 153.04 139.01C152.87 139.81 152.87 140.22 152.04 139.66C151.34 139.19 150.85 138.47 149.98 138.3C147.66 137.85 147.08 141.48 148.12 142.89C149.32 144.51 151.75 145.02 153.59 145.48" stroke="#9C1109" stroke-width="2.33" stroke-miterlimit="10"/>
<path d="M108.36 160.38C113.01 159.25 117.51 157.33 121.28 154.37C125.05 151.41 128.04 147.39 129.38 142.8C130.48 139.03 130.4 134.8 128.55 131.34C127.4 129.19 125.62 127.42 123.56 126.11C120.68 124.29 117.73 124.27 114.67 125.73C113.44 126.32 112.29 127.05 111.12 127.74C110.36 128.19 109.4 128.94 108.52 129.09C107.69 129.23 106.57 128.34 105.89 127.95C104.6 127.19 103.34 126.38 101.99 125.73C98.9301 124.27 95.9801 124.28 93.1001 126.11C91.0401 127.41 89.2601 129.19 88.1101 131.34C86.2601 134.8 86.1801 139.03 87.2801 142.8C88.6201 147.39 91.6201 151.42 95.3801 154.37C99.1401 157.32 103.65 159.25 108.3 160.38" fill="#A01C18"/>
<path d="M108.36 160.38C113.01 159.25 117.51 157.33 121.28 154.37C125.05 151.41 128.04 147.39 129.38 142.8C130.48 139.03 130.4 134.8 128.55 131.34C127.4 129.19 125.62 127.42 123.56 126.11C120.68 124.29 117.73 124.27 114.67 125.73C113.44 126.32 112.29 127.05 111.12 127.74C110.36 128.19 109.4 128.94 108.52 129.09C107.69 129.23 106.57 128.34 105.89 127.95C104.6 127.19 103.34 126.38 101.99 125.73C98.9301 124.27 95.9801 124.28 93.1001 126.11C91.0401 127.41 89.2601 129.19 88.1101 131.34C86.2601 134.8 86.1801 139.03 87.2801 142.8C88.6201 147.39 91.6201 151.42 95.3801 154.37C99.1401 157.32 103.65 159.25 108.3 160.38" stroke="#82170F" stroke-width="2.33" stroke-miterlimit="10"/>
<path d="M108.35 150.93C111.05 151.13 113.52 149.58 115.4 147.79C118.28 145.05 120.63 141.12 120.71 137.05C120.76 134.3 118.42 132.46 115.77 132.86C114.24 133.09 113.05 134.2 111.89 135.12C110.86 135.94 109.66 136.72 108.34 136.68C107.02 136.71 105.82 135.94 104.79 135.12C103.63 134.2 102.43 133.09 100.91 132.86C98.25 132.46 95.92 134.3 95.97 137.05C96.05 141.12 98.4 145.05 101.28 147.79C103.16 149.58 105.63 151.13 108.33 150.93" fill="#5A170B"/>
<path d="M108.35 150.93C111.05 151.13 113.52 149.58 115.4 147.79C118.28 145.05 120.63 141.12 120.71 137.05C120.76 134.3 118.42 132.46 115.77 132.86C114.24 133.09 113.05 134.2 111.89 135.12C110.86 135.94 109.66 136.72 108.34 136.68C107.02 136.71 105.82 135.94 104.79 135.12C103.63 134.2 102.43 133.09 100.91 132.86C98.25 132.46 95.92 134.3 95.97 137.05C96.05 141.12 98.4 145.05 101.28 147.79C103.16 149.58 105.63 151.13 108.33 150.93" stroke="#451002" stroke-width="2.33" stroke-miterlimit="10"/>
</g>
<defs>
<clipPath id="clip0_231_3">
<rect width="216.66" height="208.96" fill="white"/>
</clipPath>
</defs>
</svg>
