<svg width="240" height="173" viewBox="0 0 240 173" fill="none" xmlns="http://www.w3.org/2000/svg">
<g clip-path="url(#clip0_206_15)">
<path d="M232.85 36.4899C230.51 32.5299 227.3 28.9299 223.11 27.0299C214.1 22.9399 204.94 29.6899 201.75 38.1299C200.17 42.3099 198.7 49.4099 203.63 52.0199C206.44 53.5099 210.46 51.9499 212.34 49.5799C214.16 47.2999 213.95 43.8799 216.59 42.1699C221.94 38.7099 224.38 45.7999 225.45 49.7899C227.41 57.0499 226.81 65.0599 225.4 72.4199C224.28 78.2799 222.04 83.8599 219.54 89.2799C212.57 104.38 203.21 118.71 190.18 129.04C184.18 133.8 177.57 137.12 170.75 140.26C180.5 114.6 187.12 87.6199 186.86 67.8699C186.86 31.0299 157 1.15991 120.16 1.15991C83.3199 1.15991 53.4699 31.0299 53.4699 67.8699C53.2099 87.7099 59.8899 114.86 69.7199 140.63C62.6199 137.38 55.7199 133.99 49.4799 129.04C36.4499 118.71 27.0899 104.37 20.1199 89.2799C17.6199 83.8699 15.3799 78.2799 14.2599 72.4199C12.8499 65.0599 12.2599 57.0499 14.2099 49.7899C15.2899 45.7999 17.7199 38.7099 23.0699 42.1699C25.7099 43.8799 25.4999 47.2999 27.3199 49.5799C29.1999 51.9399 33.2199 53.4999 36.0299 52.0199C40.9599 49.4099 39.4899 42.3099 37.9099 38.1299C34.7199 29.6899 25.5599 22.9399 16.5499 27.0299C12.3599 28.9299 9.14989 32.5299 6.8099 36.4899C1.6099 45.2999 0.309895 56.0299 1.6599 66.1699C3.0099 76.3099 6.8399 85.9599 11.3399 95.1399C11.8599 96.1999 12.3899 97.2499 12.9299 98.2999C19.6499 111.37 28.0099 123.78 38.6999 133.96C49.1799 143.95 61.4699 150.04 75.1499 154.02C76.4899 157.12 77.8699 160.19 79.2799 163.18C91.8899 168.3 105.68 171.13 120.14 171.13C134.6 171.13 148.43 168.3 161.05 163.15C162.48 160.14 163.88 157.04 165.24 153.89L165.28 153.79C178.66 149.8 190.68 143.76 200.97 133.96C211.65 123.78 220.01 111.37 226.74 98.2999C227.28 97.2499 227.81 96.1999 228.33 95.1399C232.83 85.9599 236.66 76.3099 238.01 66.1699C239.36 56.0299 238.06 45.2999 232.86 36.4999L232.85 36.4899Z" fill="#E20A17" stroke="#9C1109" stroke-width="2.33" stroke-miterlimit="10"/>
<path d="M98.58 91.4199C91.78 93.2299 91 101.08 88.95 106.65C87.82 109.72 85.87 112.78 82.79 113.88C79.3 115.13 75.18 113.35 73.11 110.27C72.09 108.76 71.49 106.9 71.77 105.1C72.05 103.3 73.3 101.6 75.06 101.1C76.82 100.6 78.94 101.56 79.49 103.3C79.97 104.84 78.51 107.62 76.63 106.9" fill="#E20A17"/>
<path d="M98.58 91.4199C91.78 93.2299 91 101.08 88.95 106.65C87.82 109.72 85.87 112.78 82.79 113.88C79.3 115.13 75.18 113.35 73.11 110.27C72.09 108.76 71.49 106.9 71.77 105.1C72.05 103.3 73.3 101.6 75.06 101.1C76.82 100.6 78.94 101.56 79.49 103.3C79.97 104.84 78.51 107.62 76.63 106.9" stroke="#9C1109" stroke-width="2.33" stroke-miterlimit="10"/>
<path d="M140.98 91.4199C147.78 93.2299 148.56 101.08 150.61 106.65C151.74 109.72 153.69 112.78 156.77 113.88C160.26 115.13 164.38 113.35 166.45 110.27C167.47 108.76 168.07 106.9 167.79 105.1C167.52 103.3 166.26 101.6 164.5 101.1C162.74 100.6 160.62 101.56 160.07 103.3C159.59 104.84 161.05 107.62 162.93 106.9" fill="#E20A17"/>
<path d="M140.98 91.4199C147.78 93.2299 148.56 101.08 150.61 106.65C151.74 109.72 153.69 112.78 156.77 113.88C160.26 115.13 164.38 113.35 166.45 110.27C167.47 108.76 168.07 106.9 167.79 105.1C167.52 103.3 166.26 101.6 164.5 101.1C162.74 100.6 160.62 101.56 160.07 103.3C159.59 104.84 161.05 107.62 162.93 106.9" stroke="#9C1109" stroke-width="2.33" stroke-miterlimit="10"/>
<path d="M92.11 63.2199C92.11 62.8699 92.14 62.5299 92.17 62.1799C92.21 61.7399 92.08 62.6299 92.17 62.1799C92.2 62.0399 92.22 61.8999 92.26 61.7599C92.3 61.6199 92.33 61.4899 92.37 61.3499C92.39 61.2699 92.63 60.7799 92.46 61.0799C92.28 61.3999 92.56 60.8899 92.6 60.8299C92.67 60.7099 92.75 60.5899 92.82 60.4699C93.06 60.0799 92.51 60.7799 92.84 60.4499C92.94 60.3499 93.04 60.2399 93.15 60.1399C93.22 60.0699 93.3 59.9999 93.38 59.9399C93.17 60.0999 93.13 60.1299 93.26 60.0399C93.42 59.9499 93.57 59.8399 93.73 59.7499L93.87 59.6799C94.08 59.5799 94.06 59.5899 93.79 59.6999C93.79 59.6999 94.22 59.5599 94.24 59.5499C94.39 59.5099 94.55 59.4799 94.7 59.4399C95.13 59.3399 94.27 59.4599 94.84 59.4399C95 59.4399 95.15 59.4399 95.31 59.4399C95.39 59.4399 95.47 59.4399 95.55 59.4499C95.79 59.4699 95.76 59.4699 95.45 59.4299C95.66 59.3599 96.14 59.5999 96.36 59.6699C96.8 59.8199 96.06 59.4799 96.43 59.7099C96.59 59.8099 96.75 59.8899 96.91 59.9899C97.36 60.2899 96.75 59.7899 97.03 60.0799C97.14 60.1899 97.26 60.2899 97.36 60.3999C97.44 60.4899 97.8 60.7799 97.42 60.4399C97.53 60.5299 97.6 60.6999 97.68 60.8199C97.77 60.9699 97.85 61.1399 97.94 61.2899C98.01 61.4299 97.99 61.3799 97.88 61.1299C97.92 61.2299 97.95 61.3199 97.99 61.4199C98.08 61.6999 98.08 62.0599 98.21 62.3199C98.17 62.0099 98.16 61.9699 98.18 62.2199V62.3699C98.19 62.5799 98.18 62.7799 98.18 62.9899C98.1 64.0999 99.22 65.1699 100.31 65.1199C101.53 65.0699 102.35 64.1799 102.44 62.9899C102.75 58.7499 99.12 54.9499 94.85 55.1599C92.63 55.2699 90.65 56.2999 89.32 58.0799C88.23 59.5499 87.91 61.4199 87.86 63.1999C87.83 64.3099 88.86 65.3799 89.99 65.3299C91.17 65.2799 92.09 64.3999 92.12 63.1999L92.11 63.2199Z" fill="#0D181C"/>
<path d="M138.78 99.1799C137.81 95.2999 135.55 91.7799 132.35 89.3699C128.55 86.5099 124.59 86.1299 119.99 86.1299C115.44 86.1299 111.51 86.4699 107.71 89.2499C104.42 91.6599 102.09 95.2399 101.1 99.1899C99.72 104.7 100.98 110.76 104.25 115.4C106.27 118.26 109 120.55 112.15 122.07C116.55 124.2 120.33 124.76 124.98 123.19C129.25 121.75 133.01 119.1 135.62 115.4C138.89 110.76 140.15 104.7 138.77 99.1899L138.78 99.1799Z" fill="#A01C18" stroke="#82170F" stroke-width="2.33" stroke-miterlimit="10"/>
<path d="M131.18 102.13C131.1 101.19 130.9 100.24 130.4 99.4399C128.37 96.1699 123.88 95.4899 120.36 95.5099C116.79 95.5299 111.56 96.0999 109.49 99.4399C108.99 100.24 108.79 101.19 108.71 102.13C108.43 105.3 109.42 108.57 111.42 111.05C113.24 113.31 116.48 115.6 119.46 115.71C122.66 115.83 126.53 113.45 128.46 111.05C130.46 108.57 131.45 105.3 131.17 102.13H131.18Z" fill="#5A170B" stroke="#451002" stroke-width="2.33" stroke-miterlimit="10"/>
<path d="M151.8 63.22C151.75 61.43 151.43 59.56 150.34 58.1C149.01 56.32 147.03 55.3 144.81 55.18C140.54 54.96 136.91 58.77 137.22 63.01C137.3 64.12 138.14 65.19 139.35 65.14C140.43 65.09 141.56 64.2 141.48 63.01C141.47 62.83 141.46 62.65 141.46 62.47C141.46 62.39 141.46 62.32 141.46 62.24C141.48 62 141.47 62.03 141.43 62.34C141.39 62.08 141.56 61.69 141.65 61.44C141.68 61.34 141.72 61.25 141.76 61.15L141.67 61.37C141.67 61.24 141.86 61 141.92 60.89C142 60.75 142.09 60.54 142.22 60.44L142.08 60.63C142.15 60.55 142.21 60.47 142.28 60.4C142.39 60.29 142.5 60.18 142.61 60.08C142.94 59.76 142.3 60.25 142.67 60.03C142.83 59.93 142.98 59.83 143.15 59.74C143.63 59.48 142.89 59.79 143.29 59.67C143.44 59.62 143.59 59.57 143.74 59.53C143.79 59.52 144.18 59.46 144.2 59.43C143.89 59.47 143.86 59.47 144.1 59.45H144.26C144.44 59.43 144.63 59.43 144.81 59.45C144.89 59.45 144.97 59.45 145.05 59.47C144.77 59.43 144.71 59.42 144.87 59.45C145.05 59.49 145.23 59.52 145.41 59.57C145.54 59.61 145.75 59.64 145.86 59.72C145.62 59.61 145.57 59.6 145.71 59.66C145.78 59.69 145.85 59.73 145.92 59.77C146.06 59.85 146.19 59.94 146.33 60.02C146.7 60.24 146.05 59.76 146.45 60.12C146.58 60.24 146.69 60.36 146.81 60.49C147.11 60.78 146.59 60.14 146.83 60.51C146.88 60.6 147.29 61.21 147.24 61.24C147.12 60.94 147.1 60.9 147.18 61.12C147.2 61.19 147.23 61.25 147.25 61.32C147.3 61.48 147.34 61.63 147.38 61.79C147.41 61.93 147.44 62.07 147.47 62.21C147.58 62.7 147.43 61.72 147.47 62.21C147.5 62.56 147.53 62.9 147.53 63.25C147.56 64.36 148.49 65.43 149.66 65.38C150.79 65.33 151.82 64.44 151.79 63.25L151.8 63.22Z" fill="#0D181C"/>
</g>
<defs>
<clipPath id="clip0_206_15">
<rect width="239.66" height="172.29" fill="white"/>
</clipPath>
</defs>
</svg>
