<svg width="257" height="228" viewBox="0 0 257 228" fill="none" xmlns="http://www.w3.org/2000/svg">
<g clip-path="url(#clip0_242_83)">
<path d="M256.02 41.77C243.06 121.85 193.45 189.62 124.94 227.35L0 0L256.02 41.77Z" fill="#4FC1E9"/>
<path d="M121.07 75.2701C121.62 78.8501 123.28 81.4501 125.45 83.6901C126.94 85.2301 127.1 86.6201 125.91 88.3701C124 91.1701 122.18 94.0301 120.34 96.8901C118.72 99.4201 119.13 101.51 121.6 103.14C125.45 105.68 129.31 108.2 133.19 110.7C135.64 112.28 137.69 111.9 139.28 109.47C144.16 102.05 149.02 94.6101 153.84 87.1401C155.4 84.7201 154.88 82.7501 152.44 81.0801C151.77 80.6201 150.81 80.2801 150.52 79.6501C150.1 78.7201 149.76 77.4101 150.11 76.5401C150.62 75.2701 152 75.1501 153.27 75.6901C159.42 78.3501 161.36 84.7101 157.71 90.3201C153.01 97.5401 148.31 104.76 143.59 111.96C140.45 116.77 135.16 117.91 130.37 114.82C126.55 112.36 122.74 109.88 118.95 107.37C114.22 104.25 113.12 98.8901 116.2 94.0801C117.52 92.0201 118.79 89.9301 120.23 87.9601C121.07 86.8101 120.94 86.0401 120.11 84.9601C116.24 79.9201 114.76 74.3401 116.98 68.1801C117.33 67.2201 118.4 66.1901 119.36 65.8701C120.71 65.4301 121.5 66.5901 122.01 67.8201C123.14 70.5101 124.94 72.5001 127.88 73.2701C128.99 73.5601 129.72 73.3301 130.44 72.3101C134.19 66.8901 140.4 66.1801 145.36 70.5201C146.41 71.4401 146.75 72.5801 146.05 73.7901C145.33 75.0201 144.1 75.2401 142.85 74.7101C141.99 74.3401 141.24 73.7201 140.41 73.2501C138.53 72.1701 136.47 72.5701 135.14 74.2101C133.91 75.7401 133.42 78.0401 130.95 78.2901C127.87 78.6001 125.03 77.9601 122.47 76.1701C122.14 75.9401 121.79 75.7301 121.08 75.2601L121.07 75.2701Z" fill="#3AA4DA"/>
</g>
<defs>
<clipPath id="clip0_242_83">
<rect width="256.02" height="227.35" fill="white"/>
</clipPath>
</defs>
</svg>
