<svg width="205" height="260" viewBox="0 0 205 260" fill="none" xmlns="http://www.w3.org/2000/svg">
<g clip-path="url(#clip0_242_68)">
<path d="M204.85 87.08L10.96 259.37L0 0.24C3.63 0.08 7.28 0 10.96 0C88.07 0 157.34 33.65 204.85 87.08Z" fill="#FFCE54"/>
<path d="M96.8699 79.98C98.2299 81.27 98.4399 83.16 97.3799 84.71C97.1999 84.98 96.9799 85.22 96.7099 85.56C98.8399 87.69 100.96 89.78 103.04 91.9C104.63 93.52 104.6 95.74 103.04 97.18C101.61 98.49 99.4999 98.42 98.0099 96.96C96.1999 95.19 94.4299 93.39 92.6399 91.6L91.6499 90.61L87.7699 94.49L88.7799 95.5C90.5399 97.26 92.3099 99 94.0499 100.78C95.5999 102.36 95.6699 104.54 94.2299 105.99C92.7899 107.44 90.6199 107.44 89.0099 105.89C87.2199 104.17 85.4899 102.38 83.7299 100.62C83.4099 100.3 83.0899 99.98 82.6299 99.52L81.6599 100.49C77.2399 104.91 72.8299 109.36 68.3699 113.74C67.6099 114.49 67.4599 115.04 67.8699 116.05C67.9899 116.36 68.1099 116.68 68.2099 117C68.4699 117.83 68.6399 118.68 68.7099 119.52C68.5999 120.32 68.2499 121.08 67.6499 121.68C66.8199 122.5 65.6199 122.88 64.4599 122.74C63.5499 122.63 62.5499 122.19 61.9799 121.45C61.3399 120.63 61.5999 119.4 61.1699 118.44C60.9299 117.88 60.5699 117.36 60.1099 116.91C58.1499 115.02 54.9399 115.02 53.0499 116.91C51.1299 118.82 51.1599 122.2 53.0899 124.08C54.4199 125.37 56.3799 125.76 58.0899 125.26C58.5499 125.12 58.9899 124.92 59.3999 124.66C60.1999 124.14 60.4799 123.79 61.5099 123.9C62.3599 124 63.1799 124.37 63.7999 124.97C64.7099 125.85 65.1499 127.27 64.8999 128.51C64.5799 130.12 62.9899 130.94 61.6099 131.55C57.7099 133.3 52.9499 132.89 49.4099 130.31C44.5299 126.74 43.0299 119.98 45.9399 114.63C48.8299 109.31 55.3599 106.9 60.9899 109.2C62.0999 109.65 62.6499 109.4 63.3999 108.64C72.7799 99.21 82.1899 89.81 91.6099 80.41C93.3299 78.69 95.3699 78.52 96.8899 79.95L96.8699 79.98Z" fill="#F4B63C"/>
</g>
<defs>
<clipPath id="clip0_242_68">
<rect width="204.85" height="259.37" fill="white"/>
</clipPath>
</defs>
</svg>
