<svg width="226" height="260" viewBox="0 0 226 260" fill="none" xmlns="http://www.w3.org/2000/svg">
<g clip-path="url(#clip0_242_77)">
<path d="M225.62 227.35C188.56 247.76 145.98 259.37 100.68 259.37C64.98 259.37 30.96 252.16 0 239.1L100.68 0L225.62 227.35Z" fill="#5D9BEC"/>
<path d="M109.18 167.53C105.79 167.53 102.4 167.53 99.0099 167.53C94.3399 167.52 90.9499 164.22 90.9199 159.58C90.8899 154.39 90.9099 149.2 90.9199 144C90.9199 142.74 91.5999 141.81 92.6599 141.49C93.7999 141.14 95.0899 141.51 95.6299 142.53C95.9399 143.12 96.0699 143.87 96.0699 144.55C96.1099 149.32 96.0899 154.09 96.0899 158.86C96.0899 161.41 96.9599 162.27 99.5399 162.27C106 162.27 112.47 162.27 118.93 162.27C121.41 162.27 122.27 161.39 122.27 158.86C122.27 153.99 122.26 149.11 122.27 144.24C122.27 142.33 123.39 141.29 125.17 141.43C126.38 141.52 127.4 142.46 127.41 143.7C127.44 149.39 127.52 155.08 127.36 160.76C127.26 164.38 123.6 167.5 119.77 167.54C116.24 167.58 112.71 167.54 109.17 167.54L109.18 167.53Z" fill="#4680DC"/>
<path d="M114.41 133.61H104C103.98 134 103.95 134.37 103.95 134.75C103.95 138.67 103.95 142.59 103.94 146.52C103.94 147.83 103.27 148.71 102.13 149.1C101.11 149.44 99.93 149.13 99.31 148.21C99.01 147.77 98.78 147.18 98.78 146.66C98.74 141.4 98.74 136.13 98.76 130.87C98.76 129.44 99.79 128.35 101.21 128.34C106.51 128.3 111.81 128.3 117.11 128.34C118.64 128.34 119.61 129.45 119.61 131.04C119.62 136.2 119.62 141.36 119.61 146.52C119.61 148.06 118.53 149.21 117.11 149.27C115.68 149.33 114.44 148.15 114.43 146.58C114.39 142.73 114.42 138.88 114.41 135.03C114.41 134.61 114.41 134.19 114.41 133.64V133.61Z" fill="#4680DC"/>
<path d="M119.61 180.63C119.61 186.41 114.97 191.04 109.19 191.05C103.35 191.05 98.73 186.42 98.74 180.56C98.74 174.8 103.42 170.12 109.16 170.1C114.93 170.09 119.62 174.81 119.61 180.63ZM109.14 175.38C106.29 175.39 103.97 177.71 103.96 180.57C103.94 183.49 106.27 185.79 109.21 185.78C112.1 185.77 114.38 183.49 114.39 180.61C114.4 177.72 112.05 175.37 109.14 175.38Z" fill="#4680DC"/>
</g>
<defs>
<clipPath id="clip0_242_77">
<rect width="225.62" height="259.37" fill="white"/>
</clipPath>
</defs>
</svg>
