<svg width="260" height="226" viewBox="0 0 260 226" fill="none" xmlns="http://www.w3.org/2000/svg">
<g clip-path="url(#clip0_242_58)">
<path d="M259.36 154.57L9.94 225.9C3.47 203.23 0 179.31 0 154.57C0 96.66 18.98 43.17 51.06 0L259.36 154.57Z" fill="#ED5463"/>
<path d="M90.28 95.88C85.55 95.48 81.46 98.1 80.1 102.4C79.64 103.85 79.4 105.36 79.18 106.84L79.08 107.48C77.52 117.37 75.74 128.59 74.05 139.67C73.33 144.36 75.88 148.76 80.25 150.37C84.7 152.01 89.55 150.33 91.79 146.37C92.55 145.03 93.15 144.9 94.56 145.2C97.11 145.74 97.66 145.34 98.45 143.22L107.81 144.68C109.95 145.01 112.1 145.35 114.24 145.69C115.21 145.85 115.98 145.72 116.52 145.32C116.97 144.99 117.24 144.48 117.33 143.84C117.42 143.22 117.28 142.66 116.95 142.22C116.55 141.7 115.87 141.36 114.99 141.25C114.8 141.23 114.61 141.19 114.41 141.16L99.13 138.77L99.64 135.5L115.71 138.01C116.35 138.11 116.98 138.21 117.62 138.3C118.98 138.5 119.9 137.87 120.15 136.56C120.37 135.28 119.75 134.36 118.41 134.03C118.01 133.93 117.61 133.87 117.23 133.81L117.03 133.78L111.13 132.86C107.85 132.35 104.58 131.83 101.3 131.32C100.98 131.27 100.66 131.2 100.35 131.13L100.86 127.89L117.7 130.52L118.06 130.57C118.28 130.6 118.51 130.64 118.73 130.68C119.38 130.8 120.32 130.89 121.03 130.38C121.46 130.07 121.72 129.59 121.82 128.96C121.82 128.94 121.82 128.92 121.82 128.9C121.97 127.83 121.5 127.23 121.09 126.93C120.57 126.54 119.88 126.41 119.33 126.33C119.1 126.3 118.88 126.26 118.65 126.23L101.55 123.55L102.06 120.26L107.3 121.08C111.23 121.7 115.16 122.31 119.09 122.92L119.28 122.95C120.32 123.12 122.06 123.39 122.52 121.3C122.66 120.68 122.58 120.16 122.3 119.74C121.91 119.16 121.15 118.81 119.85 118.61L102.71 115.93L103.22 112.65L108.15 113.42C111.67 113.97 115.18 114.52 118.7 115.07C119.9 115.26 120.85 115.1 121.46 114.6C121.87 114.27 122.09 113.8 122.12 113.23C122.22 111.04 120.27 110.75 119.34 110.61C116.97 110.26 114.61 109.88 112.24 109.51L103.87 108.2C103.87 106 103.32 105.5 100.92 105.12C100.82 105.1 100.72 105.08 100.62 105.07C100.36 105.02 100.09 104.97 99.8 104.96C99.11 104.95 98.86 104.78 98.71 103.86C98.06 99.66 94.43 96.23 90.26 95.88H90.28ZM93.44 140.53C93.23 140.36 93.18 139.94 93.18 139.62C93.18 139.2 93.1 138.42 92.69 137.85C91.68 136.47 91.92 135.02 92.21 133.34L92.29 132.83C92.64 130.62 92.99 128.42 93.33 126.21C93.93 122.36 94.55 118.38 95.21 114.47C95.31 113.86 95.7 113.23 96.08 112.62C96.19 112.45 96.29 112.28 96.39 112.1C96.53 111.86 96.72 111.62 96.92 111.38C97.25 110.98 97.58 110.57 97.77 110.05C97.93 109.62 98.11 109.36 98.32 109.28C98.5 109.21 98.77 109.23 99.14 109.36L94.24 140.67C93.86 140.7 93.59 140.65 93.44 140.53ZM89.1 110.82C89 110.82 88.9 110.8 88.8 110.79C88.42 110.75 87.94 110.69 87.57 110.96C86.75 111.55 86.01 112.14 85.97 112.89C85.94 113.69 86.81 114.83 87.62 115.03C88.45 115.24 89.33 115.24 90.18 115.24C90.31 115.24 90.44 115.24 90.57 115.24L87.87 132.48L87.71 132.43C87.07 132.21 86.47 132.01 85.85 131.82C84.97 131.56 84.24 131.6 83.67 131.92C83.19 132.2 82.86 132.66 82.69 133.29C82.52 133.92 82.59 134.47 82.87 134.94C83.2 135.49 83.83 135.89 84.73 136.1C87.16 136.68 88.55 138.22 88.86 140.68C89.13 142.81 88.3 144.55 86.44 145.72C84.58 146.9 82.7 146.9 80.84 145.74C78.91 144.53 78.06 142.75 78.39 140.59C79.28 134.76 80.22 128.71 81.22 122.34C82.1 116.69 83.03 110.79 84.02 104.56C84.45 101.82 87.11 99.9 89.94 100.28C92.66 100.65 94.7 103.17 94.48 105.9C94.24 108.79 91.93 110.9 89.08 110.81L89.1 110.82Z" fill="#CE424C"/>
<path d="M72.95 138.85C73.18 138.62 73.28 138.33 73.33 138.03C73.35 137.88 73.37 137.72 73.38 137.57C73.38 137.45 73.42 137.33 73.41 137.22C74.04 133.22 74.66 129.22 75.29 125.23L78.21 106.53L78.26 106.21C78.31 105.91 78.36 105.61 78.39 105.3C78.52 103.83 77.83 102.89 76.5 102.71C75.24 102.54 74.35 103.22 74.06 104.58C73.99 104.88 73.95 105.18 73.91 105.49L73.86 105.8C72.27 115.98 70.67 126.16 69.08 136.34C69.06 136.47 69.03 136.6 68.99 136.73C68.88 137.17 68.76 137.68 68.97 138.14C69.2 138.64 69.82 139.83 70.71 139.98C71.32 140.08 72.05 139.71 72.95 138.84V138.85Z" fill="#CE424C"/>
</g>
<defs>
<clipPath id="clip0_242_58">
<rect width="259.36" height="225.9" fill="white"/>
</clipPath>
</defs>
</svg>
