<svg width="209" height="260" viewBox="0 0 209 260" fill="none" xmlns="http://www.w3.org/2000/svg">
<g clip-path="url(#clip0_242_63)">
<path d="M208.3 259.13L0 104.56C45.24 43.7 116.51 3.35 197.33 0L208.29 259.13H208.3Z" fill="#FB6E52"/>
<path d="M112.58 112.47C110.94 111.32 109.43 110.22 107.87 109.19C104.14 106.71 103.51 103.41 106.32 99.93C107.45 98.53 108.78 97.19 110.27 96.21C115.21 92.94 120.16 89.6599 125.88 87.8399C126.8 87.5499 127.78 87.3399 128.74 87.2699C132.65 86.9599 135.06 89.1 135.34 93.01C135.48 95 135.66 96.99 135.83 99.1C137.34 98.67 138.27 98.25 138.35 96.61C138.42 95.08 139.66 94.35 141.14 94.55C143.28 94.83 143.6 96.82 143.94 98.35C144.13 99.23 143.47 100.65 142.73 101.29C141.47 102.38 139.85 103.04 138.08 104.06C138.82 105.36 139.53 106.56 140.21 107.78C141.19 109.54 140.99 110.91 139.67 111.72C138.32 112.55 136.95 111.98 135.83 110.23C132.55 105.11 129.98 99.76 130.26 93.46C130.27 93.15 130.13 92.84 130.07 92.55C125.79 91.99 111.52 100.18 109.8 104.23C111.04 105.1 112.29 106.03 113.58 106.88C118.05 109.81 120.18 114.5 122.6 118.95C123.29 120.21 122.76 121.44 121.51 122.11C120.26 122.78 119.05 122.49 118.27 121.27C117.4 119.91 116.65 118.48 115.74 116.9C114.14 117.82 112.81 118.81 111.31 119.36C110.35 119.71 108.82 119.84 108.12 119.31C106.84 118.35 105.44 117.09 105.84 115.1C106.14 113.63 107.8 112.66 109.17 113.38C110.62 114.15 111.44 113.53 112.57 112.47H112.58Z" fill="#E05238"/>
<path d="M137.57 123.48C137.99 125.36 138.93 125.83 140.73 125.54C145.68 124.75 150.66 124.17 155.64 123.55C157.74 123.29 159.14 124.31 159.05 126C158.95 127.76 157.79 128.4 156.18 128.61C151.85 129.16 147.53 129.75 143.21 130.34C142.71 130.41 142.21 130.54 141.49 130.7C142.41 132.3 143.27 133.75 144.08 135.22C145.04 136.97 144.76 138.61 143.43 139.35C142.1 140.1 140.6 139.48 139.57 137.75C139.13 137.02 138.72 136.28 138.3 135.54C137.91 134.86 137.52 134.19 136.98 133.24C136.39 133.93 135.89 134.47 135.44 135.05C132.97 138.24 130.51 141.45 128.04 144.63C126.63 146.45 125.24 146.85 123.92 145.88C122.56 144.87 122.58 143.33 124.04 141.44C126.98 137.62 129.87 133.76 132.91 130.03C134.03 128.66 134.21 127.59 132.95 126.43C130.38 127.14 127.87 128.24 125.28 128.45C122.56 128.66 119.74 128.23 117.04 127.67C115.26 127.3 114.55 125.56 115.24 124.19C116.02 122.65 117.25 122.62 118.88 122.94C121 123.35 123.29 123.68 125.38 123.3C130.66 122.33 135.15 119.62 138.61 115.54C140.07 113.81 140.96 111.54 141.87 109.42C142.49 107.97 143.3 107.07 144.91 107.27C146.37 107.45 147.21 108.83 146.87 110.54C145.99 115.04 143.35 118.45 140.03 121.42C139.26 122.11 138.44 122.75 137.59 123.46L137.57 123.48Z" fill="#E05238"/>
</g>
<defs>
<clipPath id="clip0_242_63">
<rect width="208.3" height="259.13" fill="white"/>
</clipPath>
</defs>
</svg>
