<svg width="260" height="215" viewBox="0 0 260 215" fill="none" xmlns="http://www.w3.org/2000/svg">
<g clip-path="url(#clip0_242_71)">
<path d="M259.37 172.29C259.37 186.51 258.22 200.46 256.02 214.06L0 172.29L193.89 0C234.63 45.82 259.37 106.17 259.37 172.29Z" fill="#A1D469"/>
<path d="M131.48 112.58C132.34 115.69 133.19 118.64 133.97 121.61C134.52 123.74 133.88 125.26 132.31 125.48C130.39 125.76 129.56 124.59 129.14 122.88C128.26 119.34 127.28 115.82 126.37 112.29C125.71 109.71 126.29 108.7 128.89 107.98C138.15 105.4 147.41 102.8 156.7 100.35C157.85 100.05 159.4 100.22 160.45 100.78C167.59 104.53 174.66 108.44 181.73 112.32C184.12 113.63 184.42 114.69 183.08 117.08C178.95 124.42 174.84 131.77 170.6 139.05C170.07 139.97 168.96 140.84 167.94 141.13C158.57 143.82 149.15 146.4 139.75 148.98C137.38 149.63 136.42 149.1 135.71 146.68C134.73 143.31 133.79 139.93 132.9 136.54C132.26 134.08 132.78 133.19 135.2 132.51C139.32 131.35 143.45 130.22 147.58 129.08C148.31 128.88 149.04 128.68 150.06 128.4C149.49 126.33 149.05 124.44 148.39 122.62C148.26 122.25 147.28 121.89 146.78 121.98C145.13 122.29 143.53 122.84 141.89 123.23C140.25 123.62 138.88 123.24 138.45 121.42C138.05 119.73 139 118.79 140.56 118.36C143.4 117.58 146.24 116.78 149.08 116.01C150.82 115.54 152.01 116.23 152.49 117.9C153.57 121.6 154.59 125.33 155.59 129.06C156.11 130.99 155.27 132.17 153.4 132.69C149.07 133.9 144.77 135.18 140.41 136.27C138.6 136.72 138.12 137.49 138.79 139.22C139.29 140.51 139.56 141.89 139.98 143.42C140.82 143.26 141.49 143.17 142.14 143C149.65 140.93 157.17 138.88 164.65 136.74C165.5 136.5 166.5 135.91 166.92 135.18C170.46 129.12 173.88 122.99 177.33 116.88C177.46 116.65 177.53 116.38 177.18 116.75C172.85 114.03 168.39 111.5 164.24 108.54C159.97 105.48 155.8 105.24 150.92 107C145.45 108.97 139.73 110.2 134.11 111.76C133.38 111.96 132.68 112.22 131.48 112.61V112.58Z" fill="#7ABE50"/>
</g>
<defs>
<clipPath id="clip0_242_71">
<rect width="259.37" height="214.06" fill="white"/>
</clipPath>
</defs>
</svg>
