<svg width="250" height="240" viewBox="0 0 250 240" fill="none" xmlns="http://www.w3.org/2000/svg">
<g clip-path="url(#clip0_242_74)">
<path d="M249.42 0L148.74 239.1C76.96 208.83 21.64 147.19 0 71.35L249.42 0Z" fill="#ED87C0"/>
<path d="M138.47 104.28C142.78 110.86 147.1 117.44 151.39 124.04C153.26 126.92 153.27 129.62 151.53 131.84C149.58 134.32 145.97 134.99 143.36 133.08C137.78 129.02 132.29 124.84 126.79 120.67C125.63 119.79 125.43 118.32 126.29 117.38C127.35 116.23 128.52 116.48 129.64 117.31C134.3 120.8 139.04 124.21 143.62 127.81C144.29 128.34 144.95 128.96 145.77 129.27C146.38 129.5 147.2 129.59 147.75 129.16C148.43 128.64 148.25 127.61 147.99 126.92C147.67 126.08 125.12 91.8499 122.45 87.7799C121.74 86.6999 121.18 85.0099 119.39 85.8099C117.69 86.5699 118.54 88.0699 118.82 89.2699C120.49 96.5199 122.16 103.76 123.9 110.99C124.53 113.6 124.14 115.9 122.08 117.66C120.11 119.34 117.77 119.52 115.34 118.71C114.72 118.5 114.12 118.24 113.51 118C112.09 117.45 110.8 117.67 109.75 118.78C108.7 119.9 108.28 121.25 108.88 122.73C109.49 124.24 110.61 125.14 112.29 125.16C112.7 125.16 113.11 125.07 113.52 125.02C114.89 124.85 115.93 125.29 116.16 126.75C116.39 128.16 115.6 128.97 114.28 129.34C111.47 130.11 107.94 128.93 106.08 126.58C104 123.96 103.68 120.39 105.27 117.52C107.26 113.9 111.13 112.49 115.03 113.95C116.4 114.46 117.87 115.46 119.22 114.28C120.56 113.11 119.54 111.57 119.24 110.25C117.61 103.12 115.86 96.0199 114.22 88.8899C113.32 84.9499 115.79 81.5199 119.63 81.2599C121.97 81.0999 123.82 82.0599 125.12 83.9699C127.03 86.7799 128.87 89.6399 130.73 92.4799C133.31 96.4199 135.89 100.36 138.47 104.3V104.28Z" fill="#CE6AAE"/>
</g>
<defs>
<clipPath id="clip0_242_74">
<rect width="249.42" height="239.1" fill="white"/>
</clipPath>
</defs>
</svg>
