<svg width="395" height="397" viewBox="0 0 395 397" fill="none" xmlns="http://www.w3.org/2000/svg">
<g style="mix-blend-mode:difference" clip-path="url(#clip0_144_149)">
<path d="M198.585 198.579L17.3501 279.788C-6.34876 226.785 -6.59691 164.069 21.4393 108.851L198.585 198.579Z" fill="#FB6E52"/>
<path d="M156.161 4.56824L198.585 198.579L21.4396 108.851C22.6857 106.364 24.0112 103.898 25.3902 101.44C54.2743 49.9407 102.68 16.2902 156.161 4.56824Z" fill="#FFCE54"/>
<path d="M295.731 25.3723C305.233 30.7019 314.113 36.6911 322.362 43.2544L198.58 198.588L156.156 4.57685C202.016 -5.47092 251.584 0.611984 295.731 25.3723Z" fill="#A1D469"/>
<path d="M322.376 43.2505C370.995 81.8999 397.667 140.411 397.205 200.286L198.599 198.575L322.381 43.2418L322.376 43.2505Z" fill="#4FC1E9"/>
<path d="M397.2 200.295C396.944 232.689 388.752 265.48 371.789 295.723C358.416 319.568 340.86 339.589 320.54 355.366L198.585 198.579L397.191 200.29L397.2 200.295Z" fill="#5D9BEC"/>
<path d="M198.585 198.579L320.54 355.366C273.449 391.965 211.56 405.825 152.812 391.877L198.589 198.593L198.585 198.579Z" fill="#ED87C0"/>
<path d="M198.585 198.579L152.799 391.859C135.236 387.681 117.964 381.043 101.444 371.777C62.7722 350.087 34.1654 317.379 17.3501 279.788L198.585 198.579Z" fill="#ED5463"/>
<path d="M25.3988 101.445C-28.2571 197.111 5.79716 318.143 101.448 371.791C197.099 425.438 318.129 391.376 371.78 295.719C425.431 200.061 391.382 79.0198 295.74 25.3773C200.098 -28.2653 79.0498 5.78726 25.3988 101.445ZM360.761 289.538C310.523 379.11 197.191 410.992 107.634 360.762C18.0765 310.532 -13.8199 197.197 36.418 107.625C86.656 18.053 199.988 -13.8286 289.554 36.4059C379.12 86.6405 410.999 199.966 360.761 289.538Z" fill="#C6C6C6" stroke="#878787" stroke-width="1.14" stroke-miterlimit="10"/>
<path d="M226.664 311.733C232.671 311.321 238.683 310.899 244.695 310.5C247.312 310.329 249.121 311.332 249.953 313.323C250.876 315.56 249.971 318.215 247.72 319.245C242.921 321.447 238.073 323.553 233.233 325.664C232.214 326.112 231.155 325.69 230.85 324.763C230.479 323.626 231.085 322.935 232.063 322.498C236.137 320.691 240.196 318.807 244.318 317.097C244.93 316.844 245.584 316.638 246.097 316.214C246.475 315.888 246.844 315.373 246.77 314.85C246.676 314.201 245.927 313.942 245.359 313.852C244.67 313.752 213.367 315.989 209.653 316.255C208.666 316.32 207.326 316.073 207.188 317.566C207.058 318.983 208.378 318.978 209.283 319.245C214.747 320.843 220.212 322.441 225.683 323.985C227.661 324.544 229.049 325.666 229.458 327.695C229.844 329.642 229.082 331.267 227.641 332.59C227.267 332.93 226.867 333.233 226.486 333.546C225.586 334.291 225.242 335.233 225.6 336.351C225.954 337.477 226.695 338.26 227.905 338.411C229.138 338.564 230.155 338.16 230.803 337.045C230.955 336.775 231.05 336.462 231.172 336.163C231.572 335.184 232.246 334.657 233.31 335.048C234.335 335.428 234.582 336.254 234.332 337.271C233.795 339.434 231.682 341.343 229.413 341.71C226.884 342.113 224.381 340.996 223.06 338.857C221.393 336.169 221.899 333.06 224.329 330.996C225.182 330.271 226.398 329.658 226.117 328.32C225.836 326.982 224.426 327.085 223.433 326.791C218.061 325.211 212.664 323.72 207.284 322.135C204.314 321.26 202.954 318.331 204.208 315.665C204.97 314.041 206.31 313.165 208.08 313.012C210.669 312.79 213.267 312.632 215.867 312.451C219.468 312.201 223.064 311.961 226.656 311.706L226.664 311.733Z" fill="#CE6AAE"/>
<path d="M207.956 88.4126C210.353 89.0009 212.641 89.5392 214.917 90.1397C216.544 90.5705 217.315 91.5648 216.886 92.699C216.35 94.0833 215.266 94.1974 213.962 93.8446C211.267 93.1124 208.556 92.451 205.856 91.7275C203.88 91.204 203.429 90.4352 203.923 88.4314C205.677 81.2781 207.4 74.1189 209.238 67.001C209.468 66.1213 210.163 65.1474 210.929 64.6602C216.115 61.2994 221.366 58.0448 226.606 54.7716C228.381 53.67 229.2 53.8656 230.292 55.6583C233.646 61.1612 237.009 66.669 240.289 72.222C240.699 72.9218 240.867 73.9904 240.686 74.7829C238.971 82.0499 237.163 89.299 235.368 96.5443C234.914 98.3755 234.2 98.8115 232.323 98.3777C229.707 97.7701 227.097 97.1314 224.498 96.453C222.62 95.961 222.214 95.2749 222.665 93.4077C223.434 90.2176 224.23 87.0421 225.008 83.8569C225.151 83.2953 225.285 82.7288 225.484 81.9461C223.891 81.5572 222.461 81.1446 221.004 80.9009C220.703 80.8463 220.101 81.3682 219.976 81.7337C219.569 82.9495 219.334 84.2272 218.979 85.4724C218.624 86.7176 217.858 87.4913 216.49 87.0906C215.21 86.7165 214.943 85.7417 215.233 84.5292C215.776 82.3353 216.306 80.1451 216.857 77.956C217.194 76.6205 218.101 76.0862 219.402 76.3808C222.284 77.0458 225.145 77.768 228.015 78.4951C229.501 78.87 229.968 79.8767 229.617 81.319C228.801 84.6546 228.05 88.0157 227.14 91.3335C226.766 92.7165 227.104 93.3188 228.504 93.5196C229.553 93.6723 230.58 94.0076 231.748 94.2958C231.956 93.6791 232.149 93.1915 232.275 92.7007C233.71 86.9152 235.149 81.1209 236.526 75.3147C236.678 74.6551 236.657 73.7725 236.339 73.2159C233.619 68.5845 230.803 64.0022 228.014 59.4123C227.906 59.2371 227.756 59.0957 227.873 59.4593C224.441 61.3281 221.073 63.3699 217.539 65.0324C213.9 66.7392 212.175 69.4274 211.518 73.3568C210.785 77.7481 209.463 82.0264 208.398 86.3571C208.255 86.9187 208.165 87.4872 207.977 88.436L207.956 88.4126Z" fill="#7ABE50"/>
<path d="M294.2 145.918C296.803 146.897 299.15 146.758 301.466 146.143C303.052 145.726 304.035 146.139 304.758 147.588C305.918 149.912 307.143 152.203 308.359 154.49C309.444 156.519 310.99 157.031 313.004 155.995C316.146 154.376 319.276 152.74 322.394 151.084C324.368 150.037 324.883 148.526 323.858 146.553C320.735 140.515 317.585 134.485 314.403 128.471C313.377 126.52 311.856 126.126 309.834 127.135C309.28 127.409 308.691 127.927 308.157 127.879C307.381 127.811 306.374 127.544 305.925 126.994C305.27 126.18 305.702 125.207 306.542 124.567C310.615 121.453 315.598 122.54 317.968 127.079C321.029 132.921 324.09 138.764 327.137 144.61C329.166 148.51 327.958 152.463 324.092 154.512C321.012 156.143 317.933 157.751 314.845 159.354C310.991 161.341 306.997 160.064 304.943 156.207C304.068 154.559 303.139 152.926 302.361 151.229C301.906 150.241 301.343 150.039 300.311 150.183C295.499 150.876 291.21 149.777 287.936 145.992C287.426 145.408 287.135 144.294 287.287 143.531C287.495 142.467 288.569 142.37 289.579 142.49C291.795 142.747 293.795 142.287 295.415 140.606C296.022 139.972 296.148 139.401 295.728 138.535C293.518 133.995 295.37 129.59 300.123 127.9C301.124 127.545 302.023 127.74 302.561 128.66C303.112 129.599 302.8 130.502 301.982 131.143C301.415 131.582 300.713 131.853 300.091 132.226C298.664 133.076 298.161 134.605 298.761 136.11C299.321 137.502 300.67 138.694 299.911 140.434C298.967 142.609 297.474 144.27 295.321 145.309C295.042 145.439 294.77 145.596 294.201 145.896L294.2 145.918Z" fill="#3AA4DA"/>
<path d="M64.7983 207.573C63.415 208.241 62.1204 208.833 60.8449 209.493C57.7901 211.058 55.3498 210.239 54.0822 207.064C53.5748 205.782 53.1756 204.39 53.0792 203.029C52.7394 198.506 52.4094 193.966 53.3394 189.468C53.4948 188.741 53.7171 188.018 54.0267 187.343C55.2795 184.619 57.6138 183.808 60.3367 185.083C61.7243 185.735 63.1179 186.357 64.5937 187.035C64.8683 185.871 64.9414 185.087 63.8811 184.424C62.8904 183.799 62.8619 182.706 63.5452 181.794C64.5389 180.472 65.9863 180.997 67.1285 181.351C67.7859 181.548 68.4868 182.526 68.6352 183.262C68.8894 184.505 68.7276 185.835 68.7426 187.402C69.8844 187.39 70.9592 187.373 72.0242 187.375C73.5678 187.381 74.4049 188.034 74.4516 189.218C74.501 190.437 73.6088 191.129 72.0201 191.223C67.3706 191.504 62.8379 191.208 58.7348 188.654C58.5392 188.533 58.2762 188.512 58.0648 188.439C56.0861 191.088 56.2075 203.683 58.2733 206.355C59.3219 205.854 60.4103 205.364 61.4611 204.819C65.0949 202.937 69.0216 203.272 72.8951 203.313C73.9999 203.325 74.6189 204.142 74.5989 205.219C74.579 206.297 73.9325 207 72.8283 207.069C71.5941 207.144 70.3564 207.103 68.9593 207.122C68.9768 208.542 69.1406 209.802 68.9406 210.997C68.8141 211.774 68.3291 212.843 67.7126 213.104C66.597 213.602 65.2282 214.06 64.0459 213.042C63.1733 212.289 63.1492 210.82 64.1508 210.178C65.2079 209.499 65.0975 208.715 64.8255 207.566L64.7983 207.573Z" fill="#E05238"/>
<path d="M81.5113 195C82.9231 195.425 83.589 194.973 84.072 193.662C85.4022 190.065 86.8778 186.514 88.3311 182.963C88.944 181.461 90.1472 180.91 91.2462 181.607C92.3889 182.328 92.376 183.352 91.914 184.502C90.6567 187.602 89.4305 190.708 88.2043 193.814C88.0572 194.178 87.9722 194.555 87.7942 195.097C89.2137 195.079 90.4905 195.05 91.7787 195.062C93.3039 195.081 94.2996 195.88 94.2978 197.048C94.2959 198.216 93.3288 198.98 91.7781 199.027C91.1286 199.041 90.4752 199.042 89.8305 199.047C89.2305 199.054 88.6354 199.053 87.8023 199.067C88.0443 199.718 88.211 200.259 88.4371 200.775C89.6351 203.625 90.8653 206.458 92.0634 209.307C92.747 210.928 92.4941 212.013 91.36 212.523C90.1802 213.053 89.1613 212.459 88.44 210.782C86.9859 207.388 85.4948 204.019 84.1458 200.58C83.6509 199.317 83.0045 198.794 81.7543 199.205C81.2754 201.182 81.0639 203.276 80.2303 205.089C79.3527 206.98 78.0089 208.702 76.6305 210.302C75.7214 211.35 74.2843 211.175 73.6368 210.204C72.9015 209.104 73.3437 208.275 74.1642 207.302C75.2353 206.046 76.3051 204.629 76.8347 203.093C78.1699 199.2 78.0338 195.192 76.6097 191.357C76.0066 189.735 74.8223 188.291 73.7436 186.884C73.0106 185.923 72.7074 185.053 73.4532 184.051C74.1229 183.143 75.3599 183.103 76.3748 183.97C79.0461 186.236 80.3375 189.287 81.0831 192.616C81.2567 193.39 81.3758 194.179 81.5287 195.009L81.5113 195Z" fill="#E05238"/>
<path d="M313.643 255.65C312.372 257.917 311.1 260.184 309.834 262.442C308.083 265.563 304.603 266.579 301.493 264.87C298.009 262.95 294.558 260.991 291.093 259.036C290.247 258.562 289.883 257.762 290.07 256.938C290.264 256.039 290.988 255.321 291.877 255.35C292.387 255.361 292.932 255.552 293.386 255.807C296.582 257.565 299.755 259.367 302.95 261.148C304.65 262.102 305.553 261.84 306.516 260.123C308.937 255.807 311.357 251.492 313.778 247.176C314.707 245.519 314.437 244.612 312.754 243.668C309.502 241.844 306.242 240.015 302.99 238.192C301.718 237.478 301.436 236.346 302.202 235.205C302.717 234.428 303.726 234.1 304.555 234.565C308.365 236.679 312.192 238.745 315.929 240.99C318.305 242.415 319.019 246.024 317.608 248.602C316.309 250.979 314.962 253.319 313.637 255.681L313.643 255.65Z" fill="#4680DC"/>
<path d="M292.947 239.447L289.05 246.395C289.306 246.55 289.544 246.718 289.789 246.855C292.404 248.322 295.028 249.794 297.638 251.269C298.51 251.758 298.853 252.535 298.676 253.444C298.521 254.252 297.867 254.928 297.027 254.995C296.618 255.029 296.138 254.966 295.789 254.771C292.261 252.826 288.739 250.851 285.236 248.863C284.277 248.325 283.94 247.231 284.464 246.276C286.423 242.721 288.408 239.182 290.42 235.657C290.992 234.637 292.095 234.407 293.163 234.995C296.607 236.926 300.05 238.858 303.502 240.794C304.531 241.371 304.892 242.525 304.394 243.495C303.891 244.473 302.647 244.853 301.591 244.283C299.005 242.867 296.443 241.407 293.871 239.965C293.592 239.808 293.313 239.652 292.938 239.442L292.947 239.447Z" fill="#4680DC"/>
<path d="M326.294 253.589C330.156 255.755 331.506 260.581 329.349 264.448C327.163 268.345 322.337 269.695 318.432 267.505C314.587 265.349 313.213 260.463 315.351 256.631C317.512 252.778 322.415 251.413 326.289 253.597L326.294 253.589ZM318.868 258.615C317.802 260.516 318.492 262.943 320.396 264.022C322.335 265.121 324.749 264.435 325.84 262.469C326.912 260.537 326.242 258.156 324.329 257.071C322.394 255.986 319.953 256.68 318.877 258.62L318.868 258.615Z" fill="#4680DC"/>
<path d="M96.0709 289.512C94.0392 292.521 94.2474 296.237 96.607 298.752C97.4035 299.6 98.3267 300.324 99.2238 301.033L99.6119 301.343C105.633 306.095 112.462 311.472 119.227 316.757C122.088 318.992 125.988 318.944 128.698 316.625C131.464 314.268 132.159 310.394 130.345 307.417C129.73 306.408 129.877 305.962 130.597 305.128C131.908 303.629 131.856 303.107 130.737 301.792L135.22 296.089C136.248 294.786 137.273 293.47 138.302 292.167C138.768 291.581 138.97 291.017 138.909 290.513C138.857 290.095 138.62 289.721 138.227 289.42C137.842 289.124 137.419 289.001 137.004 289.067C136.504 289.141 136.023 289.468 135.625 290.013C135.534 290.134 135.449 290.246 135.349 290.362L128.033 299.668L126.035 298.1L133.728 288.307C134.038 287.919 134.338 287.526 134.643 287.146C135.291 286.318 135.211 285.459 134.418 284.809C133.642 284.19 132.798 284.244 132.077 285.02C131.869 285.247 131.674 285.493 131.484 285.73L131.393 285.851L128.564 289.444C126.996 291.442 125.42 293.435 123.853 295.432C123.696 295.631 123.535 295.816 123.365 295.995L121.394 294.443L129.463 284.184L129.635 283.959C129.744 283.826 129.844 283.687 129.954 283.554C130.277 283.162 130.69 282.568 130.614 281.907C130.566 281.502 130.35 281.151 129.962 280.842C129.944 280.832 129.936 280.827 129.918 280.818C129.257 280.321 128.685 280.401 128.328 280.568C127.871 280.77 127.525 281.183 127.267 281.52C127.166 281.658 127.052 281.8 126.943 281.934L118.75 292.353L116.744 290.78L119.254 287.592C121.135 285.198 123.017 282.804 124.899 280.409L124.985 280.297C125.489 279.663 126.322 278.606 125.099 277.519C124.743 277.193 124.356 277.045 123.969 277.08C123.439 277.127 122.92 277.5 122.305 278.29L114.089 288.73L112.092 287.163L114.454 284.156C116.136 282.016 117.822 279.867 119.504 277.727C120.076 276.994 120.328 276.298 120.222 275.712C120.147 275.314 119.921 274.981 119.556 274.754C118.125 273.871 117.205 275.063 116.762 275.628C115.642 277.074 114.504 278.51 113.37 279.96L109.363 285.059C107.89 284.233 107.354 284.413 106.201 285.876C106.153 285.941 106.101 285.992 106.054 286.057C105.921 286.212 105.783 286.375 105.676 286.567C105.408 287.024 105.21 287.131 104.538 286.88C101.486 285.741 97.8427 286.884 96.0475 289.533L96.0709 289.512ZM127.069 304.124C126.877 304.2 126.579 304.078 126.37 303.961C126.091 303.805 125.538 303.563 124.998 303.627C123.698 303.78 122.827 303.086 121.81 302.263L121.504 302.011C120.163 300.95 118.816 299.897 117.475 298.835C115.128 296.991 112.699 295.09 110.342 293.184C109.98 292.889 109.7 292.388 109.432 291.905C109.357 291.772 109.283 291.639 109.209 291.505C109.097 291.317 109.017 291.111 108.93 290.879C108.782 290.51 108.639 290.131 108.359 289.814C108.13 289.548 108.024 289.328 108.05 289.159C108.066 289.008 108.186 288.834 108.41 288.639L127.49 303.638C127.366 303.901 127.237 304.069 127.096 304.116L127.069 304.124ZM105.608 295.904C105.573 295.965 105.526 296.029 105.478 296.094C105.31 296.333 105.085 296.631 105.127 296.986C105.211 297.755 105.329 298.464 105.82 298.773C106.337 299.098 107.428 298.93 107.866 298.477C108.319 297.997 108.646 297.413 108.964 296.846C109.013 296.759 109.062 296.672 109.111 296.585L119.615 304.848L119.521 304.933C119.133 305.278 118.769 305.6 118.412 305.95C117.91 306.437 117.662 306.94 117.665 307.445C117.667 307.871 117.85 308.26 118.214 308.613C118.569 308.961 118.968 309.127 119.381 309.107C119.874 309.085 120.365 308.822 120.851 308.304C122.153 306.902 123.7 306.555 125.456 307.265C126.98 307.879 127.835 309.092 127.917 310.765C128.007 312.443 127.298 313.708 125.827 314.51C124.293 315.346 122.79 315.248 121.478 314.214C117.914 311.436 114.23 308.544 110.352 305.487C106.91 302.777 103.317 299.948 99.5298 296.953C97.8604 295.638 97.5764 293.141 98.8903 291.391C100.152 289.715 102.597 289.298 104.349 290.465C106.188 291.702 106.73 294.046 105.603 295.912L105.608 295.904Z" fill="#CE424C"/>
<path d="M118.281 317.177C118.221 316.937 118.054 316.764 117.874 316.616C117.779 316.54 117.679 316.473 117.588 316.41C117.51 316.366 117.437 316.291 117.367 316.252C114.934 314.337 112.493 312.418 110.06 310.503L98.6713 301.548L98.4816 301.396C98.3007 301.249 98.1198 301.102 97.9203 300.967C96.9928 300.332 96.0973 300.437 95.4852 301.263C94.8975 302.045 95.0183 302.892 95.8174 303.592C95.9935 303.748 96.1793 303.887 96.369 304.039L96.5586 304.191C102.762 309.069 108.965 313.946 115.168 318.824C115.246 318.89 115.323 318.956 115.396 319.031C115.653 319.267 115.944 319.545 116.327 319.577C116.742 319.615 117.77 319.641 118.207 319.107C118.507 318.736 118.528 318.106 118.29 317.182L118.281 317.177Z" fill="#CE424C"/>
<path d="M110.97 74.0262C112.341 73.6035 113.689 74.1643 114.316 75.4562C114.422 75.676 114.505 75.9171 114.634 76.2186C116.852 75.5945 119.039 74.9645 121.242 74.3665C122.92 73.9092 124.392 74.7578 124.773 76.3468C125.112 77.786 124.276 79.1739 122.742 79.6202C120.885 80.172 119.022 80.6742 117.153 81.2074L116.119 81.4984L117.256 85.54L118.304 85.2451C120.141 84.7282 121.96 84.2016 123.801 83.6983C125.438 83.2524 126.918 84.0254 127.343 85.5359C127.773 87.0376 126.961 88.4848 125.317 88.9841C123.497 89.5331 121.652 90.0227 119.824 90.5445C119.492 90.6451 119.157 90.7321 118.681 90.8661L118.964 91.8731C120.262 96.4862 121.586 101.092 122.835 105.711C123.043 106.504 123.364 106.81 124.187 106.917C124.445 106.947 124.693 106.994 124.942 107.042C125.597 107.181 126.219 107.38 126.81 107.654C127.303 108.022 127.676 108.541 127.848 109.176C128.084 110.042 127.887 110.986 127.361 111.699C126.949 112.271 126.281 112.767 125.568 112.872C124.78 112.991 124.058 112.357 123.251 112.283C122.784 112.238 122.303 112.278 121.831 112.426C119.833 113.024 118.63 115.169 119.185 117.142C119.739 119.138 122.007 120.387 123.986 119.8C125.348 119.395 126.343 118.234 126.643 116.901C126.727 116.547 126.754 116.173 126.731 115.805C126.681 115.077 126.553 114.753 127.018 114.109C127.397 113.576 127.957 113.169 128.588 112.984C129.523 112.706 130.626 112.946 131.366 113.568C132.321 114.379 132.274 115.75 132.165 116.904C131.872 120.166 129.817 123.197 126.77 124.583C122.561 126.508 117.483 124.978 114.999 121.029C112.523 117.108 113.364 111.849 117.011 108.943C117.732 108.373 117.763 107.909 117.536 107.129C114.757 97.3301 112.006 87.5237 109.25 77.7261C108.745 75.9299 109.394 74.5063 110.92 74.0328L110.97 74.0262Z" fill="#F4B63C"/>
</g>
<defs>
<clipPath id="clip0_144_149">
<rect width="395" height="397" fill="white"/>
</clipPath>
</defs>
</svg>
