<svg width="401" height="404" viewBox="0 0 401 404" fill="none" xmlns="http://www.w3.org/2000/svg">
<g style="mix-blend-mode:difference" clip-path="url(#clip0_144_149)">
<path d="M200.341 200.933L19.1062 282.142C-4.59266 229.138 -4.8408 166.423 23.1954 111.205L200.341 200.933Z" fill="#FB6E52"/>
<path d="M157.917 6.92163L200.341 200.933L23.1952 111.205C24.4413 108.717 25.7668 106.252 27.1458 103.793C56.0299 52.2941 104.436 18.6436 157.917 6.92163Z" fill="#FFCE54"/>
<path d="M297.487 27.7259C306.989 33.0554 315.87 39.0446 324.118 45.6079L200.336 200.941L157.912 6.93036C203.772 -3.1174 253.34 2.9655 297.487 27.7259Z" fill="#A1D469"/>
<path d="M324.132 45.6041C372.751 84.2535 399.423 142.764 398.961 202.64L200.355 200.929L324.137 45.5954L324.132 45.6041Z" fill="#4FC1E9"/>
<path d="M398.956 202.649C398.7 235.042 390.508 267.833 373.545 298.077C360.171 321.922 342.616 341.943 322.296 357.719L200.341 200.933L398.947 202.644L398.956 202.649Z" fill="#5D9BEC"/>
<path d="M200.341 200.933L322.296 357.719C275.204 394.319 213.316 408.179 154.567 394.231L200.345 200.946L200.341 200.933Z" fill="#ED87C0"/>
<path d="M200.341 200.933L154.555 394.212C136.992 390.035 119.72 383.396 103.2 374.131C64.5283 352.441 35.9215 319.732 19.1062 282.142L200.341 200.933Z" fill="#ED5463"/>
<path d="M27.1546 103.798C-26.5013 199.464 7.55289 320.497 103.204 374.144C198.855 427.792 319.885 393.729 373.536 298.072C427.187 202.415 393.138 81.3734 297.496 27.7308C201.853 -25.9117 80.8056 8.14078 27.1546 103.798ZM362.517 291.892C312.279 381.464 198.947 413.345 109.389 363.116C19.8322 312.886 -12.0642 199.55 38.1738 109.978C88.4117 20.4065 201.744 -11.4751 291.31 38.7595C380.876 88.994 412.755 202.32 362.517 291.892Z" fill="#C6C6C6" stroke="#878787" stroke-width="1.14" stroke-miterlimit="10"/>
<path d="M228.42 314.087C234.427 313.674 240.44 313.253 246.451 312.853C249.068 312.682 250.877 313.686 251.709 315.677C252.632 317.913 251.727 320.569 249.476 321.599C244.677 323.801 239.829 325.907 234.989 328.017C233.97 328.466 232.911 328.044 232.606 327.116C232.235 325.98 232.841 325.288 233.82 324.851C237.893 323.044 241.952 321.161 246.074 319.45C246.686 319.197 247.34 318.991 247.853 318.568C248.231 318.241 248.6 317.726 248.526 317.204C248.432 316.555 247.683 316.295 247.115 316.206C246.426 316.106 215.123 318.342 211.41 318.609C210.422 318.674 209.082 318.427 208.944 319.919C208.814 321.336 210.134 321.332 211.039 321.599C216.503 323.196 221.968 324.794 227.439 326.338C229.417 326.898 230.805 328.02 231.214 330.049C231.6 331.996 230.838 333.62 229.397 334.943C229.023 335.284 228.623 335.587 228.242 335.9C227.343 336.645 226.998 337.586 227.356 338.704C227.71 339.831 228.452 340.613 229.662 340.765C230.894 340.917 231.911 340.514 232.559 339.399C232.711 339.129 232.806 338.815 232.928 338.517C233.328 337.538 234.002 337.011 235.066 337.401C236.091 337.781 236.338 338.607 236.088 339.625C235.551 341.788 233.438 343.697 231.169 344.063C228.64 344.467 226.138 343.35 224.816 341.211C223.15 338.522 223.655 335.414 226.085 333.35C226.939 332.625 228.154 332.011 227.873 330.673C227.592 329.335 226.182 329.438 225.189 329.145C219.818 327.565 214.42 326.073 209.04 324.489C206.07 323.614 204.71 320.685 205.965 318.019C206.727 316.395 208.066 315.519 209.836 315.366C212.425 315.144 215.023 314.985 217.623 314.805C221.224 314.555 224.82 314.314 228.412 314.06L228.42 314.087Z" fill="#CE6AAE"/>
<path d="M209.711 90.766C212.109 91.3543 214.397 91.8926 216.673 92.4931C218.3 92.9239 219.071 93.9182 218.641 95.0524C218.106 96.4367 217.022 96.5508 215.718 96.198C213.023 95.4658 210.311 94.8044 207.612 94.0809C205.636 93.5574 205.185 92.7886 205.678 90.7847C207.433 83.6315 209.156 76.4723 210.994 69.3544C211.224 68.4747 211.919 67.5008 212.685 67.0136C217.87 63.6528 223.122 60.3982 228.362 57.125C230.137 56.0234 230.956 56.219 232.047 58.0117C235.402 63.5146 238.765 69.0224 242.045 74.5754C242.454 75.2752 242.623 76.3438 242.442 77.1363C240.727 84.4033 238.919 91.6524 237.124 98.8977C236.67 100.729 235.956 101.165 234.079 100.731C231.463 100.123 228.853 99.4848 226.254 98.8064C224.375 98.3144 223.97 97.6283 224.421 95.7611C225.19 92.571 225.986 89.3955 226.764 86.2103C226.907 85.6487 227.041 85.0822 227.239 84.2995C225.647 83.9106 224.216 83.498 222.76 83.2543C222.459 83.1997 221.856 83.7215 221.732 84.0871C221.325 85.3029 221.089 86.5806 220.735 87.8258C220.38 89.071 219.614 89.8446 218.246 89.444C216.966 89.0699 216.699 88.0951 216.989 86.8826C217.532 84.6887 218.061 82.4985 218.613 80.3094C218.95 78.9739 219.857 78.4396 221.158 78.7342C224.04 79.3992 226.901 80.1214 229.771 80.8485C231.257 81.2234 231.723 82.2301 231.373 83.6724C230.556 87.008 229.806 90.3691 228.896 93.6869C228.522 95.0699 228.86 95.6722 230.26 95.873C231.309 96.0257 232.336 96.361 233.503 96.6491C233.712 96.0325 233.905 95.5449 234.031 95.0541C235.466 89.2686 236.905 83.4743 238.282 77.6681C238.434 77.0085 238.413 76.1259 238.095 75.5693C235.375 70.9379 232.559 66.3556 229.77 61.7657C229.662 61.5905 229.512 61.4491 229.629 61.8127C226.197 63.6815 222.829 65.7233 219.295 67.3858C215.656 69.0925 213.931 71.7807 213.274 75.7102C212.541 80.1015 211.219 84.3798 210.154 88.7105C210.011 89.2721 209.921 89.8406 209.733 90.7894L209.711 90.766Z" fill="#7ABE50"/>
<path d="M295.956 148.272C298.558 149.25 300.906 149.111 303.222 148.496C304.808 148.079 305.791 148.493 306.514 149.941C307.674 152.266 308.899 154.557 310.115 156.843C311.2 158.873 312.746 159.385 314.76 158.349C317.902 156.73 321.032 155.093 324.15 153.438C326.124 152.39 326.639 150.88 325.614 148.907C322.491 142.869 319.341 136.839 316.158 130.825C315.132 128.874 313.612 128.48 311.59 129.489C311.036 129.762 310.447 130.28 309.912 130.233C309.137 130.164 308.129 129.897 307.681 129.348C307.026 128.534 307.457 127.561 308.298 126.92C312.371 123.806 317.354 124.894 319.724 129.432C322.785 135.275 325.845 141.117 328.892 146.963C330.922 150.864 329.714 154.816 325.848 156.866C322.768 158.496 319.688 160.104 316.6 161.707C312.747 163.695 308.753 162.418 306.699 158.561C305.824 156.913 304.895 155.28 304.116 153.582C303.662 152.594 303.099 152.393 302.067 152.536C297.255 153.23 292.966 152.131 289.691 148.346C289.182 147.762 288.891 146.647 289.043 145.885C289.251 144.821 290.325 144.724 291.335 144.844C293.551 145.101 295.551 144.641 297.171 142.959C297.778 142.326 297.904 141.754 297.484 140.889C295.274 136.349 297.126 131.943 301.879 130.254C302.88 129.898 303.779 130.093 304.317 131.014C304.868 131.953 304.556 132.856 303.738 133.497C303.171 133.936 302.469 134.207 301.847 134.58C300.42 135.429 299.917 136.959 300.517 138.464C301.077 139.855 302.426 141.047 301.667 142.788C300.723 144.963 299.229 146.624 297.077 147.663C296.797 147.793 296.526 147.95 295.957 148.25L295.956 148.272Z" fill="#3AA4DA"/>
<path d="M66.5539 209.927C65.1706 210.595 63.876 211.187 62.6005 211.847C59.5457 213.411 57.1054 212.593 55.8378 209.418C55.3304 208.136 54.9312 206.743 54.8348 205.383C54.495 200.86 54.165 196.32 55.095 191.821C55.2504 191.095 55.4727 190.371 55.7823 189.697C57.0351 186.973 59.3694 186.162 62.0923 187.437C63.4799 188.089 64.8735 188.71 66.3493 189.389C66.624 188.225 66.6971 187.441 65.6367 186.777C64.646 186.153 64.6175 185.06 65.3008 184.148C66.2945 182.825 67.7419 183.351 68.8841 183.705C69.5415 183.902 70.2424 184.879 70.3908 185.616C70.645 186.859 70.4832 188.189 70.4982 189.756C71.64 189.743 72.7148 189.727 73.7798 189.728C75.3234 189.735 76.1605 190.388 76.2072 191.571C76.2566 192.791 75.3645 193.482 73.7758 193.577C69.1262 193.857 64.5935 193.562 60.4904 191.008C60.2948 190.887 60.0318 190.865 59.8204 190.793C57.8417 193.442 57.9632 206.037 60.0289 208.708C61.0775 208.208 62.1659 207.718 63.2167 207.173C66.8505 205.291 70.7772 205.625 74.6507 205.666C75.7555 205.678 76.3745 206.495 76.3545 207.573C76.3346 208.651 75.6881 209.354 74.5839 209.422C73.3497 209.498 72.112 209.457 70.7149 209.476C70.7324 210.895 70.8962 212.156 70.6962 213.35C70.5697 214.128 70.0848 215.196 69.4682 215.458C68.3526 215.956 66.9838 216.414 65.8015 215.396C64.9289 214.643 64.9048 213.174 65.9064 212.532C66.9635 211.853 66.8531 211.069 66.5811 209.919L66.5539 209.927Z" fill="#E05238"/>
<path d="M83.2669 197.353C84.6787 197.778 85.3446 197.327 85.8276 196.016C87.1578 192.418 88.6334 188.868 90.0867 185.316C90.6996 183.815 91.9028 183.263 93.0019 183.96C94.1445 184.681 94.1316 185.705 93.6696 186.856C92.4124 189.956 91.1861 193.062 89.9599 196.167C89.8128 196.532 89.7278 196.908 89.5499 197.45C90.9693 197.433 92.2461 197.404 93.5344 197.416C95.0595 197.435 96.0552 198.234 96.0534 199.402C96.0515 200.57 95.0844 201.334 93.5337 201.381C92.8842 201.395 92.2308 201.395 91.5861 201.4C90.9861 201.408 90.391 201.406 89.5579 201.42C89.7999 202.072 89.9667 202.612 90.1927 203.129C91.3908 205.978 92.6209 208.811 93.819 211.661C94.5027 213.282 94.2497 214.366 93.1156 214.876C91.9358 215.407 90.9169 214.812 90.1956 213.136C88.7415 209.741 87.2504 206.372 85.9014 202.934C85.4065 201.671 84.7601 201.148 83.5099 201.558C83.031 203.536 82.8195 205.629 81.986 207.442C81.1084 209.334 79.7645 211.056 78.3861 212.655C77.477 213.704 76.0399 213.528 75.3924 212.558C74.6571 211.458 75.0993 210.628 75.9198 209.656C76.9909 208.4 78.0607 206.983 78.5903 205.446C79.9256 201.553 79.7895 197.546 78.3653 193.71C77.7622 192.088 76.5779 190.645 75.4992 189.237C74.7662 188.276 74.463 187.407 75.2088 186.404C75.8785 185.496 77.1155 185.456 78.1304 186.324C80.8017 188.59 82.0931 191.641 82.8388 194.97C83.0123 195.743 83.1314 196.532 83.2843 197.363L83.2669 197.353Z" fill="#E05238"/>
<path d="M315.399 258.004C314.128 260.271 312.856 262.537 311.59 264.795C309.839 267.917 306.359 268.933 303.249 267.223C299.765 265.303 296.314 263.345 292.849 261.39C292.003 260.916 291.639 260.115 291.825 259.292C292.02 258.392 292.744 257.675 293.633 257.704C294.142 257.714 294.688 257.906 295.142 258.16C298.338 259.919 301.51 261.721 304.706 263.502C306.406 264.455 307.309 264.194 308.272 262.476C310.693 258.161 313.113 253.845 315.534 249.529C316.463 247.873 316.193 246.965 314.51 246.021C311.258 244.198 307.998 242.369 304.746 240.545C303.473 239.831 303.192 238.699 303.957 237.559C304.473 236.782 305.482 236.454 306.31 236.918C310.121 239.033 313.948 241.099 317.685 243.344C320.061 244.768 320.775 248.378 319.364 250.956C318.065 253.333 316.718 255.672 315.393 258.035L315.399 258.004Z" fill="#4680DC"/>
<path d="M294.702 241.8L290.805 248.749C291.062 248.904 291.3 249.072 291.544 249.209C294.159 250.676 296.783 252.147 299.394 253.623C300.266 254.112 300.609 254.889 300.432 255.798C300.277 256.605 299.623 257.281 298.783 257.349C298.374 257.383 297.893 257.32 297.545 257.124C294.017 255.18 290.495 253.205 286.991 251.217C286.032 250.679 285.695 249.584 286.219 248.629C288.179 245.075 290.164 241.535 292.175 238.01C292.747 236.99 293.85 236.761 294.919 237.348C298.362 239.28 301.806 241.211 305.258 243.147C306.287 243.724 306.648 244.878 306.15 245.848C305.647 246.827 304.402 247.206 303.347 246.637C300.76 245.221 298.198 243.761 295.626 242.318C295.348 242.162 295.069 242.005 294.694 241.795L294.702 241.8Z" fill="#4680DC"/>
<path d="M328.05 255.942C331.912 258.108 333.262 262.934 331.105 266.801C328.919 270.698 324.093 272.049 320.187 269.858C316.343 267.702 314.969 262.817 317.107 258.984C319.268 255.131 324.17 253.766 328.045 255.951L328.05 255.942ZM320.624 260.969C319.558 262.869 320.248 265.296 322.152 266.376C324.091 267.475 326.505 266.788 327.596 264.822C328.668 262.89 327.998 260.509 326.085 259.424C324.15 258.339 321.709 259.033 320.632 260.973L320.624 260.969Z" fill="#4680DC"/>
<path d="M97.827 291.865C95.7953 294.875 96.0035 298.59 98.3631 301.106C99.1596 301.953 100.083 302.678 100.98 303.387L101.368 303.696C107.389 308.449 114.218 313.826 120.983 319.11C123.844 321.345 127.744 321.298 130.455 318.979C133.22 316.622 133.915 312.748 132.101 309.77C131.486 308.761 131.633 308.316 132.353 307.482C133.664 305.983 133.612 305.461 132.494 304.146L136.976 298.442C138.005 297.14 139.029 295.823 140.058 294.521C140.524 293.934 140.726 293.371 140.665 292.867C140.613 292.448 140.376 292.074 139.983 291.774C139.599 291.478 139.175 291.355 138.76 291.42C138.26 291.495 137.779 291.821 137.381 292.366C137.291 292.487 137.205 292.6 137.105 292.716L129.789 302.021L127.791 300.454L135.484 290.661C135.794 290.272 136.094 289.879 136.399 289.5C137.047 288.672 136.967 287.813 136.174 287.162C135.398 286.544 134.554 286.598 133.833 287.373C133.625 287.601 133.43 287.846 133.24 288.083L133.149 288.204L130.32 291.798C128.752 293.796 127.176 295.788 125.609 297.786C125.452 297.984 125.291 298.169 125.121 298.349L123.15 296.796L131.219 286.537L131.391 286.313C131.5 286.179 131.6 286.041 131.71 285.907C132.033 285.516 132.446 284.922 132.37 284.261C132.322 283.855 132.106 283.505 131.718 283.196C131.7 283.186 131.692 283.181 131.674 283.171C131.013 282.674 130.441 282.755 130.084 282.921C129.627 283.123 129.281 283.536 129.023 283.873C128.922 284.012 128.808 284.154 128.699 284.288L120.506 294.706L118.5 293.134L121.01 289.946C122.892 287.552 124.773 285.157 126.655 282.763L126.741 282.651C127.245 282.017 128.079 280.96 126.855 279.872C126.499 279.547 126.112 279.398 125.726 279.434C125.195 279.48 124.676 279.854 124.061 280.644L115.845 291.084L113.848 289.516L116.211 286.509C117.892 284.369 119.578 282.221 121.26 280.081C121.832 279.347 122.084 278.652 121.978 278.065C121.903 277.668 121.677 277.335 121.312 277.107C119.882 276.225 118.961 277.416 118.518 277.981C117.398 279.427 116.26 280.864 115.126 282.313L111.12 287.413C109.646 286.587 109.11 286.767 107.957 288.229C107.909 288.294 107.858 288.346 107.81 288.41C107.677 288.565 107.54 288.729 107.432 288.921C107.164 289.378 106.967 289.485 106.294 289.233C103.242 288.095 99.5988 289.238 97.8036 291.887L97.827 291.865ZM128.825 306.478C128.633 306.554 128.335 306.432 128.126 306.315C127.847 306.158 127.294 305.917 126.754 305.981C125.454 306.134 124.583 305.439 123.566 304.617L123.26 304.365C121.919 303.303 120.572 302.25 119.231 301.189C116.884 299.345 114.455 297.444 112.098 295.537C111.736 295.243 111.456 294.742 111.188 294.259C111.114 294.126 111.039 293.992 110.965 293.859C110.853 293.67 110.774 293.465 110.686 293.233C110.538 292.863 110.395 292.485 110.115 292.167C109.886 291.901 109.78 291.681 109.806 291.513C109.822 291.361 109.942 291.188 110.166 290.993L129.246 305.992C129.122 306.255 128.993 306.423 128.852 306.47L128.825 306.478ZM107.364 298.257C107.33 298.318 107.282 298.383 107.234 298.448C107.066 298.686 106.841 298.984 106.883 299.34C106.967 300.109 107.085 300.817 107.576 301.127C108.093 301.452 109.184 301.284 109.622 300.83C110.075 300.351 110.402 299.767 110.72 299.2C110.769 299.113 110.818 299.026 110.867 298.938L121.371 307.202L121.277 307.287C120.889 307.631 120.525 307.954 120.168 308.304C119.666 308.79 119.419 309.293 119.421 309.799C119.423 310.224 119.606 310.613 119.97 310.966C120.325 311.314 120.724 311.481 121.137 311.46C121.63 311.439 122.121 311.176 122.607 310.658C123.909 309.256 125.456 308.909 127.212 309.619C128.736 310.233 129.591 311.446 129.673 313.119C129.763 314.797 129.054 316.061 127.584 316.864C126.049 317.7 124.546 317.601 123.234 316.568C119.67 313.789 115.986 310.898 112.108 307.841C108.666 305.131 105.073 302.301 101.286 299.307C99.6165 297.992 99.3325 295.495 100.646 293.745C101.908 292.068 104.353 291.652 106.105 292.818C107.944 294.056 108.486 296.4 107.359 298.266L107.364 298.257Z" fill="#CE424C"/>
<path d="M120.037 319.531C119.977 319.291 119.811 319.117 119.63 318.97C119.535 318.894 119.435 318.826 119.344 318.764C119.266 318.72 119.193 318.645 119.123 318.606C116.69 316.691 114.249 314.772 111.816 312.857L100.427 303.902L100.238 303.75C100.057 303.603 99.8759 303.455 99.6764 303.321C98.7489 302.686 97.8534 302.791 97.2413 303.617C96.6536 304.399 96.7744 305.246 97.5735 305.946C97.7496 306.102 97.9354 306.241 98.1251 306.393L98.3147 306.545C104.518 311.423 110.721 316.3 116.925 321.178C117.002 321.244 117.079 321.31 117.152 321.385C117.409 321.621 117.7 321.899 118.084 321.931C118.498 321.968 119.526 321.995 119.963 321.461C120.263 321.09 120.284 320.46 120.046 319.536L120.037 319.531Z" fill="#CE424C"/>
<path d="M112.726 76.3797C114.097 75.9571 115.445 76.5178 116.072 77.8097C116.178 78.0295 116.261 78.2706 116.39 78.5721C118.608 77.948 120.795 77.318 122.998 76.72C124.675 76.2627 126.148 77.1113 126.529 78.7003C126.867 80.1395 126.032 81.5274 124.498 81.9737C122.641 82.5255 120.778 83.0277 118.909 83.561L117.875 83.852L119.012 87.8935L120.059 87.5986C121.896 87.0817 123.716 86.5551 125.557 86.0518C127.194 85.606 128.674 86.3789 129.099 87.8894C129.529 89.3911 128.717 90.8384 127.073 91.3376C125.253 91.8866 123.408 92.3762 121.58 92.898C121.248 92.9986 120.913 93.0856 120.437 93.2196L120.72 94.2266C122.017 98.8397 123.342 103.445 124.59 108.065C124.799 108.858 125.12 109.164 125.943 109.27C126.201 109.3 126.449 109.348 126.698 109.396C127.353 109.534 127.975 109.734 128.566 110.008C129.059 110.376 129.432 110.895 129.603 111.53C129.84 112.396 129.643 113.339 129.116 114.053C128.704 114.624 128.036 115.12 127.324 115.225C126.535 115.344 125.814 114.71 125.007 114.636C124.54 114.592 124.059 114.632 123.586 114.779C121.589 115.378 120.386 117.523 120.941 119.496C121.495 121.491 123.763 122.74 125.742 122.154C127.104 121.749 128.099 120.588 128.399 119.255C128.483 118.901 128.51 118.526 128.487 118.158C128.437 117.431 128.309 117.107 128.774 116.462C129.152 115.93 129.713 115.522 130.344 115.337C131.279 115.06 132.382 115.3 133.122 115.921C134.077 116.732 134.03 118.104 133.921 119.258C133.627 122.52 131.572 125.55 128.526 126.936C124.317 128.862 119.239 127.332 116.755 123.383C114.279 119.461 115.12 114.202 118.767 111.297C119.487 110.727 119.518 110.263 119.292 109.482C116.513 99.6836 113.762 89.8772 111.006 80.0796C110.501 78.2834 111.15 76.8598 112.676 76.3863L112.726 76.3797Z" fill="#F4B63C"/>
<path d="M200.63 249.254C227.488 249.254 249.261 227.483 249.261 200.627C249.261 173.771 227.488 152 200.63 152C173.773 152 152 173.771 152 200.627C152 227.483 173.773 249.254 200.63 249.254Z" fill="#FBFBFB"/>
<path d="M180.089 202.156V205.285C180.089 205.705 180.049 206.035 179.969 206.285C179.889 206.534 179.739 206.754 179.519 206.954C179.299 207.154 179.019 207.344 178.679 207.534C177.69 208.064 176.74 208.454 175.83 208.703C174.921 208.953 173.921 209.073 172.842 209.073C171.582 209.073 170.442 208.883 169.413 208.494C168.383 208.104 167.504 207.544 166.774 206.814C166.044 206.085 165.485 205.185 165.095 204.146C164.705 203.106 164.515 201.927 164.515 200.637C164.515 199.348 164.705 198.208 165.085 197.149C165.465 196.089 166.024 195.2 166.754 194.46C167.484 193.72 168.383 193.161 169.443 192.771C170.502 192.381 171.692 192.191 173.031 192.191C174.131 192.191 175.101 192.341 175.95 192.631C176.8 192.921 177.48 193.291 178.009 193.74C178.539 194.19 178.929 194.66 179.199 195.16C179.469 195.66 179.599 196.099 179.599 196.489C179.599 196.909 179.449 197.259 179.139 197.549C178.829 197.839 178.459 197.988 178.029 197.988C177.79 197.988 177.56 197.928 177.34 197.819C177.12 197.709 176.94 197.549 176.79 197.349C176.38 196.709 176.04 196.229 175.75 195.899C175.46 195.57 175.091 195.3 174.611 195.08C174.131 194.86 173.521 194.75 172.782 194.75C172.042 194.75 171.332 194.88 170.732 195.15C170.133 195.42 169.613 195.799 169.193 196.299C168.773 196.799 168.443 197.419 168.213 198.138C167.984 198.858 167.874 199.668 167.874 200.557C167.874 202.476 168.313 203.946 169.193 204.975C170.073 206.005 171.302 206.524 172.872 206.524C173.631 206.524 174.351 206.424 175.031 206.225C175.71 206.025 176.38 205.735 177.07 205.365V202.716H174.511C173.891 202.716 173.431 202.626 173.111 202.436C172.792 202.246 172.642 201.937 172.642 201.487C172.642 201.127 172.772 200.827 173.041 200.587C173.311 200.347 173.661 200.227 174.121 200.227H177.87C178.329 200.227 178.719 200.267 179.039 200.347C179.359 200.427 179.619 200.607 179.809 200.897C179.999 201.187 180.109 201.607 180.109 202.166L180.089 202.156Z" fill="#959595"/>
<path d="M183.377 207.054V194.19C183.377 193.521 183.527 193.021 183.837 192.691C184.147 192.361 184.537 192.191 185.017 192.191C185.496 192.191 185.916 192.361 186.226 192.691C186.536 193.021 186.686 193.521 186.686 194.2V207.064C186.686 207.744 186.536 208.244 186.226 208.583C185.916 208.923 185.516 209.083 185.017 209.083C184.517 209.083 184.147 208.913 183.837 208.573C183.527 208.234 183.377 207.734 183.377 207.064V207.054Z" fill="#959595"/>
<path d="M194.823 201.817H193.663V207.064C193.663 207.754 193.513 208.264 193.203 208.593C192.893 208.923 192.504 209.083 192.014 209.083C191.484 209.083 191.074 208.913 190.784 208.573C190.494 208.234 190.354 207.734 190.354 207.074V194.51C190.354 193.8 190.514 193.281 190.834 192.961C191.154 192.641 191.674 192.481 192.384 192.481H197.762C198.501 192.481 199.141 192.511 199.671 192.571C200.201 192.631 200.67 192.761 201.1 192.951C201.61 193.171 202.07 193.471 202.46 193.87C202.849 194.27 203.149 194.74 203.359 195.27C203.559 195.799 203.669 196.359 203.669 196.959C203.669 198.178 203.329 199.148 202.64 199.877C201.95 200.607 200.91 201.117 199.511 201.427C200.101 201.737 200.66 202.196 201.19 202.806C201.72 203.416 202.2 204.066 202.62 204.745C203.039 205.435 203.369 206.055 203.599 206.604C203.829 207.154 203.949 207.534 203.949 207.744C203.949 207.954 203.879 208.174 203.739 208.383C203.599 208.593 203.409 208.763 203.179 208.883C202.939 209.003 202.67 209.063 202.36 209.063C201.99 209.063 201.68 208.973 201.42 208.803C201.17 208.633 200.95 208.403 200.77 208.144C200.59 207.884 200.34 207.484 200.031 206.964L198.701 204.755C198.221 203.946 197.801 203.326 197.422 202.906C197.042 202.486 196.662 202.196 196.282 202.036C195.902 201.877 195.412 201.807 194.823 201.807V201.817ZM196.712 194.96H193.663V199.448H196.622C197.412 199.448 198.081 199.378 198.631 199.238C199.181 199.098 199.591 198.868 199.871 198.538C200.151 198.208 200.3 197.748 200.3 197.179C200.3 196.729 200.181 196.329 199.951 195.979C199.721 195.629 199.401 195.38 198.991 195.21C198.601 195.05 197.841 194.96 196.712 194.96Z" fill="#959595"/>
<path d="M217.233 206.944L216.454 204.895H209.816L209.037 206.984C208.737 207.804 208.477 208.354 208.257 208.633C208.037 208.923 207.687 209.063 207.198 209.063C206.778 209.063 206.418 208.913 206.098 208.603C205.778 208.294 205.618 207.954 205.618 207.564C205.618 207.344 205.658 207.114 205.728 206.874C205.798 206.634 205.928 206.304 206.098 205.885L210.276 195.28C210.396 194.98 210.536 194.61 210.706 194.18C210.876 193.75 211.056 193.401 211.236 193.121C211.416 192.841 211.676 192.611 211.986 192.431C212.295 192.251 212.675 192.171 213.125 192.171C213.575 192.171 213.965 192.261 214.275 192.431C214.585 192.601 214.834 192.831 215.024 193.101C215.214 193.371 215.374 193.67 215.504 193.99C215.634 194.31 215.804 194.73 216.004 195.25L220.272 205.785C220.602 206.584 220.772 207.174 220.772 207.534C220.772 207.894 220.612 208.264 220.302 208.573C219.982 208.893 219.603 209.043 219.163 209.043C218.903 209.043 218.683 208.993 218.493 208.903C218.303 208.813 218.153 208.683 218.023 208.523C217.893 208.364 217.763 208.114 217.613 207.784C217.473 207.454 217.343 207.164 217.243 206.914L217.233 206.944ZM210.686 202.416H215.564L213.105 195.68L210.686 202.416Z" fill="#959595"/>
<path d="M227.639 201.817H226.48V207.064C226.48 207.754 226.33 208.264 226.02 208.593C225.71 208.923 225.32 209.083 224.83 209.083C224.301 209.083 223.891 208.913 223.601 208.573C223.311 208.234 223.171 207.734 223.171 207.074V194.51C223.171 193.8 223.331 193.281 223.651 192.961C223.971 192.641 224.491 192.481 225.2 192.481H230.578C231.318 192.481 231.958 192.511 232.487 192.571C233.017 192.631 233.487 192.761 233.917 192.951C234.427 193.171 234.886 193.471 235.276 193.87C235.666 194.27 235.966 194.74 236.176 195.27C236.386 195.799 236.486 196.359 236.486 196.959C236.486 198.178 236.146 199.148 235.456 199.877C234.766 200.607 233.727 201.117 232.327 201.427C232.917 201.737 233.477 202.196 234.007 202.806C234.537 203.416 235.016 204.066 235.436 204.745C235.856 205.425 236.186 206.055 236.416 206.604C236.646 207.154 236.766 207.534 236.766 207.744C236.766 207.954 236.696 208.174 236.556 208.383C236.416 208.593 236.226 208.763 235.996 208.883C235.766 209.003 235.486 209.063 235.176 209.063C234.806 209.063 234.497 208.973 234.237 208.803C233.987 208.633 233.767 208.403 233.587 208.144C233.407 207.884 233.157 207.484 232.847 206.964L231.518 204.755C231.038 203.946 230.618 203.326 230.238 202.906C229.858 202.486 229.479 202.196 229.099 202.036C228.719 201.877 228.229 201.807 227.639 201.807V201.817ZM229.529 194.96H226.48V199.448H229.439C230.228 199.448 230.898 199.378 231.448 199.238C231.998 199.098 232.407 198.868 232.687 198.538C232.967 198.208 233.117 197.748 233.117 197.179C233.117 196.729 233.007 196.329 232.767 195.979C232.527 195.629 232.218 195.38 231.808 195.21C231.418 195.05 230.658 194.96 229.529 194.96Z" fill="#959595"/>
</g>
<defs>
<clipPath id="clip0_144_149">
<rect width="401" height="404" fill="white"/>
</clipPath>
</defs>
</svg>
